<?xml version="1.0" encoding="utf-8"?>
<!-- Generator: Adobe Illustrator 22.1.0, SVG Export Plug-In . SVG Version: 6.00 Build 0)  -->
<svg version="1.1" id="Layer_1" xmlns="http://www.w3.org/2000/svg" xmlns:xlink="http://www.w3.org/1999/xlink" x="0px" y="0px"
	 viewBox="0 0 2286 1780" style="enable-background:new 0 0 2286 1780;" xml:space="preserve">
<style type="text/css">
	.st0{fill:#FEFEFE;}
	.st1{fill-rule:evenodd;clip-rule:evenodd;fill:#EDF6F5;}
	.st2{opacity:0.45;fill-rule:evenodd;clip-rule:evenodd;fill:#FEFEFE;}
	.st3{opacity:0.45;fill-rule:evenodd;clip-rule:evenodd;fill:#EDF6F5;}
	.st4{opacity:0.21;fill-rule:evenodd;clip-rule:evenodd;fill:#FEFEFE;}
	.st5{opacity:0.21;fill-rule:evenodd;clip-rule:evenodd;fill:#EDF6F5;}
	.st6{clip-path:url(#SVGID_2_);}
	.st7{opacity:5.070000e-02;clip-path:url(#SVGID_4_);fill:#216DB4;}
</style>
<title>Group 11</title>
<desc>Created with Sketch.</desc>
<g id="Page-1">
	<g id="page--copy-5" transform="translate(0.000000, -365.000000)">
		<g id="Group-11" transform="translate(-0.396432, 365.000000)">
			<path id="Line" class="st0" d="M2286.4,1267.7V0l-627,140.3L775.9,696.1c-10,6.3-21,10.8-32.6,13.2L0.4,866v333.7V1780h2286
				V1267.7z"/>
			<polygon class="st1" points="1228.3,373.4 1276.3,400.6 1228.3,428.2 1182,400.8 			"/>
			<polygon class="st1" points="1422.4,206.3 1470.5,233.6 1422.4,261.1 1376.1,233.7 			"/>
			<polygon class="st2" points="1550.9,78.9 1598.9,106.2 1550.9,133.7 1504.6,106.3 			"/>
			<polygon class="st3" points="1319.2,288.2 1367.2,315.4 1319.2,343 1272.9,315.6 			"/>
			<polygon class="st4" points="1507.2,79.9 1555.2,107.2 1507.2,134.7 1460.9,107.3 			"/>
			<polygon class="st4" points="1322.4,152.3 1370.4,179.6 1322.4,207.2 1276.1,179.7 			"/>
			<polygon class="st4" points="1318,178.5 1366.1,205.8 1318,233.3 1271.7,205.9 			"/>
			<polygon class="st5" points="1228.3,351.1 1276.3,378.4 1228.3,405.9 1182,378.5 			"/>
			<polygon class="st1" points="1366.3,290.2 1414.4,317.4 1366.3,345 1320.1,317.6 			"/>
			<polygon class="st1" points="1516.7,206.2 1564.8,233.4 1516.7,261 1470.5,233.6 			"/>
			<polygon class="st3" points="1595.9,153.6 1644,180.9 1595.9,208.5 1549.6,181.1 			"/>
			<polygon class="st1" points="1687.7,204.7 1735.8,232 1687.7,259.5 1641.4,232.1 			"/>
			<polygon class="st5" points="1549.8,343 1597.8,370.2 1549.8,397.8 1503.5,370.4 			"/>
			<polygon class="st1" points="1275.4,421.4 1323.5,448.7 1275.4,476.2 1229.1,448.8 			"/>
			<polygon class="st5" points="1559.1,204.6 1607.1,231.9 1559.1,259.4 1512.8,232 			"/>
			<polygon class="st1" points="1549.8,288.2 1597.8,315.4 1549.8,343 1503.5,315.6 			"/>
			<polygon class="st1" points="1507.6,301.9 1531.6,315.5 1507.6,329.3 1484.5,315.6 			"/>
			<polygon class="st1" points="1649.1,568.3 1673.1,582 1649.1,595.7 1625.9,582 			"/>
			<polygon class="st1" points="1398.1,356.8 1422.1,370.4 1398.1,384.2 1375,370.5 			"/>
			<polygon class="st1" points="1608,412.7 1632,426.4 1608,440.2 1584.9,426.4 			"/>
			<polygon class="st5" points="1549.4,168.5 1573.4,182.1 1549.4,195.9 1526.3,182.2 			"/>
			<polygon class="st1" points="1272.5,277.4 1296.5,291.1 1272.5,304.9 1249.3,291.2 			"/>
			<polygon class="st1" points="1537.6,421.3 1635.4,476.8 1537.6,532.9 1443.4,477.1 			"/>
			<polygon class="st5" points="1686,293.2 1777.4,345.2 1686,397.6 1597.8,345.4 			"/>
			<polygon class="st5" points="1577.9,582 1625.9,609.3 1577.9,636.9 1531.6,609.4 			"/>
			<polygon class="st3" points="1322.6,373.2 1370.6,400.5 1322.6,428.1 1276.3,400.6 			"/>
		</g>
	</g>
</g>
<g>
	<defs>
		<polygon id="SVGID_1_" points="-1919.1,1003.3 -1871,1030.5 -1919.1,1058.1 -1965.4,1030.7 		"/>
	</defs>
	<clipPath id="SVGID_2_">
		<use xlink:href="#SVGID_1_"  style="overflow:visible;"/>
	</clipPath>
	<g class="st6">
		<defs>
			<rect id="SVGID_3_" x="-2323" y="247.2" width="2286" height="4431"/>
		</defs>
		<clipPath id="SVGID_4_">
			<use xlink:href="#SVGID_3_"  style="overflow:visible;"/>
		</clipPath>
		<rect x="-1970.4" y="998.3" class="st7" width="104.3" height="64.8"/>
	</g>
</g>
</svg>
