<?xml version="1.0" encoding="UTF-8"?>
<svg width="44px" height="44px" viewBox="0 0 44 44" version="1.1" xmlns="http://www.w3.org/2000/svg" xmlns:xlink="http://www.w3.org/1999/xlink">
    <!-- Generator: Sketch 51.3 (57544) - http://www.bohemiancoding.com/sketch -->
    <title>Group 5</title>
    <desc>Created with Sketch.</desc>
    <defs>
        <linearGradient x1="0%" y1="85%" x2="100%" y2="15%" id="linearGradient-1">
            <stop stop-color="#912E40" offset="0%"></stop>
            <stop stop-color="#D78747" offset="100%"></stop>
        </linearGradient>
    </defs>
    <g id="Page-1" stroke="none" stroke-width="1" fill="none" fill-rule="evenodd">
        <g id="docs-new-design" transform="translate(-188.000000, -769.000000)">
            <g id="Group-5" transform="translate(188.000000, 769.000000)">
                <circle id="Oval-2-Copy-2" fill="#F6FAF9" cx="21.754546" cy="22.2519531" r="21.5"></circle>
                <g id="icon_ifix" transform="translate(13.754546, 13.251953)" fill-rule="nonzero">
                    <rect id="Rectangle-path" fill="#14CCCC" x="0.267516347" y="18.0863229" width="1.08306242" height="2.88571887" rx="0.541531212"></rect>
                    <rect id="Rectangle-path" fill="#14CCCC" x="7.27988664" y="12.9720654" width="1.08306242" height="4.92701619" rx="0.541531212"></rect>
                    <rect id="Rectangle-path" fill="#14CCCC" x="2.60619691" y="16.6728347" width="1.08306242" height="3.03073909" rx="0.541531212"></rect>
                    <rect id="Rectangle-path" fill="#14CCCC" x="4.94304178" y="14.3635253" width="1.08306242" height="2.26892399" rx="0.541531212"></rect>
                    <rect id="Rectangle-path" fill="#14CCCC" x="11.955412" y="9.10241189" width="1.08306242" height="6.57730961" rx="0.541531212"></rect>
                    <rect id="Rectangle-path" fill="#14CCCC" x="14.2940926" y="7.98447116" width="1.08306242" height="10.2248436" rx="0.541531212"></rect>
                    <rect id="Rectangle-path" fill="#14CCCC" x="9.61856717" y="11.663212" width="1.08306242" height="4.96923726" rx="0.541531212"></rect>
                    <rect id="Rectangle-path" fill="#14CCCC" x="0.267516347" y="8.99777705" width="1.08306242" height="7.85128472" rx="0.541531212"></rect>
                    <rect id="Rectangle-path" fill="#14CCCC" x="7.27988664" y="8.99777705" width="1.08306242" height="2.66543499" rx="0.541531212"></rect>
                    <rect id="Rectangle-path" fill="#14CCCC" x="9.61856717" y="8.99777705" width="1.08306242" height="1.35658158" rx="0.541531212"></rect>
                    <rect id="Rectangle-path" fill="#14CCCC" x="2.60619691" y="8.99777705" width="1.08306242" height="6.43596078" rx="0.541531212"></rect>
                    <rect id="Rectangle-path" fill="#14CCCC" x="4.94304178" y="8.99777705" width="1.08306242" height="4.09911592" rx="0.541531212"></rect>
                    <rect id="Rectangle-path" fill="#14CCCC" x="11.955412" y="0.384677213" width="1.08306242" height="7.59979396" rx="0.541531212"></rect>
                    <rect id="Rectangle-path" fill="#14CCCC" x="14.2940926" y="0.384677213" width="1.08306242" height="6.3827255" rx="0.541531212"></rect>
                    <path d="M8.88245187,2.69398659 C9.53028832,2.69398659 10.0554635,2.16881137 10.0554635,1.52097491 C10.0554635,0.873138449 9.53028832,0.347963232 8.88245187,0.347963232 C8.23461542,0.347963232 7.70944019,0.873138449 7.70944019,1.52097491 C7.70944019,2.16881137 8.23461542,2.69398659 8.88245187,2.69398659" id="Shape" fill="#14CCCC"></path>
                    <path d="M1.33650706,2.69398659 C1.98434352,2.69398659 2.50951874,2.16881137 2.50951874,1.52097491 C2.50951874,0.873138449 1.98434352,0.347963232 1.33650706,0.347963232 C0.688670602,0.347963232 0.163495387,0.873138449 0.163495387,1.52097491 C0.163495387,2.16881137 0.688670602,2.69398659 1.33650706,2.69398659" id="Shape-Copy" fill="#14CCCC"></path>
                    <rect id="Rectangle-path" fill="#14CCCC" transform="translate(5.089707, 1.520199) rotate(-0.190000) translate(-5.089707, -1.520199) " x="4.54266834" y="0.139753464" width="1.09407662" height="2.76089133" rx="0.54703831"></rect>
                    <path d="M0.334918014,7.74375797 C0.306880597,7.71572056 0.292862099,7.68301074 0.292862099,7.6456275 L0.292862099,4.00638897 C0.292862099,3.96526743 0.30594603,3.93068845 0.332114286,3.90265104 C0.358282542,3.87461363 0.391926938,3.86059512 0.433048483,3.86059512 L3.04051524,3.86059512 C3.08163679,3.86059512 3.11621575,3.87461363 3.14425317,3.90265104 C3.17229058,3.93068845 3.18630908,3.96526743 3.18630908,4.00638897 L3.18630908,4.60077923 C3.18630908,4.64190076 3.17229058,4.67554518 3.14425317,4.70171342 C3.11621575,4.7278817 3.08163679,4.74096561 3.04051524,4.74096561 L1.32463389,4.74096561 L1.32463389,5.52040191 L2.92836613,5.52040191 C2.96948768,5.52040191 3.00406664,5.53442042 3.03210406,5.56245783 C3.06014148,5.59049524 3.07415997,5.62507422 3.07415997,5.66619576 L3.07415997,6.26058602 C3.07415997,6.30170759 3.06014148,6.33535197 3.03210406,6.36152021 C3.00406664,6.38768849 2.96948768,6.4007724 2.92836613,6.4007724 L1.32463389,6.4007724 L1.32463389,7.6456275 C1.32463389,7.68301074 1.31154996,7.71572056 1.2853817,7.74375797 C1.25921345,7.77179541 1.22556905,7.78581389 1.18444751,7.78581389 L0.433048483,7.78581389 C0.395665261,7.78581389 0.362955431,7.77179541 0.334918014,7.74375797 Z M4.52613643,7.74375797 C4.49809902,7.71572056 4.48408051,7.68301074 4.48408051,7.6456275 L4.48408051,4.00078151 C4.48408051,3.95965997 4.49809902,3.92601556 4.52613643,3.89984731 C4.55417384,3.87367907 4.58688366,3.86059512 4.6242669,3.86059512 L5.426133,3.86059512 C5.46725457,3.86059512 5.50089895,3.87367907 5.52706723,3.89984731 C5.55323547,3.92601556 5.56631939,3.95965997 5.56631939,4.00078151 L5.56631939,7.6456275 C5.56631939,7.68301074 5.55323547,7.71572056 5.52706723,7.74375797 C5.50089895,7.77179541 5.46725457,7.78581389 5.426133,7.78581389 L4.6242669,7.78581389 C4.58688366,7.78581389 4.55417384,7.77179541 4.52613643,7.74375797 Z M6.74913801,7.74936543 C6.72483889,7.72506635 6.71268954,7.69796392 6.71268954,7.66805735 C6.71268954,7.6456274 6.71829694,7.6231978 6.72951189,7.60076789 L7.95193719,5.78395233 L6.82483866,4.04564116 C6.81362367,4.02321121 6.80801628,4.00078161 6.80801628,3.9783517 C6.80801628,3.94844512 6.82016566,3.92134266 6.84446474,3.89704358 C6.86876382,3.8727445 6.89586627,3.86059512 6.92577285,3.86059512 L7.78371353,3.86059512 C7.8659566,3.86059512 7.93324539,3.90171606 7.98558192,3.98395916 L8.61922437,4.95965638 L9.27529663,3.98395916 C9.32763316,3.90171606 9.39305282,3.86059512 9.47155759,3.86059512 L10.2902461,3.86059512 C10.3201527,3.86059512 10.3472551,3.8727445 10.3715542,3.89704358 C10.3958533,3.92134266 10.4080027,3.94844512 10.4080027,3.9783517 C10.4080027,4.00078161 10.4023952,4.02321121 10.3911803,4.04564116 L9.25286683,5.77273741 L10.486507,7.60076789 C10.497722,7.6231978 10.5033294,7.6456274 10.5033294,7.66805735 C10.5033294,7.69796392 10.49118,7.72506635 10.4668809,7.74936543 C10.4425818,7.77366454 10.4154794,7.78581389 10.3855728,7.78581389 L9.49959486,7.78581389 C9.41735176,7.78581389 9.35193213,7.74843125 9.30333394,7.67366477 L8.58557964,6.63067809 L7.88464772,7.67366477 C7.83604953,7.74843125 7.77062987,7.78581389 7.68838677,7.78581389 L6.83044608,7.78581389 C6.80053951,7.78581389 6.77343709,7.77366454 6.74913801,7.74936543 Z" id="FIX" fill="#577FA1"></path>
                </g>
            </g>
        </g>
    </g>
</svg>