<?xml version="1.0" encoding="utf-8"?>
<!-- Generator: Adobe Illustrator 22.1.0, SVG Export Plug-In . SVG Version: 6.00 Build 0)  -->
<svg version="1.1" id="Layer_1" xmlns="http://www.w3.org/2000/svg" xmlns:xlink="http://www.w3.org/1999/xlink" x="0px" y="0px"
	 viewBox="0 0 64 64" style="enable-background:new 0 0 64 64;" xml:space="preserve">
<style type="text/css">
	.st0{fill:#22E0B6;}
	.st1{filter:url(#Adobe_OpacityMaskFilter);}
	.st2{fill:#FFFFFF;}
	.st3{mask:url(#mask-2_1_);fill:#22E0B6;}
</style>
<title>Imandra-protocol-icon</title>
<desc>Created with Sketch.</desc>
<g>
	<path id="Fill-1" class="st0" d="M18.1,36.5c2.3,0,4.1-1.8,4.1-4c0-2.2-1.8-4-4.1-4s-4.1,1.8-4.1,4C14,34.7,15.9,36.5,18.1,36.5"/>
	<path id="Fill-3" class="st0" d="M44.3,36.5c2.3,0,4.1-1.8,4.1-4c0-2.2-1.8-4-4.1-4s-4.1,1.8-4.1,4C40.2,34.7,42.1,36.5,44.3,36.5"
		/>
	<path id="Fill-5" class="st0" d="M31.2,27.7c1.1,0,1.9,0.8,1.9,1.9v5.7c0,1-0.9,1.9-1.9,1.9c-1.1,0-1.9-0.8-1.9-1.9v-5.7
		C29.2,28.5,30.1,27.7,31.2,27.7"/>
	<defs>
		<filter id="Adobe_OpacityMaskFilter" filterUnits="userSpaceOnUse" x="0.2" y="0.5" width="63.6" height="63.1">
			<feColorMatrix  type="matrix" values="1 0 0 0 0  0 1 0 0 0  0 0 1 0 0  0 0 0 1 0"/>
		</filter>
	</defs>
	<mask maskUnits="userSpaceOnUse" x="0.2" y="0.5" width="63.6" height="63.1" id="mask-2_1_">
		<g class="st1">
			<polygon id="path-1_1_" class="st2" points="0.2,0.5 63.8,0.5 63.8,63.5 0.2,63.5 			"/>
		</g>
	</mask>
	<path id="Fill-7" class="st3" d="M32.2,5.8L32.2,5.8l-0.2,0c-1.5,0-2.7-1.2-2.7-2.7s1.2-2.7,2.7-2.7l0.2,0c1.5,0,2.7,1.2,2.7,2.7
		C34.8,4.6,33.6,5.8,32.2,5.8 M13.4,12.5c-0.8,0-1.5-0.3-2.1-1c-0.9-1.1-0.8-2.8,0.3-3.7c2.8-2.3,6-4.2,9.5-5.4
		c1.4-0.5,2.9,0.2,3.4,1.6c0.5,1.4-0.2,2.9-1.6,3.4c-2.9,1-5.6,2.6-7.9,4.5C14.6,12.3,14,12.5,13.4,12.5 M50.7,12.6
		c-0.6,0-1.2-0.2-1.7-0.6c-1.2-1-2.5-1.9-3.8-2.6c-1.3-0.8-2.7-1.4-4.1-1.9c-1.4-0.5-2.1-2-1.6-3.4c0.5-1.4,2-2.1,3.4-1.6
		c1.7,0.6,3.3,1.4,4.9,2.3c1.6,0.9,3.2,2,4.6,3.2c1.1,0.9,1.3,2.6,0.3,3.7C52.3,12.2,51.5,12.6,50.7,12.6 M6.8,20.2
		c-0.5,0-0.9-0.1-1.3-0.4c-1.3-0.7-1.7-2.3-1-3.6l0.1-0.2c0.7-1.3,2.4-1.7,3.7-1c1.3,0.7,1.7,2.4,1,3.6l-0.1,0.1
		C8.6,19.7,7.7,20.2,6.8,20.2 M57.3,20.3c-0.9,0-1.8-0.5-2.3-1.3l-0.1-0.1c-0.7-1.3-0.3-2.9,1-3.6c1.3-0.7,2.9-0.3,3.7,1l0.1,0.2
		c0.7,1.3,0.3,2.9-1,3.6C58.2,20.2,57.7,20.3,57.3,20.3 M3.3,39.6c-1.3,0-2.4-0.9-2.6-2.2c-0.3-1.8-0.5-3.6-0.5-5.4
		c0-1.8,0.2-3.7,0.5-5.5C1,25,2.3,24.1,3.8,24.3C5.2,24.6,6.2,26,6,27.4c-0.3,1.5-0.4,3-0.4,4.6c0,1.5,0.1,3,0.4,4.5
		c0.3,1.4-0.7,2.8-2.2,3.1C3.6,39.5,3.5,39.6,3.3,39.6 M60.7,39.7c-0.2,0-0.3,0-0.5,0c-1.5-0.3-2.4-1.6-2.2-3.1
		c0.3-1.5,0.4-3,0.4-4.6c0-1.5-0.1-3-0.4-4.5c-0.3-1.4,0.7-2.8,2.2-3.1c1.5-0.2,2.8,0.7,3.1,2.2c0.3,1.8,0.5,3.6,0.5,5.4
		c0,1.8-0.2,3.7-0.5,5.5C63.1,38.8,62,39.7,60.7,39.7 M6.8,49.1c-0.9,0-1.8-0.5-2.3-1.3l-0.1-0.2c-0.7-1.3-0.3-2.9,1-3.6
		c1.3-0.7,2.9-0.3,3.6,1l0.1,0.1c0.7,1.3,0.3,2.9-1,3.6C7.7,49,7.2,49.1,6.8,49.1 M57.1,49.2c-0.5,0-0.9-0.1-1.3-0.4
		c-1.3-0.7-1.7-2.4-1-3.6l0.1-0.2c0.7-1.3,2.4-1.7,3.7-1c1.3,0.7,1.7,2.4,1,3.6l-0.1,0.2C58.9,48.8,58,49.2,57.1,49.2 M21.9,61.8
		c-0.3,0-0.6-0.1-0.9-0.2c-1.7-0.6-3.3-1.4-4.9-2.3c-1.6-0.9-3.2-2-4.6-3.2c-1.1-0.9-1.3-2.6-0.3-3.7c0.9-1.1,2.6-1.3,3.8-0.3
		c1.2,1,2.5,1.9,3.8,2.7c1.3,0.7,2.7,1.4,4.1,1.9c1.4,0.5,2.1,2,1.6,3.4C24,61.1,23,61.8,21.9,61.8 M41.9,61.8
		c-1.1,0-2.1-0.7-2.5-1.8c-0.5-1.4,0.2-2.9,1.6-3.4c2.9-1,5.6-2.6,7.9-4.5c1.1-0.9,2.8-0.8,3.8,0.3c0.9,1.1,0.8,2.8-0.3,3.7
		c-2.8,2.3-6,4.2-9.5,5.4C42.5,61.8,42.2,61.8,41.9,61.8 M32,63.5l-0.2,0c-1.5,0-2.7-1.2-2.7-2.7c0-1.5,1.2-2.6,2.7-2.6h0l0.2,0
		c1.5,0,2.7,1.2,2.7,2.7C34.7,62.3,33.5,63.5,32,63.5"/>
</g>
</svg>
