<?xml version="1.0" encoding="utf-8"?>
<!-- Generator: Adobe Illustrator 24.2.1, SVG Export Plug-In . SVG Version: 6.00 Build 0)  -->
<svg version="1.1" id="Layer_1" xmlns="http://www.w3.org/2000/svg" xmlns:xlink="http://www.w3.org/1999/xlink" x="0px" y="0px"
	 viewBox="0 0 37 22" style="enable-background:new 0 0 37 22;" xml:space="preserve">
<style type="text/css">
	.st0{fill-rule:evenodd;clip-rule:evenodd;fill:#15CCCC;}
	.st1{fill:#8FCEFC;}
	.st2{fill:#15CCCC;}
</style>
<g id="Layer_1_1_">
	<path id="Fill-1" class="st0" d="M13.8,12.4c0.8,0,1.4-0.7,1.4-1.4s-0.7-1.4-1.4-1.4c-0.8,0-1.4,0.7-1.4,1.4
		C12.4,11.8,13,12.4,13.8,12.4"/>
	<path id="Fill-3" class="st0" d="M22.9,12.4c0.8,0,1.4-0.7,1.4-1.4s-0.7-1.4-1.4-1.4s-1.4,0.7-1.4,1.4C21.4,11.8,22,12.4,22.9,12.4
		"/>
	<path id="Fill-5" class="st0" d="M18.3,9.4c0.4,0,0.7,0.3,0.7,0.7v2c0,0.4-0.3,0.7-0.7,0.7c-0.4,0-0.7-0.3-0.7-0.7v-2
		C17.7,9.7,17.9,9.4,18.3,9.4"/>
	<path id="Fill-7" class="st1" d="M11.9,4.3c-0.3,0-0.6-0.1-0.7-0.4c-0.3-0.4-0.3-0.9,0.1-1.3c0.9-0.8,2-1.5,3.3-1.9
		c0.5-0.2,1,0.1,1.2,0.6c0.2,0.5-0.1,1-0.6,1.2c-1,0.4-2,0.9-2.7,1.6C12.4,4.3,12.1,4.3,11.9,4.3 M24.7,4.4c-0.2,0-0.4-0.1-0.6-0.2
		c-0.4-0.4-0.8-0.7-1.3-0.9s-0.9-0.5-1.4-0.7C21,2.4,20.7,2,20.9,1.4c0.2-0.5,0.7-0.7,1.2-0.6s1.1,0.5,1.7,0.8
		c0.6,0.3,1.1,0.7,1.6,1.1c0.4,0.3,0.5,0.9,0.1,1.3C25.3,4.2,25,4.4,24.7,4.4 M8.4,13.7c-0.5,0-0.8-0.3-0.9-0.7
		c-0.1-0.7-0.2-1.2-0.2-1.9c0-0.7,0.1-1.3,0.2-1.9c0.1-0.6,0.6-0.8,1-0.7C9,8.6,9.4,9,9.3,9.5c-0.1,0.6-0.1,1-0.1,1.6
		c0,0.6,0,1,0.1,1.6C9.4,13.1,9,13.6,8.4,13.7C8.5,13.6,8.4,13.7,8.4,13.7 M28.2,13.7c-0.1,0-0.1,0-0.2,0c-0.6-0.1-0.8-0.6-0.7-1
		c0.1-0.6,0.1-1,0.1-1.6c0-0.6,0-1-0.1-1.6c-0.1-0.5,0.3-0.9,0.7-1c0.6-0.1,0.9,0.3,1,0.7c0.1,0.7,0.2,1.2,0.2,1.9S29.1,12.4,29,13
		C29,13.4,28.6,13.7,28.2,13.7 M3.5,15c-0.7,0-1.3-0.4-1.4-1.1c-0.1-1-0.3-1.8-0.3-2.8s0.1-2,0.3-2.8C2.3,7.5,3,7.1,3.7,7.2
		C4.4,7.3,4.9,8,4.8,8.7c-0.1,0.8-0.1,1.5-0.1,2.4s0,1.5,0.1,2.4c0.1,0.7-0.4,1.4-1.1,1.5C3.7,14.9,3.5,15,3.5,15 M33.1,15
		c-0.1,0-0.1,0-0.3,0c-0.8-0.1-1.3-0.8-1.1-1.5c0.1-0.8,0.1-1.5,0.1-2.4s0-1.5-0.1-2.4c-0.1-0.7,0.4-1.4,1.1-1.5
		c0.8-0.1,1.4,0.4,1.5,1.1c0.1,1,0.3,1.8,0.3,2.8s-0.1,2-0.3,2.8C34.4,14.6,33.8,15,33.1,15 M14.9,21.3c-0.1,0-0.2,0-0.3-0.1
		c-0.6-0.2-1.1-0.5-1.7-0.8c-0.6-0.3-1.1-0.7-1.6-1.1C11,19,10.9,18.4,11.2,18c0.3-0.4,0.9-0.5,1.3-0.1s0.8,0.7,1.3,0.9
		c0.5,0.3,0.9,0.5,1.4,0.7c0.5,0.2,0.7,0.7,0.6,1.2C15.5,21.1,15.2,21.3,14.9,21.3 M21.8,21.3c-0.4,0-0.7-0.3-0.8-0.7
		c-0.2-0.5,0.1-1,0.6-1.2c1-0.4,2-0.9,2.7-1.6c0.4-0.3,0.9-0.3,1.3,0.1c0.3,0.4,0.3,0.9-0.1,1.3c-0.9,0.8-2,1.5-3.3,1.9
		C21.9,21.3,21.9,21.3,21.8,21.3"/>
	<path class="st2" d="M18.4,2.1L18.4,2.1c-0.6,0-1-0.4-1-0.9s0.4-0.9,0.9-0.9h0.1c0.6,0,0.9,0.4,0.9,0.9C19.2,1.6,18.9,2.1,18.4,2.1
		"/>
	<path class="st2" d="M9.7,7C9.5,7,9.4,7,9.2,6.9C8.7,6.6,8.6,6.1,8.8,5.7V5.6C9.1,5.1,9.7,5,10.1,5.2s0.6,0.8,0.4,1.2l0,0
		C10.2,6.8,9.9,7,9.7,7"/>
	<path class="st2" d="M27.1,7c-0.3,0-0.7-0.2-0.8-0.5l0,0c-0.3-0.5-0.1-1,0.4-1.2c0.5-0.3,1-0.1,1.3,0.4v0.1c0.3,0.5,0.1,1-0.4,1.2
		C27.3,7,27.2,7,27.1,7"/>
	<path class="st2" d="M9.7,17c-0.3,0-0.7-0.2-0.8-0.5v-0.1c-0.3-0.5-0.1-1,0.4-1.2c0.5-0.2,1-0.1,1.2,0.4l0,0c0.3,0.5,0.1,1-0.4,1.2
		C9.9,17,9.7,17,9.7,17"/>
	<path class="st2" d="M27,17c-0.2,0-0.3,0-0.5-0.1c-0.5-0.3-0.6-0.8-0.4-1.2v-0.1c0.3-0.5,0.8-0.6,1.3-0.4c0.5,0.3,0.6,0.8,0.4,1.2
		v0.1C27.6,16.9,27.3,17,27,17"/>
	<path class="st2" d="M18.3,21.9L18.3,21.9c-0.6,0-1-0.4-1-0.9s0.4-0.9,0.9-0.9h0.1c0.6,0,0.9,0.4,0.9,0.9
		C19.2,21.5,18.9,21.9,18.3,21.9"/>
</g>
</svg>
