<?xml version="1.0" encoding="UTF-8"?>
<svg width="43px" height="44px" viewBox="0 0 43 44" version="1.1" xmlns="http://www.w3.org/2000/svg" xmlns:xlink="http://www.w3.org/1999/xlink">
    <!-- Generator: Sketch 52.2 (67145) - http://www.bohemiancoding.com/sketch -->
    <title>Group 7</title>
    <desc>Created with Sketch.</desc>
    <defs>
        <linearGradient x1="0%" y1="85%" x2="100%" y2="15%" id="linearGradient-1">
            <stop stop-color="#912E40" offset="0%"></stop>
            <stop stop-color="#D78747" offset="100%"></stop>
        </linearGradient>
    </defs>
    <g id="Page-1" stroke="none" stroke-width="1" fill="none" fill-rule="evenodd">
        <g id="docs-new-design" transform="translate(-528.000000, -426.000000)">
            <g id="Group-7" transform="translate(528.000000, 426.000000)">
                <circle id="Oval-2-Copy" fill="#F6FAF9" cx="21.5006398" cy="21.6484375" r="21.5"></circle>
                <path d="M16.6499815,23.1480685 C17.5016238,23.1480685 18.1681265,22.4815658 18.1681265,21.6669515 C18.1681265,20.8523371 17.5016238,20.1858345 16.6499815,20.1858345 C15.7983393,20.1858345 15.1318366,20.8523371 15.1318366,21.6669515 C15.1318366,22.4815658 15.8353672,23.1480685 16.6499815,23.1480685" id="Fill-1" fill="#15CCCC"></path>
                <path d="M26.351298,23.1480685 C27.2029403,23.1480685 27.8694429,22.4815658 27.8694429,21.6669515 C27.8694429,20.8523371 27.2029403,20.1858345 26.351298,20.1858345 C25.4996557,20.1858345 24.833153,20.8523371 24.833153,21.6669515 C24.833153,22.4815658 25.5366836,23.1480685 26.351298,23.1480685" id="Fill-3" fill="#15CCCC"></path>
                <path d="M21.5006398,19.889611 C21.9079469,19.889611 22.2041703,20.1858345 22.2041703,20.5931416 L22.2041703,22.7037334 C22.2041703,23.0740126 21.870919,23.407264 21.5006398,23.407264 C21.0933326,23.407264 20.7971092,23.1110405 20.7971092,22.7037334 L20.7971092,20.5931416 C20.7600812,20.1858345 21.0933326,19.889611 21.5006398,19.889611" id="Fill-5" fill="#15CCCC"></path>
                <path d="M21.5746956,11.965635 L21.5006398,11.965635 C20.9452209,11.965635 20.5008858,11.5212999 20.5008858,10.965881 C20.5008858,10.4104622 20.9452209,9.96612706 21.5006398,9.96612706 L21.5746956,9.96612706 C22.1301145,9.96612706 22.5744496,10.4104622 22.5744496,10.965881 C22.5374217,11.5212999 22.0930866,11.965635 21.5746956,11.965635 M14.6134456,14.446506 C14.3172222,14.446506 14.0580268,14.3354223 13.8358592,14.0762268 C13.5026079,13.6689196 13.5396358,13.0394449 13.946943,12.7061935 C14.9837249,11.8545513 16.1686185,11.1510207 17.4645959,10.7066856 C17.9829868,10.5215459 18.5384057,10.7807414 18.7235454,11.2991324 C18.908685,11.8175233 18.6494895,12.3729422 18.1310986,12.5580818 C17.0572887,12.9283611 16.0575347,13.5208079 15.2058925,14.2243385 C15.0577807,14.3724502 14.8356132,14.446506 14.6134456,14.446506 M28.4248618,14.483534 C28.2026942,14.483534 27.9805267,14.4094781 27.7953871,14.2613664 C27.351052,13.8910871 26.8696889,13.5578358 26.3883259,13.2986403 C25.9069629,13.0024169 25.3885719,12.7802494 24.870181,12.5951098 C24.35179,12.4099701 24.0925945,11.8545513 24.2777342,11.3361603 C24.4628738,10.8177693 25.0182927,10.5585739 25.5366836,10.7437135 C26.1661583,10.965881 26.7586051,11.2621044 27.351052,11.5953558 C27.9434988,11.9286071 28.5359456,12.3359143 29.0543365,12.7802494 C29.4616437,13.1135007 29.5356995,13.7429754 29.1654203,14.1502826 C29.0173086,14.3354223 28.7210852,14.483534 28.4248618,14.483534 M12.1696026,17.2976563 C11.9844629,17.2976563 11.8363512,17.2606284 11.6882395,17.1495446 C11.2068765,16.8903491 11.0587648,16.2979023 11.3179603,15.8165393 L11.3549882,15.7424834 C11.6141837,15.2611204 12.2436584,15.1130087 12.7250215,15.3722042 C13.2063845,15.6313996 13.3544962,16.2608744 13.0953007,16.7052095 L13.0582728,16.7422374 C12.8361052,17.1125166 12.5028539,17.2976563 12.1696026,17.2976563 M30.8687049,17.3346842 C30.5354535,17.3346842 30.2022022,17.1495446 30.0170626,16.8533212 L29.9800347,16.8162932 C29.7208392,16.3349302 29.8689509,15.7424834 30.3503139,15.4832879 C30.8316769,15.2240925 31.4241237,15.3722042 31.7203471,15.8535672 L31.7573751,15.927623 C32.0165705,16.4089861 31.8684588,17.0014329 31.3870958,17.2606284 C31.2019562,17.2976563 31.0168166,17.3346842 30.8687049,17.3346842 M10.8736252,24.4810738 C10.3922622,24.4810738 9.98495498,24.1478225 9.91089913,23.6664594 C9.79981536,22.9999568 9.7257595,22.3334541 9.7257595,21.6669515 C9.7257595,21.0004488 9.79981536,20.2969182 9.91089913,19.6304156 C10.0219829,19.0749967 10.5033459,18.7417454 11.0587648,18.8158012 C11.5771558,18.926885 11.947435,19.4452759 11.8733792,19.9636669 C11.7622954,20.5190858 11.7252675,21.0745047 11.7252675,21.6669515 C11.7252675,22.2223703 11.7622954,22.7777892 11.8733792,23.3332081 C11.9844629,23.8515991 11.6141837,24.36999 11.0587648,24.4810738 C10.984709,24.4440459 10.947681,24.4810738 10.8736252,24.4810738 M32.1276543,24.5181017 C32.0535985,24.5181017 32.0165705,24.5181017 31.9425147,24.5181017 C31.3870958,24.4070179 31.0538445,23.9256549 31.1279003,23.370236 C31.2389841,22.8148171 31.276012,22.2593983 31.276012,21.6669515 C31.276012,21.1115326 31.2389841,20.5561137 31.1279003,20.0006948 C31.0168166,19.4823039 31.3870958,18.9639129 31.9425147,18.8528291 C32.4979336,18.7787733 32.9792966,19.1120246 33.0903804,19.6674435 C33.2014642,20.3339462 33.27552,21.0004488 33.27552,21.6669515 C33.27552,22.3334541 33.2014642,23.0369847 33.0903804,23.7034874 C33.0163245,24.1848504 32.6090173,24.5181017 32.1276543,24.5181017 M12.1696026,27.9987267 C11.8363512,27.9987267 11.5030999,27.8135871 11.3179603,27.5173637 L11.2809324,27.4433078 C11.0217369,26.9619448 11.1698486,26.369498 11.6512116,26.1103025 C12.1325746,25.851107 12.7250215,25.9992187 12.9842169,26.4805818 L13.0212449,26.5176097 C13.2804403,26.9989727 13.1323286,27.5914195 12.6509656,27.850615 C12.5028539,27.9616988 12.3177143,27.9987267 12.1696026,27.9987267 M30.794649,28.0357546 C30.6095094,28.0357546 30.4613977,27.9987267 30.313286,27.8876429 C29.831923,27.6284474 29.6838112,26.9989727 29.9430067,26.5546376 L29.9800347,26.4805818 C30.2392301,25.9992187 30.8687049,25.851107 31.3500679,26.1103025 C31.8314309,26.369498 31.9795426,26.9989727 31.7203471,27.4433078 L31.6833192,27.5173637 C31.4611517,27.8876429 31.1279003,28.0357546 30.794649,28.0357546 M17.7608193,32.7012732 C17.6497355,32.7012732 17.5386517,32.6642453 17.427568,32.6272174 C16.7980932,32.4050498 16.2056464,32.1088264 15.6131996,31.7755751 C15.0207528,31.4423237 14.428306,31.0350166 13.9099151,30.5906815 C13.5026079,30.2574301 13.428552,29.6279554 13.7988313,29.2206482 C14.1320826,28.813341 14.7615573,28.7392852 15.2058925,29.1095645 C15.6502276,29.4798437 16.1315906,29.813095 16.6129536,30.1093184 C17.0943166,30.3685139 17.6127076,30.6277094 18.1310986,30.812849 C18.6494895,30.9979886 18.908685,31.5534075 18.7235454,32.0717985 C18.5384057,32.4420777 18.1681265,32.7012732 17.7608193,32.7012732 M25.1664044,32.7012732 C24.7590972,32.7012732 24.3888179,32.4420777 24.2407062,32.0347706 C24.0555666,31.5163796 24.3147621,30.9609607 24.833153,30.7758211 C25.9069629,30.4055418 26.9067169,29.813095 27.7583591,29.1095645 C28.1656663,28.7763131 28.795141,28.813341 29.1654203,29.2206482 C29.4986716,29.6279554 29.4616437,30.2574301 29.0543365,30.5906815 C28.0175546,31.4423237 26.832661,32.1458543 25.5366836,32.5901894 C25.3885719,32.7012732 25.2774881,32.7012732 25.1664044,32.7012732 M21.5006398,33.3307479 L21.4265839,33.3307479 C20.871165,33.3307479 20.4268299,32.8864128 20.4268299,32.330994 C20.4268299,31.7755751 20.871165,31.3682679 21.4265839,31.3682679 L21.5006398,31.3682679 C22.0560586,31.3682679 22.5003937,31.812603 22.5003937,32.3680219 C22.5003937,32.8864128 22.0560586,33.3307479 21.5006398,33.3307479" id="Fill-7" fill="#15CCCC" fill-rule="nonzero"></path>
            </g>
        </g>
    </g>
</svg>