<?xml version="1.0" encoding="UTF-8"?>
<svg width="603px" height="74px" viewBox="0 0 603 74" version="1.1" xmlns="http://www.w3.org/2000/svg" xmlns:xlink="http://www.w3.org/1999/xlink">
    <!-- Generator: Sketch 48.2 (47327) - http://www.bohemiancoding.com/sketch -->
    <title>Group 2 Copy</title>
    <desc>Created with Sketch.</desc>
    <defs></defs>
    <g id="Page-1" stroke="none" stroke-width="1" fill="none" fill-rule="evenodd">
        <g id="Group-2-Copy" transform="translate(0.632812, -3.000000)">
            <path d="M105.273438,6.3359375 L105.273438,34.5761719 L102.100586,34.5761719 L102.100586,6.3359375 L105.273438,6.3359375 Z M136.59375,13.1083984 C138.065763,13.1083984 139.237789,13.3805311 140.109863,13.9248047 C140.981938,14.4690782 141.618976,15.3504171 142.020996,16.5688477 C142.423016,17.7872782 142.624023,19.4417213 142.624023,21.5322266 L142.624023,34.5761719 L139.543945,34.5761719 L139.543945,21.6806641 C139.543945,20.2333912 139.438803,19.0861045 139.228516,18.2387695 C139.018228,17.3914346 138.603844,16.7482118 137.985352,16.309082 C137.366859,15.8699522 136.457688,15.6689451 135.257812,15.7060547 C134.330073,15.7184245 133.325038,15.9472634 132.242676,16.3925781 C131.160314,16.8378929 130.180017,17.3636037 129.301758,17.9697266 C129.450196,18.946945 129.524414,20.1035089 129.524414,21.4394531 L129.524414,34.5761719 L126.425781,34.5761719 L126.425781,21.6435547 C126.425781,20.1468024 126.317547,18.971684 126.101074,18.1181641 C125.884602,17.2646442 125.476403,16.6399759 124.876465,16.2441406 C124.276527,15.8483053 123.407558,15.67513 122.269531,15.7246094 C121.329422,15.7617189 120.268723,16.0245744 119.087402,16.5131836 C117.906081,17.0017928 116.894861,17.5924445 116.053711,18.2851562 L116.053711,34.5761719 L112.955078,34.5761719 L112.955078,13.4423828 L115.719727,13.4423828 L115.738281,16.1513672 C116.307295,15.6936826 117.021643,15.2360049 117.881348,14.7783203 C118.741052,14.3206357 119.665685,13.9309912 120.655273,13.609375 C121.644862,13.2877588 122.597326,13.1207683 123.512695,13.1083984 C124.885749,13.0836587 125.992834,13.2877583 126.833984,13.7207031 C127.675134,14.153648 128.312172,14.8896432 128.745117,15.9287109 C129.722336,15.1865197 130.925286,14.5309273 132.354004,13.9619141 C133.782722,13.3929008 135.195957,13.1083984 136.59375,13.1083984 Z M156.799805,13.1083984 C158.358406,13.1083984 159.660314,13.290851 160.705566,13.6557617 C161.750819,14.0206724 162.564125,14.6762648 163.145508,15.6225586 C163.726891,16.5688524 164.017578,17.8954993 164.017578,19.6025391 L164.017578,34.8730469 L162.755859,34.8730469 C162.347654,34.8730469 162.032228,34.8421227 161.80957,34.7802734 C161.586913,34.7184242 161.41683,34.5823578 161.299316,34.3720703 C161.181803,34.1617828 161.123047,33.8339866 161.123047,33.3886719 L161.123047,32.609375 C160.455075,33.2154978 159.539719,33.7443011 158.376953,34.1958008 C157.214187,34.6473004 155.940111,34.8730469 154.554688,34.8730469 C153.305332,34.8730469 152.192062,34.6380232 151.214844,34.1679688 C150.237625,33.6979143 149.476891,33.0175826 148.932617,32.1269531 C148.388344,31.2363237 148.116211,30.1910867 148.116211,28.9912109 C148.116211,27.6181572 148.502763,26.4430387 149.275879,25.4658203 C150.048995,24.4886019 151.183912,23.7216825 152.680664,23.1650391 C153.818691,22.744464 155.154615,22.4321299 156.688477,22.2280273 C158.222338,22.0239248 159.638665,21.921875 160.9375,21.921875 L160.9375,19.4726562 C160.9375,18.3717393 160.751955,17.5306019 160.380859,16.9492188 C160.009764,16.3678356 159.474776,15.9750987 158.775879,15.7709961 C158.076982,15.5668935 157.15235,15.4648438 156.001953,15.4648438 C155.321611,15.4648438 154.570154,15.5576163 153.747559,15.7431641 C152.924963,15.9287119 152.154952,16.1606431 151.4375,16.4389648 C150.720048,16.7172865 150.169598,16.9925117 149.786133,17.2646484 L149.025391,15.2236328 C149.334637,15.0133453 149.903642,14.7412126 150.732422,14.4072266 C151.561202,14.0732405 152.519851,13.7732761 153.608398,13.5073242 C154.696946,13.2413724 155.760737,13.1083984 156.799805,13.1083984 Z M155.463867,32.5537109 C156.280278,32.5537109 157.071936,32.4454763 157.838867,32.2290039 C158.605798,32.0125315 159.267575,31.7589533 159.824219,31.4682617 C160.380862,31.1775702 160.751952,30.9270844 160.9375,30.7167969 L160.9375,23.9072266 C159.960282,23.9072266 158.825365,23.9876294 157.532715,24.1484375 C156.240065,24.3092456 155.191736,24.556639 154.387695,24.890625 C153.311518,25.2988302 152.50749,25.8152638 151.975586,26.4399414 C151.443682,27.064619 151.177734,27.8346308 151.177734,28.75 C151.177734,29.9251361 151.527177,30.8528612 152.226074,31.5332031 C152.924971,32.2135451 154.004224,32.5537109 155.463867,32.5537109 Z M173.666016,13.4423828 L173.68457,16.1513672 C174.698898,15.3968061 175.932773,14.7010123 177.38623,14.0639648 C178.839688,13.4269174 180.271477,13.1083984 181.681641,13.1083984 C183.178393,13.1083984 184.368973,13.3836235 185.253418,13.934082 C186.137862,14.4845405 186.781085,15.3658794 187.183105,16.578125 C187.585126,17.7903706 187.786133,19.4293517 187.786133,21.4951172 L187.786133,34.5761719 L184.6875,34.5761719 L184.6875,21.4765625 C184.6875,20.0169198 184.560711,18.8665407 184.307129,18.0253906 C184.053547,17.1842406 183.602054,16.571942 182.952637,16.1884766 C182.303219,15.8050111 181.378587,15.6380206 180.178711,15.6875 C179.226232,15.6998699 178.17481,15.9627253 177.024414,16.4760742 C175.874018,16.9894231 174.86589,17.5924445 174,18.2851562 L174,34.5761719 L170.901367,34.5761719 L170.901367,13.4423828 L173.666016,13.4423828 Z M210.868164,3.70117188 L210.868164,34.7988281 L209.532227,34.7988281 C208.987953,34.7988281 208.589031,34.7184253 208.335449,34.5576172 C208.081867,34.3968091 207.955078,34.0504584 207.955078,33.5185547 L207.955078,32.2382812 C207.200517,32.9681026 206.309901,33.5896784 205.283203,34.1030273 C204.256505,34.6163763 202.982429,34.8730469 201.460938,34.8730469 C199.951815,34.8730469 198.566413,34.5081417 197.304688,33.7783203 C196.042962,33.048499 195.02865,31.9197668 194.261719,30.3920898 C193.494788,28.8644129 193.111328,26.9625765 193.111328,24.6865234 C193.111328,22.44758 193.553544,20.452971 194.437988,18.7026367 C195.322433,16.9523024 196.568677,15.5854541 198.176758,14.6020508 C199.784839,13.6186474 201.634104,13.1269531 203.724609,13.1269531 C205.233732,13.1269531 206.60058,13.3619768 207.825195,13.8320312 L207.769531,12.5703125 L207.769531,3.70117188 L210.868164,3.70117188 Z M196.28418,24.2597656 C196.24707,26.9563937 196.757319,28.9942965 197.814941,30.3735352 C198.872564,31.7527738 200.366201,32.4423828 202.295898,32.4423828 C203.396815,32.4423828 204.417313,32.229006 205.357422,31.8022461 C206.297531,31.3754861 207.101559,30.8837918 207.769531,30.3271484 L207.769531,16.4111328 C207.398436,16.1018865 206.851078,15.8544931 206.127441,15.6689453 C205.403805,15.4833975 204.503912,15.390625 203.427734,15.390625 C202.06705,15.390625 200.851731,15.7400681 199.781738,16.4389648 C198.711746,17.1378616 197.864424,18.1583592 197.239746,19.5004883 C196.615068,20.8426174 196.29655,22.4290273 196.28418,24.2597656 Z M226.899414,13.1269531 C227.851893,13.1269531 228.519855,13.207356 228.90332,13.3681641 L228.90332,16.28125 C228.359047,15.9967434 227.50554,15.8544922 226.342773,15.8544922 C225.229487,15.8544922 224.178065,16.1018855 223.188477,16.5966797 C222.198888,17.0914738 221.38249,17.6604786 220.739258,18.3037109 L220.739258,34.5761719 L217.640625,34.5761719 L217.640625,13.4423828 L220.275391,13.4423828 L220.460938,16.2626953 C220.782554,15.8421203 221.286618,15.387535 221.973145,14.8989258 C222.659671,14.4103166 223.43896,13.9928403 224.311035,13.6464844 C225.18311,13.3001285 226.045894,13.1269531 226.899414,13.1269531 Z M240.258789,13.1083984 C241.817391,13.1083984 243.119298,13.290851 244.164551,13.6557617 C245.209803,14.0206724 246.023109,14.6762648 246.604492,15.6225586 C247.185875,16.5688524 247.476562,17.8954993 247.476562,19.6025391 L247.476562,34.8730469 L246.214844,34.8730469 C245.806639,34.8730469 245.491212,34.8421227 245.268555,34.7802734 C245.045897,34.7184242 244.875814,34.5823578 244.758301,34.3720703 C244.640787,34.1617828 244.582031,33.8339866 244.582031,33.3886719 L244.582031,32.609375 C243.914059,33.2154978 242.998704,33.7443011 241.835938,34.1958008 C240.673171,34.6473004 239.399095,34.8730469 238.013672,34.8730469 C236.764317,34.8730469 235.651047,34.6380232 234.673828,34.1679688 C233.69661,33.6979143 232.935875,33.0175826 232.391602,32.1269531 C231.847328,31.2363237 231.575195,30.1910867 231.575195,28.9912109 C231.575195,27.6181572 231.961747,26.4430387 232.734863,25.4658203 C233.507979,24.4886019 234.642896,23.7216825 236.139648,23.1650391 C237.277675,22.744464 238.613599,22.4321299 240.147461,22.2280273 C241.681323,22.0239248 243.09765,21.921875 244.396484,21.921875 L244.396484,19.4726562 C244.396484,18.3717393 244.210939,17.5306019 243.839844,16.9492188 C243.468748,16.3678356 242.93376,15.9750987 242.234863,15.7709961 C241.535967,15.5668935 240.611334,15.4648438 239.460938,15.4648438 C238.780596,15.4648438 238.029138,15.5576163 237.206543,15.7431641 C236.383948,15.9287119 235.613936,16.1606431 234.896484,16.4389648 C234.179033,16.7172865 233.628583,16.9925117 233.245117,17.2646484 L232.484375,15.2236328 C232.793621,15.0133453 233.362626,14.7412126 234.191406,14.4072266 C235.020186,14.0732405 235.978836,13.7732761 237.067383,13.5073242 C238.15593,13.2413724 239.219721,13.1083984 240.258789,13.1083984 Z M238.922852,32.5537109 C239.739262,32.5537109 240.530921,32.4454763 241.297852,32.2290039 C242.064782,32.0125315 242.72656,31.7589533 243.283203,31.4682617 C243.839847,31.1775702 244.210937,30.9270844 244.396484,30.7167969 L244.396484,23.9072266 C243.419266,23.9072266 242.284349,23.9876294 240.991699,24.1484375 C239.69905,24.3092456 238.65072,24.556639 237.84668,24.890625 C236.770502,25.2988302 235.966474,25.8152638 235.43457,26.4399414 C234.902667,27.064619 234.636719,27.8346308 234.636719,28.75 C234.636719,29.9251361 234.986162,30.8528612 235.685059,31.5332031 C236.383955,32.2135451 237.463209,32.5537109 238.922852,32.5537109 Z M268.276367,6.3359375 C269.105147,6.3359375 270.181308,6.29264366 271.504883,6.20605469 C271.72754,6.19368483 272.237789,6.1689455 273.035645,6.13183594 C273.8335,6.09472638 274.584957,6.07617188 275.290039,6.07617188 C278.419612,6.07617188 280.831697,6.80288987 282.526367,8.25634766 C284.221037,9.70980544 285.068359,12.0198409 285.068359,15.1865234 C285.068359,17.2028096 284.641606,18.9283782 283.788086,20.3632812 C282.934566,21.7981843 281.713061,22.8928999 280.123535,23.6474609 C278.534009,24.402022 276.650727,24.7854817 274.473633,24.7978516 C273.471675,24.8102214 272.240893,24.7731124 270.78125,24.6865234 L269.890625,24.6494141 L269.890625,34.5761719 L266.754883,34.5761719 L266.754883,6.3359375 L268.276367,6.3359375 Z M274.288086,22.4785156 C276.625988,22.4537759 278.484531,21.8693091 279.86377,20.7250977 C281.243008,19.5808862 281.932617,17.7408981 281.932617,15.2050781 C281.932617,12.8300663 281.345058,11.0921279 280.169922,9.99121094 C278.994786,8.89029397 277.188814,8.33984375 274.751953,8.33984375 C272.908845,8.33984375 271.288418,8.43880109 269.890625,8.63671875 L269.890625,22.2558594 C270.422529,22.3300785 271.1276,22.385742 272.005859,22.4228516 C272.884119,22.4599611 273.644854,22.4785156 274.288086,22.4785156 Z M299.355469,13.1269531 C300.307947,13.1269531 300.97591,13.207356 301.359375,13.3681641 L301.359375,16.28125 C300.815101,15.9967434 299.961594,15.8544922 298.798828,15.8544922 C297.685541,15.8544922 296.63412,16.1018855 295.644531,16.5966797 C294.654943,17.0914738 293.838545,17.6604786 293.195312,18.3037109 L293.195312,34.5761719 L290.09668,34.5761719 L290.09668,13.4423828 L292.731445,13.4423828 L292.916992,16.2626953 C293.238608,15.8421203 293.742672,15.387535 294.429199,14.8989258 C295.115726,14.4103166 295.895015,13.9928403 296.76709,13.6464844 C297.639165,13.3001285 298.501949,13.1269531 299.355469,13.1269531 Z M303.938477,23.8515625 C303.938477,21.612619 304.35286,19.6860432 305.181641,18.0717773 C306.010421,16.4575115 307.151523,15.2298219 308.60498,14.3886719 C310.058438,13.5475218 311.706697,13.1269531 313.549805,13.1269531 C315.62794,13.1269531 317.353509,13.6124626 318.726562,14.5834961 C320.099616,15.5545296 321.110837,16.862622 321.760254,18.5078125 C322.409671,20.153003 322.734375,22.0022684 322.734375,24.0556641 C322.734375,26.2946075 322.326176,28.2304606 321.509766,29.8632812 C320.693355,31.4961019 319.561531,32.7392535 318.114258,33.5927734 C316.666985,34.4462933 315.015634,34.8730469 313.160156,34.8730469 C311.044911,34.8730469 309.297696,34.3782602 307.918457,33.3886719 C306.539218,32.3990836 305.53109,31.0786215 304.894043,29.4272461 C304.256996,27.7758706 303.938477,25.917328 303.938477,23.8515625 Z M319.598633,24.0927734 C319.598633,22.4228432 319.372886,20.9322982 318.921387,19.6210938 C318.469887,18.3098893 317.777186,17.2739296 316.843262,16.5131836 C315.909338,15.7524376 314.755866,15.3720703 313.382812,15.3720703 C312.071608,15.3720703 310.945968,15.7029589 310.005859,16.3647461 C309.065751,17.0265333 308.345217,17.9820901 307.844238,19.2314453 C307.343259,20.4808005 307.092773,21.9775303 307.092773,23.7216797 C307.092773,25.3916099 307.31852,26.9007094 307.77002,28.2490234 C308.221519,29.5973375 308.914221,30.6704062 309.848145,31.4682617 C310.782068,32.2661173 311.941725,32.6650391 313.327148,32.6650391 C314.650723,32.6650391 315.782547,32.3186884 316.722656,31.6259766 C317.662765,30.9332648 318.377113,29.9436913 318.865723,28.6572266 C319.354332,27.3707618 319.598633,25.8492926 319.598633,24.0927734 Z M329.135742,15.7617188 L326.185547,15.7617188 L326.185547,14.0732422 C326.395834,14.0113929 326.754555,13.9248052 327.261719,13.8134766 C327.929691,13.6526685 328.430662,13.50114 328.764648,13.3588867 C329.098634,13.2166334 329.321289,13.0032566 329.432617,12.71875 C329.506836,12.5208323 329.636718,11.9580125 329.822266,11.0302734 C330.020183,9.92935647 330.199543,9.11914322 330.360352,8.59960938 L332.21582,8.59960938 L332.21582,13.4238281 L338.78418,13.4238281 L338.78418,15.7617188 L332.21582,15.7617188 L332.21582,27.8222656 C332.21582,29.2076892 332.302408,30.2189096 332.475586,30.855957 C332.648764,31.4930045 332.923989,31.9073884 333.30127,32.0991211 C333.67855,32.2908538 334.256832,32.3867188 335.036133,32.3867188 C335.654625,32.3867188 336.381343,32.2722993 337.216309,32.043457 C338.051274,31.8146147 338.64811,31.5764986 339.006836,31.3291016 L339.544922,33.1289062 C338.988278,33.574221 338.153326,33.9762352 337.040039,34.3349609 C335.926752,34.6936867 334.90007,34.8730469 333.959961,34.8730469 C332.982743,34.8730469 332.144698,34.7338881 331.445801,34.4555664 C330.746904,34.1772447 330.187177,33.6515338 329.766602,32.878418 C329.346027,32.1053021 329.135742,31.0013093 329.135742,29.5664062 L329.135742,15.7617188 Z M342.383789,23.8515625 C342.383789,21.612619 342.798173,19.6860432 343.626953,18.0717773 C344.455733,16.4575115 345.596835,15.2298219 347.050293,14.3886719 C348.503751,13.5475218 350.152009,13.1269531 351.995117,13.1269531 C354.073253,13.1269531 355.798821,13.6124626 357.171875,14.5834961 C358.544929,15.5545296 359.556149,16.862622 360.205566,18.5078125 C360.854984,20.153003 361.179688,22.0022684 361.179688,24.0556641 C361.179688,26.2946075 360.771488,28.2304606 359.955078,29.8632812 C359.138668,31.4961019 358.006843,32.7392535 356.55957,33.5927734 C355.112297,34.4462933 353.460947,34.8730469 351.605469,34.8730469 C349.490224,34.8730469 347.743008,34.3782602 346.36377,33.3886719 C344.984531,32.3990836 343.976403,31.0786215 343.339355,29.4272461 C342.702308,27.7758706 342.383789,25.917328 342.383789,23.8515625 Z M358.043945,24.0927734 C358.043945,22.4228432 357.818199,20.9322982 357.366699,19.6210938 C356.9152,18.3098893 356.222498,17.2739296 355.288574,16.5131836 C354.35465,15.7524376 353.201179,15.3720703 351.828125,15.3720703 C350.516921,15.3720703 349.391281,15.7029589 348.451172,16.3647461 C347.511063,17.0265333 346.79053,17.9820901 346.289551,19.2314453 C345.788572,20.4808005 345.538086,21.9775303 345.538086,23.7216797 C345.538086,25.3916099 345.763832,26.9007094 346.215332,28.2490234 C346.666832,29.5973375 347.359533,30.6704062 348.293457,31.4682617 C349.227381,32.2661173 350.387037,32.6650391 351.772461,32.6650391 C353.096035,32.6650391 354.22786,32.3186884 355.167969,31.6259766 C356.108078,30.9332648 356.822426,29.9436913 357.311035,28.6572266 C357.799644,27.3707618 358.043945,25.8492926 358.043945,24.0927734 Z M375.077148,13.1269531 C376.227545,13.1269531 377.266597,13.2382801 378.194336,13.4609375 C379.122075,13.6835949 379.796222,13.9371731 380.216797,14.2216797 L379.678711,16.6708984 C379.171547,16.2998028 378.503585,16.0153005 377.674805,15.8173828 C376.846025,15.6194652 375.924484,15.5205078 374.910156,15.5205078 C373.685541,15.5205078 372.556809,15.8421192 371.523926,16.4853516 C370.491043,17.1285839 369.662275,18.093418 369.037598,19.3798828 C368.41292,20.6663476 368.100586,22.2372954 368.100586,24.0927734 C368.100586,25.9111419 368.397458,27.454258 368.991211,28.722168 C369.584964,29.990078 370.382807,30.9425424 371.384766,31.5795898 C372.386724,32.2166373 373.493809,32.5351562 374.706055,32.5351562 C375.806972,32.5351562 376.830562,32.3836278 377.776855,32.0805664 C378.723149,31.777505 379.480791,31.4404315 380.049805,31.0693359 L380.699219,32.8505859 C380.031247,33.4690786 379.118984,33.9607729 377.962402,34.3256836 C376.805821,34.6905943 375.565762,34.8730469 374.242188,34.8730469 C372.3496,34.8730469 370.713711,34.4184616 369.334473,33.5092773 C367.955234,32.6000931 366.903812,31.3476642 366.180176,29.7519531 C365.456539,28.156242 365.094727,26.3440857 365.094727,24.3154297 C365.082357,22.1630752 365.465816,20.2395918 366.245117,18.5449219 C367.024418,16.8502519 368.16552,15.5236051 369.668457,14.5649414 C371.171394,13.6062778 372.974273,13.1269531 375.077148,13.1269531 Z M383.853516,23.8515625 C383.853516,21.612619 384.2679,19.6860432 385.09668,18.0717773 C385.92546,16.4575115 387.066562,15.2298219 388.52002,14.3886719 C389.973477,13.5475218 391.621736,13.1269531 393.464844,13.1269531 C395.542979,13.1269531 397.268548,13.6124626 398.641602,14.5834961 C400.014655,15.5545296 401.025876,16.862622 401.675293,18.5078125 C402.32471,20.153003 402.649414,22.0022684 402.649414,24.0556641 C402.649414,26.2946075 402.241215,28.2304606 401.424805,29.8632812 C400.608394,31.4961019 399.47657,32.7392535 398.029297,33.5927734 C396.582024,34.4462933 394.930673,34.8730469 393.075195,34.8730469 C390.95995,34.8730469 389.212735,34.3782602 387.833496,33.3886719 C386.454257,32.3990836 385.446129,31.0786215 384.809082,29.4272461 C384.172035,27.7758706 383.853516,25.917328 383.853516,23.8515625 Z M399.513672,24.0927734 C399.513672,22.4228432 399.287925,20.9322982 398.836426,19.6210938 C398.384926,18.3098893 397.692225,17.2739296 396.758301,16.5131836 C395.824377,15.7524376 394.670905,15.3720703 393.297852,15.3720703 C391.986647,15.3720703 390.861007,15.7029589 389.920898,16.3647461 C388.98079,17.0265333 388.260256,17.9820901 387.759277,19.2314453 C387.258298,20.4808005 387.007812,21.9775303 387.007812,23.7216797 C387.007812,25.3916099 387.233559,26.9007094 387.685059,28.2490234 C388.136558,29.5973375 388.82926,30.6704062 389.763184,31.4682617 C390.697108,32.2661173 391.856764,32.6650391 393.242188,32.6650391 C394.565762,32.6650391 395.697586,32.3186884 396.637695,31.6259766 C397.577804,30.9332648 398.292153,29.9436913 398.780762,28.6572266 C399.269371,27.3707618 399.513672,25.8492926 399.513672,24.0927734 Z M411.666992,3.70117188 L411.666992,34.5761719 L408.568359,34.5761719 L408.568359,3.70117188 L411.666992,3.70117188 Z M434.786133,6.3359375 L434.786133,32.1083984 L446.457031,32.1083984 L446.457031,34.5761719 L431.594727,34.5761719 L431.594727,6.3359375 L434.786133,6.3359375 Z M458.276367,13.1083984 C459.834969,13.1083984 461.136876,13.290851 462.182129,13.6557617 C463.227382,14.0206724 464.040687,14.6762648 464.62207,15.6225586 C465.203453,16.5688524 465.494141,17.8954993 465.494141,19.6025391 L465.494141,34.8730469 L464.232422,34.8730469 C463.824217,34.8730469 463.50879,34.8421227 463.286133,34.7802734 C463.063475,34.7184242 462.893393,34.5823578 462.775879,34.3720703 C462.658365,34.1617828 462.599609,33.8339866 462.599609,33.3886719 L462.599609,32.609375 C461.931637,33.2154978 461.016282,33.7443011 459.853516,34.1958008 C458.690749,34.6473004 457.416674,34.8730469 456.03125,34.8730469 C454.781895,34.8730469 453.668625,34.6380232 452.691406,34.1679688 C451.714188,33.6979143 450.953453,33.0175826 450.40918,32.1269531 C449.864906,31.2363237 449.592773,30.1910867 449.592773,28.9912109 C449.592773,27.6181572 449.979326,26.4430387 450.752441,25.4658203 C451.525557,24.4886019 452.660474,23.7216825 454.157227,23.1650391 C455.295253,22.744464 456.631177,22.4321299 458.165039,22.2280273 C459.698901,22.0239248 461.115228,21.921875 462.414062,21.921875 L462.414062,19.4726562 C462.414062,18.3717393 462.228517,17.5306019 461.857422,16.9492188 C461.486326,16.3678356 460.951338,15.9750987 460.252441,15.7709961 C459.553545,15.5668935 458.628912,15.4648438 457.478516,15.4648438 C456.798174,15.4648438 456.046716,15.5576163 455.224121,15.7431641 C454.401526,15.9287119 453.631514,16.1606431 452.914062,16.4389648 C452.196611,16.7172865 451.646161,16.9925117 451.262695,17.2646484 L450.501953,15.2236328 C450.811199,15.0133453 451.380204,14.7412126 452.208984,14.4072266 C453.037765,14.0732405 453.996414,13.7732761 455.084961,13.5073242 C456.173508,13.2413724 457.237299,13.1083984 458.276367,13.1083984 Z M456.94043,32.5537109 C457.75684,32.5537109 458.548499,32.4454763 459.31543,32.2290039 C460.082361,32.0125315 460.744138,31.7589533 461.300781,31.4682617 C461.857425,31.1775702 462.228515,30.9270844 462.414062,30.7167969 L462.414062,23.9072266 C461.436844,23.9072266 460.301927,23.9876294 459.009277,24.1484375 C457.716628,24.3092456 456.668298,24.556639 455.864258,24.890625 C454.788081,25.2988302 453.984052,25.8152638 453.452148,26.4399414 C452.920245,27.064619 452.654297,27.8346308 452.654297,28.75 C452.654297,29.9251361 453.00374,30.8528612 453.702637,31.5332031 C454.401533,32.2135451 455.480787,32.5537109 456.94043,32.5537109 Z M475.142578,13.4423828 L475.161133,16.1513672 C476.175461,15.3968061 477.409335,14.7010123 478.862793,14.0639648 C480.316251,13.4269174 481.74804,13.1083984 483.158203,13.1083984 C484.654955,13.1083984 485.845536,13.3836235 486.72998,13.934082 C487.614425,14.4845405 488.257648,15.3658794 488.659668,16.578125 C489.061688,17.7903706 489.262695,19.4293517 489.262695,21.4951172 L489.262695,34.5761719 L486.164063,34.5761719 L486.164063,21.4765625 C486.164063,20.0169198 486.037273,18.8665407 485.783691,18.0253906 C485.530109,17.1842406 485.078617,16.571942 484.429199,16.1884766 C483.779782,15.8050111 482.855149,15.6380206 481.655273,15.6875 C480.702795,15.6998699 479.651373,15.9627253 478.500977,16.4760742 C477.35058,16.9894231 476.342452,17.5924445 475.476563,18.2851562 L475.476563,34.5761719 L472.37793,34.5761719 L472.37793,13.4423828 L475.142578,13.4423828 Z M514.793945,15.9658203 L510.489258,15.9658203 C511.342778,17.1162167 511.769531,18.5078043 511.769531,20.140625 C511.769531,21.6868567 511.401534,23.016596 510.665527,24.1298828 C509.929521,25.2431696 508.927578,26.0873995 507.659668,26.6625977 C506.391758,27.2377958 504.972339,27.5253906 503.401367,27.5253906 C502.387039,27.5253906 501.434575,27.3955091 500.543945,27.1357422 C500.16048,27.4202488 499.829591,27.8068009 499.55127,28.2954102 C499.272948,28.7840194 499.133789,29.2757137 499.133789,29.7705078 C499.133789,30.3766306 499.229654,30.8497704 499.421387,31.1899414 C499.613119,31.5301124 499.925454,31.7713209 500.358398,31.9135742 C500.791343,32.0558275 501.391272,32.1269531 502.158203,32.1269531 L506.741211,32.1269531 C509.512058,32.1269531 511.416987,32.6093702 512.456055,33.5742188 C513.495122,34.5390673 514.014648,35.8069583 514.014648,37.3779297 C514.014648,38.7386136 513.566248,39.9322865 512.669434,40.9589844 C511.772619,41.9856822 510.551115,42.777341 509.004883,43.3339844 C507.458651,43.8906278 505.745452,44.1689453 503.865234,44.1689453 C501.057278,44.1689453 498.867846,43.6834358 497.296875,42.7124023 C495.725904,41.7413688 494.94043,40.2291769 494.94043,38.1757812 C494.94043,37.1985628 495.237302,36.3203164 495.831055,35.5410156 C496.424808,34.7617149 497.111324,34.1556011 497.890625,33.7226562 C497.296872,33.3886702 496.882488,32.9619167 496.647461,32.4423828 C496.412434,31.922849 496.294922,31.3291049 496.294922,30.6611328 C496.294922,29.9313115 496.526853,29.1798541 496.990723,28.4067383 C497.454592,27.6336224 498.063798,26.9687528 498.818359,26.4121094 C497.729812,25.8059866 496.876305,24.9957733 496.257813,23.9814453 C495.63932,22.9671173 495.330078,21.8105534 495.330078,20.5117188 C495.330078,18.8665282 495.701168,17.4904027 496.443359,16.3833008 C497.185551,15.2761989 498.190586,14.4567084 499.458496,13.9248047 C500.726406,13.392901 502.158195,13.1269531 503.753906,13.1269531 C505.708343,13.1269531 507.372063,13.5475218 508.745117,14.3886719 C509.227541,14.1412748 509.846025,13.927898 510.600586,13.7485352 C511.355147,13.5691723 512.091142,13.4794922 512.808594,13.4794922 L514.793945,13.4794922 L514.793945,15.9658203 Z M503.457031,25.4472656 C505.089852,25.4472656 506.370113,25.0297893 507.297852,24.1948242 C508.225591,23.3598591 508.689453,22.0455819 508.689453,20.2519531 C508.689453,18.6067626 508.253422,17.3605186 507.381348,16.5131836 C506.509273,15.6658486 505.293953,15.2421875 503.735352,15.2421875 C502.16438,15.2421875 500.88412,15.6349245 499.894531,16.4204102 C498.904943,17.2058959 498.410156,18.5201731 498.410156,20.3632812 C498.410156,21.3404997 498.604979,22.2125613 498.994629,22.9794922 C499.384279,23.7464231 499.956376,24.3494444 500.710938,24.7885742 C501.465499,25.227704 502.380854,25.4472656 503.457031,25.4472656 Z M502.62207,34.5761719 C501.397455,34.5761719 500.414066,34.5143235 499.671875,34.390625 C498.533848,35.3431037 497.964844,36.4811132 497.964844,37.8046875 C497.964844,39.2767001 498.450353,40.3497688 499.421387,41.0239258 C500.39242,41.6980828 501.892242,42.0351562 503.920898,42.0351562 C505.182623,42.0351562 506.35465,41.8867202 507.437012,41.5898438 C508.519374,41.2929673 509.391435,40.8414744 510.053223,40.2353516 C510.71501,39.6292287 511.045898,38.8932335 511.045898,38.0273438 C511.045898,37.1985636 510.869631,36.5336939 510.51709,36.0327148 C510.164549,35.5317358 509.583175,35.1637382 508.772949,34.9287109 C507.962724,34.6936837 506.864916,34.5761719 505.479492,34.5761719 L502.62207,34.5761719 Z M535.148438,13.4238281 L535.148438,34.7988281 L533.960938,34.7988281 C533.404294,34.7988281 533.005372,34.7184253 532.76416,34.5576172 C532.522948,34.3968091 532.402344,34.0566432 532.402344,33.5371094 L532.402344,32.3867188 C531.388016,33.1041703 530.200528,33.6979143 528.839844,34.1679688 C527.47916,34.6380232 526.198899,34.8730469 524.999023,34.8730469 C523.254874,34.8730469 521.934412,34.5081417 521.037598,33.7783203 C520.140783,33.048499 519.543947,32.0465558 519.24707,30.7724609 C518.950194,29.498366 518.801758,27.8532002 518.801758,25.8369141 L518.801758,13.4238281 L521.881836,13.4238281 L521.881836,25.9667969 C521.881836,27.7356859 522.01481,29.0685177 522.280762,29.965332 C522.546714,30.8621464 522.982744,31.4775374 523.588867,31.8115234 C524.19499,32.1455095 525.073236,32.3125 526.223633,32.3125 C527.225591,32.3125 528.280105,32.1084005 529.387207,31.7001953 C530.494309,31.2919901 531.381833,30.8343124 532.049805,30.3271484 L532.049805,13.4238281 L535.148438,13.4238281 Z M549.305664,13.1083984 C550.864266,13.1083984 552.166173,13.290851 553.211426,13.6557617 C554.256678,14.0206724 555.069984,14.6762648 555.651367,15.6225586 C556.23275,16.5688524 556.523438,17.8954993 556.523438,19.6025391 L556.523438,34.8730469 L555.261719,34.8730469 C554.853514,34.8730469 554.538087,34.8421227 554.31543,34.7802734 C554.092772,34.7184242 553.922689,34.5823578 553.805176,34.3720703 C553.687662,34.1617828 553.628906,33.8339866 553.628906,33.3886719 L553.628906,32.609375 C552.960934,33.2154978 552.045579,33.7443011 550.882812,34.1958008 C549.720046,34.6473004 548.44597,34.8730469 547.060547,34.8730469 C545.811192,34.8730469 544.697922,34.6380232 543.720703,34.1679688 C542.743485,33.6979143 541.98275,33.0175826 541.438477,32.1269531 C540.894203,31.2363237 540.62207,30.1910867 540.62207,28.9912109 C540.62207,27.6181572 541.008622,26.4430387 541.781738,25.4658203 C542.554854,24.4886019 543.689771,23.7216825 545.186523,23.1650391 C546.32455,22.744464 547.660474,22.4321299 549.194336,22.2280273 C550.728198,22.0239248 552.144525,21.921875 553.443359,21.921875 L553.443359,19.4726562 C553.443359,18.3717393 553.257814,17.5306019 552.886719,16.9492188 C552.515623,16.3678356 551.980635,15.9750987 551.281738,15.7709961 C550.582842,15.5668935 549.658209,15.4648438 548.507812,15.4648438 C547.827471,15.4648438 547.076013,15.5576163 546.253418,15.7431641 C545.430823,15.9287119 544.660811,16.1606431 543.943359,16.4389648 C543.225908,16.7172865 542.675458,16.9925117 542.291992,17.2646484 L541.53125,15.2236328 C541.840496,15.0133453 542.409501,14.7412126 543.238281,14.4072266 C544.067061,14.0732405 545.025711,13.7732761 546.114258,13.5073242 C547.202805,13.2413724 548.266596,13.1083984 549.305664,13.1083984 Z M547.969727,32.5537109 C548.786137,32.5537109 549.577796,32.4454763 550.344727,32.2290039 C551.111657,32.0125315 551.773435,31.7589533 552.330078,31.4682617 C552.886722,31.1775702 553.257812,30.9270844 553.443359,30.7167969 L553.443359,23.9072266 C552.466141,23.9072266 551.331224,23.9876294 550.038574,24.1484375 C548.745925,24.3092456 547.697595,24.556639 546.893555,24.890625 C545.817377,25.2988302 545.013349,25.8152638 544.481445,26.4399414 C543.949542,27.064619 543.683594,27.8346308 543.683594,28.75 C543.683594,29.9251361 544.033037,30.8528612 544.731934,31.5332031 C545.43083,32.2135451 546.510084,32.5537109 547.969727,32.5537109 Z M581.924805,15.9658203 L577.620117,15.9658203 C578.473637,17.1162167 578.900391,18.5078043 578.900391,20.140625 C578.900391,21.6868567 578.532393,23.016596 577.796387,24.1298828 C577.06038,25.2431696 576.058437,26.0873995 574.790527,26.6625977 C573.522617,27.2377958 572.103198,27.5253906 570.532227,27.5253906 C569.517899,27.5253906 568.565434,27.3955091 567.674805,27.1357422 C567.291339,27.4202488 566.960451,27.8068009 566.682129,28.2954102 C566.403807,28.7840194 566.264648,29.2757137 566.264648,29.7705078 C566.264648,30.3766306 566.360513,30.8497704 566.552246,31.1899414 C566.743979,31.5301124 567.056313,31.7713209 567.489258,31.9135742 C567.922203,32.0558275 568.522132,32.1269531 569.289062,32.1269531 L573.87207,32.1269531 C576.642918,32.1269531 578.547846,32.6093702 579.586914,33.5742188 C580.625982,34.5390673 581.145508,35.8069583 581.145508,37.3779297 C581.145508,38.7386136 580.697107,39.9322865 579.800293,40.9589844 C578.903479,41.9856822 577.681974,42.777341 576.135742,43.3339844 C574.58951,43.8906278 572.876311,44.1689453 570.996094,44.1689453 C568.188137,44.1689453 565.998706,43.6834358 564.427734,42.7124023 C562.856763,41.7413688 562.071289,40.2291769 562.071289,38.1757812 C562.071289,37.1985628 562.368161,36.3203164 562.961914,35.5410156 C563.555667,34.7617149 564.242184,34.1556011 565.021484,33.7226562 C564.427731,33.3886702 564.013348,32.9619167 563.77832,32.4423828 C563.543293,31.922849 563.425781,31.3291049 563.425781,30.6611328 C563.425781,29.9313115 563.657713,29.1798541 564.121582,28.4067383 C564.585452,27.6336224 565.194658,26.9687528 565.949219,26.4121094 C564.860672,25.8059866 564.007165,24.9957733 563.388672,23.9814453 C562.770179,22.9671173 562.460938,21.8105534 562.460938,20.5117188 C562.460938,18.8665282 562.832028,17.4904027 563.574219,16.3833008 C564.31641,15.2761989 565.321445,14.4567084 566.589355,13.9248047 C567.857265,13.392901 569.289055,13.1269531 570.884766,13.1269531 C572.839202,13.1269531 574.502923,13.5475218 575.875977,14.3886719 C576.358401,14.1412748 576.976884,13.927898 577.731445,13.7485352 C578.486006,13.5691723 579.222002,13.4794922 579.939453,13.4794922 L581.924805,13.4794922 L581.924805,15.9658203 Z M570.587891,25.4472656 C572.220711,25.4472656 573.500972,25.0297893 574.428711,24.1948242 C575.35645,23.3598591 575.820312,22.0455819 575.820312,20.2519531 C575.820312,18.6067626 575.384282,17.3605186 574.512207,16.5131836 C573.640132,15.6658486 572.424812,15.2421875 570.866211,15.2421875 C569.29524,15.2421875 568.014979,15.6349245 567.025391,16.4204102 C566.035802,17.2058959 565.541016,18.5201731 565.541016,20.3632812 C565.541016,21.3404997 565.735838,22.2125613 566.125488,22.9794922 C566.515139,23.7464231 567.087236,24.3494444 567.841797,24.7885742 C568.596358,25.227704 569.511713,25.4472656 570.587891,25.4472656 Z M569.75293,34.5761719 C568.528314,34.5761719 567.544926,34.5143235 566.802734,34.390625 C565.664708,35.3431037 565.095703,36.4811132 565.095703,37.8046875 C565.095703,39.2767001 565.581213,40.3497688 566.552246,41.0239258 C567.52328,41.6980828 569.023102,42.0351562 571.051758,42.0351562 C572.313483,42.0351562 573.485509,41.8867202 574.567871,41.5898438 C575.650233,41.2929673 576.522295,40.8414744 577.184082,40.2353516 C577.845869,39.6292287 578.176758,38.8932335 578.176758,38.0273438 C578.176758,37.1985636 578.00049,36.5336939 577.647949,36.0327148 C577.295408,35.5317358 576.714034,35.1637382 575.903809,34.9287109 C575.093583,34.6936837 573.995775,34.5761719 572.610352,34.5761719 L569.75293,34.5761719 Z M587.509766,24.3154297 L587.509766,25.0576172 C587.596355,27.6429166 588.258132,29.5354758 589.495117,30.7353516 C590.732103,31.9352274 592.395823,32.5351562 594.486328,32.5351562 C595.438807,32.5351562 596.496413,32.3929051 597.65918,32.1083984 C598.821946,31.8238918 599.681638,31.4960956 600.238281,31.125 L600.832031,32.9248047 C600.151689,33.4938179 599.125007,33.9607729 597.751953,34.3256836 C596.378899,34.6905943 595.024421,34.8730469 593.688477,34.8730469 C591.72167,34.8730469 590.048672,34.4462933 588.669434,33.5927734 C587.290195,32.7392535 586.244958,31.5053792 585.533691,29.8911133 C584.822425,28.2768474 584.466797,26.3440868 584.466797,24.0927734 C584.466797,21.9404189 584.844072,20.0385825 585.598633,18.387207 C586.353194,16.7358316 587.451002,15.4462937 588.89209,14.5185547 C590.333178,13.5908157 592.055654,13.1269531 594.05957,13.1269531 C595.519213,13.1269531 596.805658,13.4547493 597.918945,14.1103516 C599.032232,14.7659538 599.904294,15.6936789 600.535156,16.8935547 C601.166019,18.0934305 601.5,19.4850181 601.537109,21.0683594 C601.537109,21.9095094 601.527832,22.5620094 601.509277,23.0258789 C601.490723,23.4897484 601.444336,23.9195944 601.370117,24.3154297 L587.509766,24.3154297 Z M593.762695,15.3349609 C592.105135,15.3349609 590.735194,15.9008732 589.652832,17.0327148 C588.57047,18.1645564 587.893231,19.8994024 587.621094,22.2373047 L598.624023,22.2373047 C598.636393,22.0517569 598.642578,21.7672545 598.642578,21.3837891 C598.642578,19.528311 598.252934,18.0563205 597.473633,16.9677734 C596.694332,15.8792263 595.457365,15.3349609 593.762695,15.3349609 Z M101.822266,47.3359375 C103.14584,47.3359375 103.88802,47.3297527 104.048828,47.3173828 C104.568362,47.3173828 105.496087,47.2802738 106.832031,47.2060547 C108.563811,47.1194657 109.72656,47.0761719 110.320312,47.0761719 C113.276707,47.0761719 115.750641,47.6080676 117.742188,48.671875 C119.733734,49.7356824 121.224279,51.2787985 122.213867,53.3012695 C123.203455,55.3237406 123.692057,57.7698424 123.679688,60.6396484 C123.679688,63.7073721 123.150884,66.3854052 122.093262,68.6738281 C121.035639,70.962251 119.489431,72.734206 117.45459,73.9897461 C115.419749,75.2452862 112.986017,75.8730469 110.15332,75.8730469 C109.683266,75.8730469 108.706062,75.8359379 107.22168,75.7617188 C105.984694,75.6751298 104.871424,75.6256511 103.881836,75.6132812 C103.387042,75.5885415 102.700525,75.5761719 101.822266,75.5761719 L101.822266,47.3359375 Z M110.338867,73.5351562 C112.379893,73.5104165 114.15494,73.0434616 115.664062,72.1342773 C117.173185,71.2250931 118.342118,69.8365979 119.170898,67.96875 C119.999679,66.1009021 120.414062,63.7692197 120.414062,60.9736328 C120.414062,56.9410606 119.520354,53.9970796 117.73291,52.1416016 C115.945466,50.2861235 113.227232,49.3583984 109.578125,49.3583984 C108.205071,49.3583984 106.665048,49.4449861 104.958008,49.6181641 L104.958008,73.2011719 C105.675459,73.3001307 106.550613,73.383626 107.583496,73.4516602 C108.616379,73.5196944 109.534827,73.5475261 110.338867,73.5351562 Z M127.390625,64.8515625 C127.390625,62.612619 127.805009,60.6860432 128.633789,59.0717773 C129.462569,57.4575115 130.603671,56.2298219 132.057129,55.3886719 C133.510587,54.5475218 135.158845,54.1269531 137.001953,54.1269531 C139.080089,54.1269531 140.805657,54.6124626 142.178711,55.5834961 C143.551765,56.5545296 144.562985,57.862622 145.212402,59.5078125 C145.86182,61.153003 146.186523,63.0022684 146.186523,65.0556641 C146.186523,67.2946075 145.778324,69.2304606 144.961914,70.8632812 C144.145504,72.4961019 143.013679,73.7392535 141.566406,74.5927734 C140.119133,75.4462933 138.467783,75.8730469 136.612305,75.8730469 C134.49706,75.8730469 132.749844,75.3782602 131.370605,74.3886719 C129.991367,73.3990836 128.983239,72.0786215 128.346191,70.4272461 C127.709144,68.7758706 127.390625,66.917328 127.390625,64.8515625 Z M143.050781,65.0927734 C143.050781,63.4228432 142.825035,61.9322982 142.373535,60.6210938 C141.922036,59.3098893 141.229334,58.2739296 140.29541,57.5131836 C139.361486,56.7524376 138.208015,56.3720703 136.834961,56.3720703 C135.523756,56.3720703 134.398117,56.7029589 133.458008,57.3647461 C132.517899,58.0265333 131.797366,58.9820901 131.296387,60.2314453 C130.795408,61.4808005 130.544922,62.9775303 130.544922,64.7216797 C130.544922,66.3916099 130.770668,67.9007094 131.222168,69.2490234 C131.673668,70.5973375 132.366369,71.6704062 133.300293,72.4682617 C134.234217,73.2661173 135.393873,73.6650391 136.779297,73.6650391 C138.102871,73.6650391 139.234696,73.3186884 140.174805,72.6259766 C141.114914,71.9332648 141.829262,70.9436913 142.317871,69.6572266 C142.80648,68.3707618 143.050781,66.8492926 143.050781,65.0927734 Z M160.083984,54.1269531 C161.234381,54.1269531 162.273433,54.2382801 163.201172,54.4609375 C164.128911,54.6835949 164.803058,54.9371731 165.223633,55.2216797 L164.685547,57.6708984 C164.178383,57.2998028 163.510421,57.0153005 162.681641,56.8173828 C161.85286,56.6194652 160.93132,56.5205078 159.916992,56.5205078 C158.692377,56.5205078 157.563644,56.8421192 156.530762,57.4853516 C155.497879,58.1285839 154.669111,59.093418 154.044434,60.3798828 C153.419756,61.6663476 153.107422,63.2372954 153.107422,65.0927734 C153.107422,66.9111419 153.404294,68.454258 153.998047,69.722168 C154.5918,70.990078 155.389643,71.9425424 156.391602,72.5795898 C157.39356,73.2166373 158.500645,73.5351562 159.712891,73.5351562 C160.813808,73.5351562 161.837398,73.3836278 162.783691,73.0805664 C163.729985,72.777505 164.487627,72.4404315 165.056641,72.0693359 L165.706055,73.8505859 C165.038083,74.4690786 164.12582,74.9607729 162.969238,75.3256836 C161.812657,75.6905943 160.572598,75.8730469 159.249023,75.8730469 C157.356436,75.8730469 155.720547,75.4184616 154.341309,74.5092773 C152.96207,73.6000931 151.910648,72.3476642 151.187012,70.7519531 C150.463375,69.156242 150.101562,67.3440857 150.101562,65.3154297 C150.089193,63.1630752 150.472652,61.2395918 151.251953,59.5449219 C152.031254,57.8502519 153.172356,56.5236051 154.675293,55.5649414 C156.17823,54.6062778 157.981109,54.1269531 160.083984,54.1269531 Z M186.654297,54.4238281 L186.654297,75.7988281 L185.466797,75.7988281 C184.910153,75.7988281 184.511232,75.7184253 184.27002,75.5576172 C184.028807,75.3968091 183.908203,75.0566432 183.908203,74.5371094 L183.908203,73.3867188 C182.893875,74.1041703 181.706387,74.6979143 180.345703,75.1679688 C178.985019,75.6380232 177.704759,75.8730469 176.504883,75.8730469 C174.760733,75.8730469 173.440271,75.5081417 172.543457,74.7783203 C171.646643,74.048499 171.049806,73.0465558 170.75293,71.7724609 C170.456053,70.498366 170.307617,68.8532002 170.307617,66.8369141 L170.307617,54.4238281 L173.387695,54.4238281 L173.387695,66.9667969 C173.387695,68.7356859 173.520669,70.0685177 173.786621,70.965332 C174.052573,71.8621464 174.488604,72.4775374 175.094727,72.8115234 C175.700849,73.1455095 176.579096,73.3125 177.729492,73.3125 C178.73145,73.3125 179.785965,73.1084005 180.893066,72.7001953 C182.000168,72.2919901 182.887692,71.8343124 183.555664,71.3271484 L183.555664,54.4238281 L186.654297,54.4238281 Z M217.306641,54.1083984 C218.778653,54.1083984 219.950679,54.3805311 220.822754,54.9248047 C221.694829,55.4690782 222.331866,56.3504171 222.733887,57.5688477 C223.135907,58.7872782 223.336914,60.4417213 223.336914,62.5322266 L223.336914,75.5761719 L220.256836,75.5761719 L220.256836,62.6806641 C220.256836,61.2333912 220.151694,60.0861045 219.941406,59.2387695 C219.731119,58.3914346 219.316735,57.7482118 218.698242,57.309082 C218.07975,56.8699522 217.170579,56.6689451 215.970703,56.7060547 C215.042964,56.7184245 214.037929,56.9472634 212.955566,57.3925781 C211.873204,57.8378929 210.892908,58.3636037 210.014648,58.9697266 C210.163087,59.946945 210.237305,61.1035089 210.237305,62.4394531 L210.237305,75.5761719 L207.138672,75.5761719 L207.138672,62.6435547 C207.138672,61.1468024 207.030437,59.971684 206.813965,59.1181641 C206.597492,58.2646442 206.189293,57.6399759 205.589355,57.2441406 C204.989418,56.8483053 204.120448,56.67513 202.982422,56.7246094 C202.042313,56.7617189 200.981614,57.0245744 199.800293,57.5131836 C198.618972,58.0017928 197.607752,58.5924445 196.766602,59.2851562 L196.766602,75.5761719 L193.667969,75.5761719 L193.667969,54.4423828 L196.432617,54.4423828 L196.451172,57.1513672 C197.020185,56.6936826 197.734533,56.2360049 198.594238,55.7783203 C199.453943,55.3206357 200.378576,54.9309912 201.368164,54.609375 C202.357752,54.2877588 203.310217,54.1207683 204.225586,54.1083984 C205.59864,54.0836587 206.705725,54.2877583 207.546875,54.7207031 C208.388025,55.153648 209.025063,55.8896432 209.458008,56.9287109 C210.435226,56.1865197 211.638176,55.5309273 213.066895,54.9619141 C214.495613,54.3929008 215.908847,54.1083984 217.306641,54.1083984 Z M231.760742,65.3154297 L231.760742,66.0576172 C231.847331,68.6429166 232.509108,70.5354758 233.746094,71.7353516 C234.983079,72.9352274 236.646799,73.5351562 238.737305,73.5351562 C239.689783,73.5351562 240.74739,73.3929051 241.910156,73.1083984 C243.072922,72.8238918 243.932614,72.4960956 244.489258,72.125 L245.083008,73.9248047 C244.402666,74.4938179 243.375983,74.9607729 242.00293,75.3256836 C240.629876,75.6905943 239.275397,75.8730469 237.939453,75.8730469 C235.972646,75.8730469 234.299649,75.4462933 232.92041,74.5927734 C231.541171,73.7392535 230.495935,72.5053792 229.784668,70.8911133 C229.073401,69.2768474 228.717773,67.3440868 228.717773,65.0927734 C228.717773,62.9404189 229.095048,61.0385825 229.849609,59.387207 C230.60417,57.7358316 231.701978,56.4462937 233.143066,55.5185547 C234.584154,54.5908157 236.306631,54.1269531 238.310547,54.1269531 C239.77019,54.1269531 241.056635,54.4547493 242.169922,55.1103516 C243.283209,55.7659538 244.15527,56.6936789 244.786133,57.8935547 C245.416995,59.0934305 245.750976,60.4850181 245.788086,62.0683594 C245.788086,62.9095094 245.778809,63.5620094 245.760254,64.0258789 C245.741699,64.4897484 245.695313,64.9195944 245.621094,65.3154297 L231.760742,65.3154297 Z M238.013672,56.3349609 C236.356112,56.3349609 234.986171,56.9008732 233.903809,58.0327148 C232.821446,59.1645564 232.144207,60.8994024 231.87207,63.2373047 L242.875,63.2373047 C242.88737,63.0517569 242.893555,62.7672545 242.893555,62.3837891 C242.893555,60.528311 242.50391,59.0563205 241.724609,57.9677734 C240.945309,56.8792263 239.708342,56.3349609 238.013672,56.3349609 Z M254.063477,54.4423828 L254.082031,57.1513672 C255.096359,56.3968061 256.330234,55.7010123 257.783691,55.0639648 C259.237149,54.4269174 260.668938,54.1083984 262.079102,54.1083984 C263.575854,54.1083984 264.766434,54.3836235 265.650879,54.934082 C266.535323,55.4845405 267.178546,56.3658794 267.580566,57.578125 C267.982587,58.7903706 268.183594,60.4293517 268.183594,62.4951172 L268.183594,75.5761719 L265.084961,75.5761719 L265.084961,62.4765625 C265.084961,61.0169198 264.958172,59.8665407 264.70459,59.0253906 C264.451008,58.1842406 263.999515,57.571942 263.350098,57.1884766 C262.70068,56.8050111 261.776048,56.6380206 260.576172,56.6875 C259.623693,56.6998699 258.572271,56.9627253 257.421875,57.4760742 C256.271479,57.9894231 255.263351,58.5924445 254.397461,59.2851562 L254.397461,75.5761719 L251.298828,75.5761719 L251.298828,54.4423828 L254.063477,54.4423828 Z M276.069336,56.7617188 L273.119141,56.7617188 L273.119141,55.0732422 C273.329428,55.0113929 273.688149,54.9248052 274.195312,54.8134766 C274.863285,54.6526685 275.364256,54.50114 275.698242,54.3588867 C276.032228,54.2166334 276.254882,54.0032566 276.366211,53.71875 C276.44043,53.5208323 276.570312,52.9580125 276.755859,52.0302734 C276.953777,50.9293565 277.133137,50.1191432 277.293945,49.5996094 L279.149414,49.5996094 L279.149414,54.4238281 L285.717773,54.4238281 L285.717773,56.7617188 L279.149414,56.7617188 L279.149414,68.8222656 C279.149414,70.2076892 279.236002,71.2189096 279.40918,71.855957 C279.582358,72.4930045 279.857583,72.9073884 280.234863,73.0991211 C280.612144,73.2908538 281.190426,73.3867188 281.969727,73.3867188 C282.588219,73.3867188 283.314937,73.2722993 284.149902,73.043457 C284.984867,72.8146147 285.581704,72.5764986 285.94043,72.3291016 L286.478516,74.1289062 C285.921872,74.574221 285.08692,74.9762352 283.973633,75.3349609 C282.860346,75.6936867 281.833664,75.8730469 280.893555,75.8730469 C279.916336,75.8730469 279.078291,75.7338881 278.379395,75.4555664 C277.680498,75.1772447 277.12077,74.6515338 276.700195,73.878418 C276.27962,73.1053021 276.069336,72.0013093 276.069336,70.5664062 L276.069336,56.7617188 Z M298.09375,54.1083984 C299.652352,54.1083984 300.954259,54.290851 301.999512,54.6557617 C303.044764,55.0206724 303.85807,55.6762648 304.439453,56.6225586 C305.020836,57.5688524 305.311523,58.8954993 305.311523,60.6025391 L305.311523,75.8730469 L304.049805,75.8730469 C303.6416,75.8730469 303.326173,75.8421227 303.103516,75.7802734 C302.880858,75.7184242 302.710775,75.5823578 302.593262,75.3720703 C302.475748,75.1617828 302.416992,74.8339866 302.416992,74.3886719 L302.416992,73.609375 C301.74902,74.2154978 300.833665,74.7443011 299.670898,75.1958008 C298.508132,75.6473004 297.234056,75.8730469 295.848633,75.8730469 C294.599278,75.8730469 293.486007,75.6380232 292.508789,75.1679688 C291.531571,74.6979143 290.770836,74.0175826 290.226562,73.1269531 C289.682289,72.2363237 289.410156,71.1910867 289.410156,69.9912109 C289.410156,68.6181572 289.796708,67.4430387 290.569824,66.4658203 C291.34294,65.4886019 292.477857,64.7216825 293.974609,64.1650391 C295.112636,63.744464 296.44856,63.4321299 297.982422,63.2280273 C299.516284,63.0239248 300.932611,62.921875 302.231445,62.921875 L302.231445,60.4726562 C302.231445,59.3717393 302.0459,58.5306019 301.674805,57.9492188 C301.303709,57.3678356 300.768721,56.9750987 300.069824,56.7709961 C299.370927,56.5668935 298.446295,56.4648438 297.295898,56.4648438 C296.615556,56.4648438 295.864099,56.5576163 295.041504,56.7431641 C294.218909,56.9287119 293.448897,57.1606431 292.731445,57.4389648 C292.013994,57.7172865 291.463544,57.9925117 291.080078,58.2646484 L290.319336,56.2236328 C290.628582,56.0133453 291.197587,55.7412126 292.026367,55.4072266 C292.855147,55.0732405 293.813797,54.7732761 294.902344,54.5073242 C295.990891,54.2413724 297.054682,54.1083984 298.09375,54.1083984 Z M296.757812,73.5537109 C297.574223,73.5537109 298.365882,73.4454763 299.132812,73.2290039 C299.899743,73.0125315 300.561521,72.7589533 301.118164,72.4682617 C301.674807,72.1775702 302.045898,71.9270844 302.231445,71.7167969 L302.231445,64.9072266 C301.254227,64.9072266 300.11931,64.9876294 298.82666,65.1484375 C297.53401,65.3092456 296.485681,65.556639 295.681641,65.890625 C294.605463,66.2988302 293.801435,66.8152638 293.269531,67.4399414 C292.737628,68.064619 292.47168,68.8346308 292.47168,69.75 C292.47168,70.9251361 292.821123,71.8528612 293.52002,72.5332031 C294.218916,73.2135451 295.29817,73.5537109 296.757812,73.5537109 Z M313.067383,56.7617188 L310.117188,56.7617188 L310.117188,55.0732422 C310.327475,55.0113929 310.686195,54.9248052 311.193359,54.8134766 C311.861331,54.6526685 312.362303,54.50114 312.696289,54.3588867 C313.030275,54.2166334 313.252929,54.0032566 313.364258,53.71875 C313.438477,53.5208323 313.568358,52.9580125 313.753906,52.0302734 C313.951824,50.9293565 314.131184,50.1191432 314.291992,49.5996094 L316.147461,49.5996094 L316.147461,54.4238281 L322.71582,54.4238281 L322.71582,56.7617188 L316.147461,56.7617188 L316.147461,68.8222656 C316.147461,70.2076892 316.234049,71.2189096 316.407227,71.855957 C316.580405,72.4930045 316.85563,72.9073884 317.23291,73.0991211 C317.610191,73.2908538 318.188473,73.3867188 318.967773,73.3867188 C319.586266,73.3867188 320.312984,73.2722993 321.147949,73.043457 C321.982914,72.8146147 322.579751,72.5764986 322.938477,72.3291016 L323.476562,74.1289062 C322.919919,74.574221 322.084967,74.9762352 320.97168,75.3349609 C319.858393,75.6936867 318.83171,75.8730469 317.891602,75.8730469 C316.914383,75.8730469 316.076338,75.7338881 315.377441,75.4555664 C314.678545,75.1772447 314.118817,74.6515338 313.698242,73.878418 C313.277667,73.1053021 313.067383,72.0013093 313.067383,70.5664062 L313.067383,56.7617188 Z M331.362305,54.4423828 L331.362305,75.5761719 L328.282227,75.5761719 L328.282227,54.4423828 L331.362305,54.4423828 Z M327.669922,47.7070312 C327.669922,47.2617165 327.778156,46.8597023 327.994629,46.5009766 C328.211101,46.1422508 328.495604,45.8577484 328.848145,45.6474609 C329.200685,45.4371734 329.568683,45.3320312 329.952148,45.3320312 C330.595381,45.3320312 331.087075,45.5237611 331.427246,45.9072266 C331.767417,46.290692 331.9375,46.7978484 331.9375,47.4287109 C331.9375,47.8987654 331.832358,48.3162417 331.62207,48.6811523 C331.411783,49.046063 331.130373,49.327473 330.777832,49.5253906 C330.425291,49.7233083 330.051109,49.8222656 329.655273,49.8222656 C329.09863,49.8222656 328.628583,49.6305358 328.245117,49.2470703 C327.861652,48.8636049 327.669922,48.3502636 327.669922,47.7070312 Z M337.225586,64.8515625 C337.225586,62.612619 337.63997,60.6860432 338.46875,59.0717773 C339.29753,57.4575115 340.438632,56.2298219 341.89209,55.3886719 C343.345548,54.5475218 344.993806,54.1269531 346.836914,54.1269531 C348.915049,54.1269531 350.640618,54.6124626 352.013672,55.5834961 C353.386726,56.5545296 354.397946,57.862622 355.047363,59.5078125 C355.696781,61.153003 356.021484,63.0022684 356.021484,65.0556641 C356.021484,67.2946075 355.613285,69.2304606 354.796875,70.8632812 C353.980465,72.4961019 352.84864,73.7392535 351.401367,74.5927734 C349.954094,75.4462933 348.302744,75.8730469 346.447266,75.8730469 C344.332021,75.8730469 342.584805,75.3782602 341.205566,74.3886719 C339.826328,73.3990836 338.8182,72.0786215 338.181152,70.4272461 C337.544105,68.7758706 337.225586,66.917328 337.225586,64.8515625 Z M352.885742,65.0927734 C352.885742,63.4228432 352.659996,61.9322982 352.208496,60.6210938 C351.756996,59.3098893 351.064295,58.2739296 350.130371,57.5131836 C349.196447,56.7524376 348.042976,56.3720703 346.669922,56.3720703 C345.358717,56.3720703 344.233078,56.7029589 343.292969,57.3647461 C342.35286,58.0265333 341.632327,58.9820901 341.131348,60.2314453 C340.630369,61.4808005 340.379883,62.9775303 340.379883,64.7216797 C340.379883,66.3916099 340.605629,67.9007094 341.057129,69.2490234 C341.508629,70.5973375 342.20133,71.6704062 343.135254,72.4682617 C344.069178,73.2661173 345.228834,73.6650391 346.614258,73.6650391 C347.937832,73.6650391 349.069657,73.3186884 350.009766,72.6259766 C350.949874,71.9332648 351.664223,70.9436913 352.152832,69.6572266 C352.641441,68.3707618 352.885742,66.8492926 352.885742,65.0927734 Z M364.31543,54.4423828 L364.333984,57.1513672 C365.348312,56.3968061 366.582187,55.7010123 368.035645,55.0639648 C369.489102,54.4269174 370.920891,54.1083984 372.331055,54.1083984 C373.827807,54.1083984 375.018388,54.3836235 375.902832,54.934082 C376.787277,55.4845405 377.430499,56.3658794 377.83252,57.578125 C378.23454,58.7903706 378.435547,60.4293517 378.435547,62.4951172 L378.435547,75.5761719 L375.336914,75.5761719 L375.336914,62.4765625 C375.336914,61.0169198 375.210125,59.8665407 374.956543,59.0253906 C374.702961,58.1842406 374.251468,57.571942 373.602051,57.1884766 C372.952633,56.8050111 372.028001,56.6380206 370.828125,56.6875 C369.875646,56.6998699 368.824225,56.9627253 367.673828,57.4760742 C366.523432,57.9894231 365.515304,58.5924445 364.649414,59.2851562 L364.649414,75.5761719 L361.550781,75.5761719 L361.550781,54.4423828 L364.31543,54.4423828 Z" id="Imandra-Protocol-Lan" fill="#405267"></path>
            <g id="ipl" transform="translate(0.000000, 11.000000)" fill="#27D7CD">
                <path d="M14.6410045,26.6319421 C15.6810708,26.6319421 16.5242394,25.7922472 16.5242394,24.7562028 C16.5242394,23.7205242 15.6810708,22.8808292 14.6410045,22.8808292 C13.6009381,22.8808292 12.7577695,23.7205242 12.7577695,24.7562028 C12.7577695,25.7922472 13.6009381,26.6319421 14.6410045,26.6319421" id="Fill-1"></path>
                <path d="M26.6882417,26.6319421 C27.7283081,26.6319421 28.5714767,25.7922472 28.5714767,24.7562028 C28.5714767,23.7205242 27.7283081,22.8808292 26.6882417,22.8808292 C25.6481754,22.8808292 24.804824,23.7205242 24.804824,24.7562028 C24.804824,25.7922472 25.6481754,26.6319421 26.6882417,26.6319421" id="Fill-3"></path>
                <path d="M20.6315966,22.5588273 C21.1168024,22.5588273 21.5104152,22.9522572 21.5104152,23.4378287 L21.5104152,26.0750158 C21.5104152,26.5604044 21.1168024,26.9538344 20.6315966,26.9538344 C20.1462079,26.9538344 19.752778,26.5604044 19.752778,26.0750158 L19.752778,23.4378287 C19.752778,22.9522572 20.1462079,22.5588273 20.6315966,22.5588273" id="Fill-5"></path>
                <path d="M32.7695129,5.59347835 L32.7587264,5.59347835 L32.5812076,5.59311271 C31.0667218,5.59311271 29.8388987,4.3652896 29.8388987,2.85080379 C29.8388987,1.33631799 31.0667218,0.108494882 32.5812076,0.108494882 L32.7799336,0.108860523 C34.2944194,0.114710782 35.5174892,1.34710441 35.5116389,2.86177303 C35.5057887,4.37260242 34.2792453,5.59347835 32.7695129,5.59347835 Z" id="Fill-7"></path>
                <path d="M13.4903499,12.5075704 C12.7042214,12.5075704 11.9241259,12.1715461 11.3816972,11.5203392 C10.4123824,10.3565033 10.5701566,8.62738611 11.7338097,7.65807132 C14.6408399,5.23734383 17.9259432,3.35465735 21.4982576,2.06248139 C22.9229785,1.54729296 24.4945043,2.28405995 25.0098756,3.70823238 C25.525064,5.13258763 24.7881142,6.70466192 23.3639418,7.21985035 C20.3920102,8.29483545 17.660122,9.86032819 15.2439651,11.8726345 C14.7313361,12.2995206 14.1090148,12.5075704 13.4903499,12.5075704 Z" id="Path"></path>
                <path d="M51.8230752,12.6028199 C51.2009367,12.6028199 50.5756903,12.3923934 50.0619644,11.9613025 C48.8513264,10.9455512 47.5377605,10.0268778 46.1581962,9.23032843 C44.8151962,8.45462065 43.4027243,7.79153035 41.9604526,7.25915678 C40.5397537,6.7346445 39.8130419,5.15763405 40.3375542,3.73693521 C40.8620665,2.31587074 42.4396254,1.59007298 43.8597757,2.11385398 C45.5930978,2.75372606 47.2891244,3.54990975 48.900688,4.48046657 C50.5557628,5.43625264 52.1325904,6.5393921 53.5869283,7.75971957 C54.7472906,8.73305641 54.8988489,10.4627221 53.9253292,11.6229015 C53.3829005,12.269538 52.6057301,12.6028199 51.8230752,12.6028199 Z" id="Path"></path>
                <path d="M6.73659153,20.539976 C6.27149594,20.539976 5.80018445,20.4215083 5.36854503,20.1725066 C4.06046368,19.4178232 3.60944527,17.7481227 4.3571815,16.4380303 L4.4663254,16.249908 C5.23088112,14.9425579 6.91063674,14.5021431 8.21780399,15.2670644 C9.52515406,16.031803 9.96538605,17.7113758 9.2006475,19.0187259 L9.11435618,19.1675418 C8.60666339,20.0476402 7.68433349,20.539976 6.73659153,20.539976 Z" id="Path"></path>
                <path d="M58.5435602,20.6630143 C57.5883226,20.6630143 56.6601425,20.1628171 56.1553748,19.272298 L56.0721914,19.1269556 C55.3151313,17.8152179 55.76487,16.1382046 57.0767906,15.3811445 C58.3879799,14.6242672 60.0653588,15.0736403 60.8226017,16.3857437 L60.9269923,16.567833 C61.6738144,17.885421 61.2109127,19.5591435 59.8933247,20.3059657 C59.4662558,20.5480201 59.0017086,20.6630143 58.5435602,20.6630143 Z" id="Path"></path>
                <path d="M3.17744021,40.526289 C1.86789629,40.526289 0.709179367,39.5853114 0.478459777,38.2509039 C0.161083225,36.4153851 1.82820594e-05,34.5420225 1.82820594e-05,32.6829199 C1.82820594e-05,30.7801231 0.16876169,28.8670884 0.501495172,26.9970166 C0.766767854,25.5059318 2.19057464,24.5115706 3.68184223,24.7777574 C5.17292699,25.0430301 6.16655692,26.4668369 5.90110142,27.9579216 C5.62467668,29.511531 5.48463611,31.1011561 5.48463611,32.6829199 C5.48463611,34.2295821 5.61846078,35.7884933 5.88281936,37.3161422 C6.14096204,38.8085067 5.14038493,40.2275602 3.64802042,40.48552 C3.49006342,40.5129431 3.33247207,40.526289 3.17744021,40.526289 Z" id="Path"></path>
                <path d="M62.0087418,40.6705345 C61.849505,40.6705345 61.6886229,40.6566401 61.5266439,40.6279373 C60.0353763,40.3635787 59.0408322,38.9401375 59.3051908,37.44887 C59.5799702,35.8998311 59.7192795,34.3149593 59.7192795,32.7384973 C59.7190966,31.1863505 59.5843579,29.6225031 59.3185367,28.0902837 C59.0596628,26.598102 60.0593258,25.1785001 61.5518731,24.9196262 C63.0449689,24.6611179 64.4634739,25.660598 64.7223478,27.1527797 C65.0417354,28.9934175 65.2037145,30.8724475 65.2038973,32.7381317 C65.2038973,34.635261 65.0362508,36.5422626 64.7057112,38.4064842 C64.4698726,39.7359556 63.3131667,40.6705345 62.0087418,40.6705345 Z" id="Path"></path>
                <path d="M6.75103436,50.3934821 C5.80310958,50.3934821 4.88114532,49.9011463 4.37326971,49.0212307 L4.27089018,48.8422494 C3.52205703,47.5257583 3.9825821,45.8516701 5.29925602,45.1030198 C6.61519866,44.3543694 8.29020094,44.8147117 9.03848564,46.1313856 L9.12368003,46.2800188 C9.88074011,47.5919393 9.43100145,49.2687698 8.11908087,50.0258299 C7.68744144,50.2748316 7.21612995,50.3934821 6.75103436,50.3934821 Z" id="Path"></path>
                <path d="M58.3600083,50.543395 C57.8899766,50.543395 57.4140946,50.4227334 56.9791644,50.1686128 C55.6714487,49.4047883 55.2304854,47.7252155 55.9944927,46.4174998 L56.0977863,46.2394326 C56.8542979,44.927512 58.5316769,44.4774077 59.8435975,45.2344678 C61.155518,45.9915279 61.6054395,47.6685412 60.8485623,48.9802789 L60.7302773,49.1841239 C60.2203907,50.0567266 59.3026313,50.543395 58.3600083,50.543395 Z" id="Path"></path>
                <path d="M22.2781702,63.471919 C21.9622563,63.471919 21.6412233,63.41689 21.3275032,63.3009817 C19.6005798,62.6623894 17.9102206,61.8680339 16.3034104,60.9404022 C14.6421197,59.9811425 13.0607215,58.8741638 11.6034586,57.6494487 C10.4438275,56.6753806 10.293549,54.9455321 11.2678,53.7859011 C12.2415024,52.6260872 13.9715337,52.4759915 15.1311648,53.4504253 C16.3441794,54.4692844 17.661219,55.3912487 19.0459021,56.1907232 C20.3848802,56.9638715 21.7925987,57.6253164 23.2295686,58.1567758 C24.6502675,58.6822022 25.3760652,60.2595783 24.8508216,61.6799115 C24.4413035,62.7868902 23.393193,63.471919 22.2781702,63.471919 Z" id="Path"></path>
                <path d="M42.7580988,63.5284105 C41.6352147,63.5284105 40.5819853,62.8336923 40.1785003,61.7168413 C39.6642259,60.2923032 40.401907,58.7205945 41.8262623,58.2059546 C44.7989251,57.132432 47.5317274,55.5685847 49.9489813,53.557741 C51.113,52.5893403 52.8423,52.7480286 53.8108835,53.9122301 C54.779467,55.0766145 54.6207787,56.8055488 53.4563944,57.7741323 C50.54845,60.1932144 47.2622498,62.0740727 43.6893869,63.3646033 C43.3818827,63.4755754 43.0672485,63.5284105 42.7580988,63.5284105 Z" id="Path"></path>
                <path d="M32.6066197,65.3123739 L32.4095391,65.3120082 C30.8950533,65.3068893 29.6712522,64.0748613 29.676554,62.5603755 C29.681673,61.0489976 30.9082164,59.8273904 32.4183145,59.8273904 L32.428004,59.8273904 L32.6066197,59.8277561 C34.1212883,59.8277561 35.3489286,61.0555792 35.3489286,62.570065 C35.3489286,64.0845508 34.1212883,65.3123739 32.6066197,65.3123739 Z" id="Path"></path>
                <path d="M49.9821449,36.0534552 C49.9821449,35.32912 49.3963877,34.7435456 48.6724182,34.7435456 L14.0674048,34.7435456 C13.3436181,34.7435456 12.7578609,35.32912 12.7578609,36.0534552 C12.7578609,36.7776076 13.3436181,37.3639132 14.0674048,37.3639132 L48.6724182,37.3639132 C49.3963877,37.3639132 49.9821449,36.7776076 49.9821449,36.0534552" id="Fill-10"></path>
                <path d="M48.6795482,22.9660784 L34.2082012,22.9660784 C33.2191418,22.9660784 32.4183876,23.7662842 32.4183876,24.755892 C32.4183876,25.7454999 33.2191418,26.5468026 34.2082012,26.5468026 L48.6795482,26.5468026 C49.6686076,26.5468026 50.469179,25.7454999 50.469179,24.755892 C50.469179,23.7662842 49.6686076,22.9660784 48.6795482,22.9660784" id="Fill-12"></path>
                <path d="M38.8838379,29.4722795 L33.644931,29.4722795 C32.9209614,29.4722795 32.3352043,30.0580366 32.3352043,30.782189 C32.3352043,31.5065242 32.9209614,32.0928299 33.644931,32.0928299 L38.8838379,32.0928299 C39.6076247,32.0928299 40.1933819,31.5065242 40.1933819,30.782189 C40.1933819,30.0580366 39.6076247,29.4722795 38.8838379,29.4722795" id="Fill-14"></path>
                <path d="M19.3063118,29.4722795 L14.0675877,29.4722795 C13.3436181,29.4722795 12.7578609,30.0580366 12.7578609,30.782189 C12.7578609,31.5065242 13.3436181,32.0928299 14.0675877,32.0928299 L19.3063118,32.0928299 C20.0302813,32.0928299 20.6160385,31.5065242 20.6160385,30.782189 C20.6160385,30.0580366 20.0302813,29.4722795 19.3063118,29.4722795" id="Fill-16"></path>
                <path d="M29.0950749,29.4722795 L23.8561679,29.4722795 C23.1323812,29.4722795 22.5464412,30.0580366 22.5464412,30.782189 C22.5464412,31.5065242 23.1323812,32.0928299 23.8561679,32.0928299 L29.0950749,32.0928299 C29.8188616,32.0928299 30.4048016,31.5065242 30.4048016,30.782189 C30.4048016,30.0580366 29.8188616,29.4722795 29.0950749,29.4722795" id="Fill-18"></path>
                <path d="M48.6724182,29.4722795 L43.4336941,29.4722795 C42.7097245,29.4722795 42.1237845,30.0580366 42.1237845,30.782189 C42.1237845,31.5065242 42.7097245,32.0928299 43.4336941,32.0928299 L48.6724182,32.0928299 C49.3963877,32.0928299 49.9821449,31.5065242 49.9821449,30.782189 C49.9821449,30.0580366 49.3963877,29.4722795 48.6724182,29.4722795" id="Fill-20"></path>
                <path d="M14.8720348,40.014629 L14.0676242,40.014629 C13.3436547,40.014629 12.7578975,40.6002034 12.7578975,41.3245386 C12.7578975,42.0486909 13.3436547,42.6351794 14.0676242,42.6351794 L14.8720348,42.6351794 C15.5958216,42.6351794 16.1817616,42.0486909 16.1817616,41.3245386 C16.1817616,40.6002034 15.5958216,40.014629 14.8720348,40.014629" id="Fill-22"></path>
                <path d="M19.7007107,40.014629 L18.8963,40.014629 C18.1723305,40.014629 17.5863905,40.6002034 17.5863905,41.3245386 C17.5863905,42.0486909 18.1723305,42.6351794 18.8963,42.6351794 L19.7007107,42.6351794 C20.4244974,42.6351794 21.0102546,42.0486909 21.0102546,41.3245386 C21.0102546,40.6002034 20.4244974,40.014629 19.7007107,40.014629" id="Fill-24"></path>
                <path d="M24.5292037,40.014629 L23.724793,40.014629 C23.0010063,40.014629 22.4150663,40.6002034 22.4150663,41.3245386 C22.4150663,42.0486909 23.0010063,42.6351794 23.724793,42.6351794 L24.5292037,42.6351794 C25.2531732,42.6351794 25.8389304,42.0486909 25.8389304,41.3245386 C25.8389304,40.6002034 25.2531732,40.014629 24.5292037,40.014629" id="Fill-26"></path>
                <path d="M29.3578795,40.014629 L28.5534689,40.014629 C27.8296821,40.014629 27.2437421,40.6002034 27.2437421,41.3245386 C27.2437421,42.0486909 27.8296821,42.6351794 28.5534689,42.6351794 L29.3578795,42.6351794 C30.081849,42.6351794 30.6676062,42.0486909 30.6676062,41.3245386 C30.6676062,40.6002034 30.081849,40.014629 29.3578795,40.014629" id="Fill-28"></path>
                <path d="M34.1865553,40.014629 L33.3821447,40.014629 C32.6581751,40.014629 32.0722351,40.6002034 32.0722351,41.3245386 C32.0722351,42.0486909 32.6581751,42.6351794 33.3821447,42.6351794 L34.1865553,42.6351794 C34.910342,42.6351794 35.496282,42.0486909 35.496282,41.3245386 C35.496282,40.6002034 34.910342,40.014629 34.1865553,40.014629" id="Fill-30"></path>
                <path d="M39.0152311,40.014629 L38.2108205,40.014629 C37.4868509,40.014629 36.9009109,40.6002034 36.9009109,41.3245386 C36.9009109,42.0486909 37.4868509,42.6351794 38.2108205,42.6351794 L39.0152311,42.6351794 C39.7390178,42.6351794 40.324775,42.0486909 40.324775,41.3245386 C40.324775,40.6002034 39.7390178,40.014629 39.0152311,40.014629" id="Fill-32"></path>
                <path d="M43.8437424,40.014629 L43.0393318,40.014629 C42.315545,40.014629 41.729605,40.6002034 41.729605,41.3245386 C41.729605,42.0486909 42.315545,42.6351794 43.0393318,42.6351794 L43.8437424,42.6351794 C44.5677119,42.6351794 45.1534691,42.0486909 45.1534691,41.3245386 C45.1534691,40.6002034 44.5677119,40.014629 43.8437424,40.014629" id="Fill-34"></path>
                <path d="M48.6724182,40.014629 L47.8680076,40.014629 C47.144038,40.014629 46.5582808,40.6002034 46.5582808,41.3245386 C46.5582808,42.0486909 47.144038,42.6351794 47.8680076,42.6351794 L48.6724182,42.6351794 C49.3963877,42.6351794 49.9821449,42.0486909 49.9821449,41.3245386 C49.9821449,40.6002034 49.3963877,40.014629 48.6724182,40.014629" id="Fill-36"></path>
            </g>
        </g>
    </g>
</svg>