<?xml version="1.0" encoding="utf-8"?>
<!-- Generator: Adobe Illustrator 22.0.1, SVG Export Plug-In . SVG Version: 6.00 Build 0)  -->
<svg version="1.1" id="Layer_1" xmlns="http://www.w3.org/2000/svg" xmlns:xlink="http://www.w3.org/1999/xlink" x="0px" y="0px"
	 viewBox="0 0 1440 223" style="enable-background:new 0 0 1440 223;" xml:space="preserve">
<style type="text/css">
	.st0{fill:#ECF6F5;}
	.st1{fill:#CBD8D5;}
	.st2{fill:#B2DAD1;}
</style>
<title>transition_footer</title>
<desc>Created with Sketch.</desc>
<g id="Page-1">
	<g id="https:_x2F__x2F_aestheticintegration.github.io" transform="translate(0.000000, -951.000000)">
		<g id="transition_footer" transform="translate(0.000000, 950.000000)">
			<path id="Shape" class="st0" d="M1439.6,223.5V82.1h-36.8v16.9h-16.9V82.1h-16.9V48.3H1351v16.9H1334v16.9h-24.9v9h-9V65.2h-33.8
				v16.9h16.9v16.9h-16.9V82.1h-16.9v16.9h8v9h-8v-9h-17.9V116h-16.9v16.9h-16.9V116h16.9V99.1h-16.9V82.4l-16.9-0.3v16.9h-17.9
				V48.3h-8v8h-9v9h-16.9v16.9h-33.8V65.2h-33.8v16.9h-17.9v16.9h-16.9V116h-16.9V98.1h16.9V82.1h-33.8V65.2h-8v9h-10v8h-15.9V116
				h-34.8v16.9h-16.9V116H890V82.1h-17.9V56.3h-8v-8h-9v33.8h-16.9v16.9h-16.9V65.2h-16.9v16.9h-33.8v16.9h16.9V116h-16.9V99.1
				h-16.9V82.1h-12.9v4h-5V65.2h-17.4l-0.5,16.9h-29.9v16.9H670V82.1h-16.9V48.3h-16.9v16.9h-15.9v16.9h-26.9v9h-8V65.2h-33.8v16.9
				h16.9v16.9h-17.9V82.1h-16.9v16.9h9v9h-9v-9h-16.9V116h-16.9v16.9h-17.9V116h17.9V99.1h-17.9V82.1h-15.9v16.9H449V48.3h-9v8h-8v9
				h-17.9v16.9h-33.8V65.2h-34.8v16.9h-16.9v16.9h-16.9V116h-16.9V98.1h16.9V82.1h-33.8V65.2h-9v9h-8v8h-17.9V116h-33.8v16.9h-16.9
				V116h-17.9V82.1h-16.9V56.3h-8v-8h-8v33.8h-17.9v16.9h-16.9V65.2H89.6v16.9H54.8v16.9h17.9V116H54.8V99.1H37.8V82.1H24.9v4
				l-3-20.9H0v158.3H1439.6z M111.5,158.8h-10v-9h10V158.8z M145.3,123.9h-9v-9h9V123.9z M213,172.7h-9v-9h9V172.7z M281.7,125.9h-8
				v-9h8V125.9z M350.4,125.9h-9v-10h9V125.9z M412.2,165.8h4v4h-4V165.8z M385.3,132.9h-10v-9h10V132.9z M419.1,123.9h-9v-9h9
				V123.9z M453,132.9h-9v-9h9V132.9z M486.8,191.6h-9v-8h9V191.6z M589.4,158.8h-9v-8h9V158.8z M623.2,125.9h-8v-10h8V125.9z
				 M658.1,119h-5v-4h5V119z M825.3,158.8h-8v-9h8V158.8z M860.1,123.9h-9v-9h9V123.9z M928.8,172.7h-9v-9h9V172.7z M997.5,125.9h-9
				v-9h9V125.9z M1065.2,125.9h-9v-10h9V125.9z M1127,165.8h4v4h-4V165.8z M1099.1,132.9h-9v-9h9V132.9z M1132.9,123.9h-8v-9h8
				V123.9z M1167.8,132.9h-9v-9h9V132.9z M1201.6,191.6h-9v-8h9V191.6z M1303.2,158.8h-8v-8h8V158.8z M1338,125.9h-10v-10h10V125.9z
				 M1371.9,119h-4v-4h4V119z"/>
			<g id="Group-5-Copy-4" transform="translate(4.980147, 0.406217)">
				<polygon id="Fill-2_3_" class="st1" points="389.2,93.7 407.2,93.7 407.2,75.8 389.2,75.8 				"/>
				<polygon id="Fill-3_1_" class="st1" points="771.5,127.5 789.4,127.5 789.4,109.6 771.5,109.6 				"/>
				<polygon id="Fill-4_1_" class="st2" points="873.1,125.5 891,125.5 891,107.6 873.1,107.6 				"/>
				<polygon id="Fill-5_3_" class="st1" points="208,92.7 226,92.7 226,75.8 208,75.8 				"/>
				<polygon id="Fill-6_1_" class="st1" points="837.2,108.6 855.1,108.6 855.1,91.7 837.2,91.7 				"/>
				<polygon id="Fill-7_2_" class="st2" points="630.2,91.7 648.1,91.7 648.1,73.8 630.2,73.8 				"/>
				<polygon id="Fill-8_3_" class="st2" points="530.6,118.6 548.5,118.6 548.5,100.7 530.6,100.7 				"/>
				<polygon id="Fill-9_2_" class="st2" points="279.7,115.6 297.6,115.6 297.6,97.7 279.7,97.7 				"/>
				<polygon id="Fill-10_3_" class="st1" points="380.3,74.8 388.2,74.8 388.2,66.8 380.3,66.8 				"/>
				<polygon id="Fill-11_3_" class="st1" points="526.6,38.9 536.6,38.9 536.6,31 526.6,31 				"/>
				<polygon id="Fill-12_3_" class="st2" points="490.8,72.8 500.7,72.8 500.7,62.8 490.8,62.8 				"/>
				<polygon id="Fill-13_2_" class="st2" points="673,75.8 682.9,75.8 682.9,65.8 673,65.8 				"/>
				<polygon id="Fill-14_1_" class="st1" points="789.4,108.6 799.4,108.6 799.4,100.7 789.4,100.7 				"/>
				<polygon id="Fill-15_3_" class="st2" points="239.9,38.9 249.9,38.9 249.9,29 239.9,29 				"/>
				<polygon id="Fill-16_3_" class="st1" points="348.4,55.9 358.4,55.9 358.4,47.9 348.4,47.9 				"/>
				<polygon id="Fill-17_2_" class="st1" points="276.7,9.1 284.7,9.1 284.7,1.1 276.7,1.1 				"/>
				<polygon id="Fill-18_3_" class="st2" points="452,127.5 459.9,127.5 459.9,119.6 452,119.6 				"/>
				<polygon id="Fill-19_1_" class="st2" points="746.6,144.5 756.6,144.5 756.6,134.5 746.6,134.5 				"/>
				<polygon id="Fill-20_3_" class="st2" points="455.9,73.8 459.9,73.8 459.9,69.8 455.9,69.8 				"/>
				<polygon id="Fill-2_2_" class="st1" points="40.8,91.7 58.7,91.7 58.7,73.8 40.8,73.8 				"/>
				<polygon id="Fill-8_2_" class="st2" points="183.2,117.6 201.1,117.6 201.1,99.7 183.2,99.7 				"/>
				<polygon id="Fill-10_2_" class="st1" points="32.8,73.8 40.8,73.8 40.8,65.8 32.8,65.8 				"/>
				<polygon id="Fill-11_2_" class="st1" points="178.2,36.9 188.1,36.9 188.1,29 178.2,29 				"/>
				<polygon id="Fill-12_2_" class="st2" points="143.3,70.8 153.3,70.8 153.3,60.8 143.3,60.8 				"/>
				<polygon id="Fill-16_2_" class="st1" points="0,53.9 9.9,53.9 9.9,45.9 0,45.9 				"/>
				<polygon id="Fill-18_2_" class="st2" points="104.5,125.5 112.5,125.5 112.5,117.6 104.5,117.6 				"/>
				<polygon id="Fill-20_2_" class="st2" points="108.5,72.8 112.5,72.8 112.5,68.8 108.5,68.8 				"/>
				<polygon id="Fill-21_1_" class="st2" points="851.2,55.9 855.1,55.9 855.1,51.9 851.2,51.9 				"/>
				<polygon id="Fill-23_1_" class="st1" points="1370.8,73.8 1388.8,73.8 1388.8,55.9 1370.8,55.9 				"/>
				<polygon id="Fill-24_1_" class="st1" points="994.5,38.9 1012.4,38.9 1012.4,21 994.5,21 				"/>
				<polygon id="Fill-25_1_" class="st2" points="888,38.9 905.9,38.9 905.9,21 888,21 				"/>
				<polygon id="Fill-26_1_" class="st1" points="1416.6,19 1434.6,19 1434.6,1.1 1416.6,1.1 				"/>
				<polygon id="Fill-27_1_" class="st1" points="922.8,56.8 940.8,56.8 940.8,38.9 922.8,38.9 				"/>
				<polygon id="Fill-28_1_" class="st2" points="1124.9,73.8 1142.9,73.8 1142.9,55.9 1124.9,55.9 				"/>
				<polygon id="Fill-29_1_" class="st2" points="1245.4,38.9 1263.3,38.9 1263.3,21 1245.4,21 				"/>
				<polygon id="Fill-31_1_" class="st1" points="1388.8,81.7 1396.7,81.7 1396.7,73.8 1388.8,73.8 				"/>
				<polygon id="Fill-32_1_" class="st1" points="1241.4,118.6 1249.4,118.6 1249.4,108.6 1241.4,108.6 				"/>
				<polygon id="Fill-33_1_" class="st2" points="1276.3,85.7 1286.2,85.7 1286.2,75.8 1276.3,75.8 				"/>
				<polygon id="Fill-34_1_" class="st2" points="1097.1,83.7 1107,83.7 1107,73.8 1097.1,73.8 				"/>
				<polygon id="Fill-35_1_" class="st1" points="977.6,48.9 985.6,48.9 985.6,38.9 977.6,38.9 				"/>
				<polygon id="Fill-37_1_" class="st1" points="1419.6,100.7 1429.6,100.7 1429.6,90.7 1419.6,90.7 				"/>
				<polygon id="Fill-39_1_" class="st2" points="1317.1,29 1325,29 1325,21 1317.1,21 				"/>
				<polygon id="Fill-40_1_" class="st2" points="1021.4,11.1 1031.4,11.1 1031.4,1.1 1021.4,1.1 				"/>
				<polygon id="Fill-41_1_" class="st2" points="1317.1,77.8 1321.1,77.8 1321.1,73.8 1317.1,73.8 				"/>
				<polygon id="Fill-42_1_" class="st2" points="921.9,96.7 925.8,96.7 925.8,92.7 921.9,92.7 				"/>
			</g>
		</g>
	</g>
</g>
<rect y="19.9" class="st0" width="17.9" height="17.9"/>
</svg>
