<?xml version="1.0" encoding="utf-8"?>
<!-- Generator: Adobe Illustrator 25.2.3, SVG Export Plug-In . SVG Version: 6.00 Build 0)  -->
<svg version="1.1" id="Layer_1" xmlns="http://www.w3.org/2000/svg" xmlns:xlink="http://www.w3.org/1999/xlink" x="0px" y="0px"
	 viewBox="0 0 401.1 73" style="enable-background:new 0 0 401.1 73;" xml:space="preserve">
<style type="text/css">
	.st0{fill:url(#SVGID_1_);}
	.st1{fill:url(#SVGID_2_);}
	.st2{fill:url(#SVGID_3_);}
	.st3{fill:url(#SVGID_4_);}
	.st4{fill:url(#SVGID_5_);}
	.st5{fill:url(#SVGID_6_);}
	.st6{fill:url(#SVGID_7_);}
	.st7{opacity:0.8;fill:url(#SVGID_8_);enable-background:new    ;}
	.st8{opacity:0.8;fill:url(#SVGID_9_);enable-background:new    ;}
	.st9{opacity:0.8;fill:url(#SVGID_10_);enable-background:new    ;}
	.st10{opacity:0.8;fill:url(#SVGID_11_);enable-background:new    ;}
	.st11{opacity:0.8;fill:url(#SVGID_12_);enable-background:new    ;}
	.st12{opacity:0.8;fill:url(#SVGID_13_);enable-background:new    ;}
	.st13{opacity:0.8;fill:url(#SVGID_14_);enable-background:new    ;}
	.st14{opacity:0.8;fill:url(#SVGID_15_);enable-background:new    ;}
	.st15{opacity:0.8;fill:url(#SVGID_16_);enable-background:new    ;}
	.st16{opacity:0.8;fill:url(#SVGID_17_);enable-background:new    ;}
	.st17{opacity:0.8;fill:url(#SVGID_18_);enable-background:new    ;}
	.st18{opacity:0.8;fill:url(#SVGID_19_);enable-background:new    ;}
	.st19{opacity:0.8;fill:url(#SVGID_20_);enable-background:new    ;}
	.st20{opacity:0.8;fill:url(#SVGID_21_);}
	.st21{opacity:0.8;fill:url(#SVGID_22_);}
	.st22{opacity:0.8;fill:url(#SVGID_23_);}
	.st23{fill-rule:evenodd;clip-rule:evenodd;fill:url(#SVGID_24_);}
	.st24{opacity:0.8;fill:url(#SVGID_25_);}
	.st25{opacity:0.8;fill:url(#SVGID_26_);}
	.st26{opacity:0.8;fill:url(#SVGID_27_);}
	.st27{opacity:0.8;fill:url(#SVGID_28_);}
	.st28{opacity:0.8;fill:url(#SVGID_29_);}
	.st29{opacity:0.8;fill:url(#SVGID_30_);}
	.st30{opacity:0.8;fill-rule:evenodd;clip-rule:evenodd;fill:url(#Fill-5_1_);}
</style>
<desc>Created with Sketch.</desc>
<linearGradient id="SVGID_1_" gradientUnits="userSpaceOnUse" x1="96.3519" y1="16.4364" x2="260.1447" y2="16.4364">
	<stop  offset="0" style="stop-color:#7656F0"/>
	<stop  offset="1" style="stop-color:#0088FF"/>
</linearGradient>
<path class="st0" d="M97.2,4.4h3v24h-3V4.4z"/>
<linearGradient id="SVGID_2_" gradientUnits="userSpaceOnUse" x1="96.3519" y1="16.4364" x2="260.1447" y2="16.4364">
	<stop  offset="0" style="stop-color:#7656F0"/>
	<stop  offset="1" style="stop-color:#0088FF"/>
</linearGradient>
<path class="st1" d="M118.8,20.9h-0.6l-8.7-12.2v19.8h-3v-24h3.6l8.4,12.4l8.4-12.4h3.6v24h-3V8.8L118.8,20.9z"/>
<linearGradient id="SVGID_3_" gradientUnits="userSpaceOnUse" x1="96.3519" y1="16.4364" x2="260.1447" y2="16.4364">
	<stop  offset="0" style="stop-color:#7656F0"/>
	<stop  offset="1" style="stop-color:#0088FF"/>
</linearGradient>
<path class="st2" d="M148.4,4.4l10.8,24h-3.2l-2.4-5.3h-13.7l-2.3,5.3h-3.3l10.8-24H148.4z M146.7,7.4l-5.7,13h11.4L146.7,7.4z"/>
<linearGradient id="SVGID_4_" gradientUnits="userSpaceOnUse" x1="96.3519" y1="16.4364" x2="260.1447" y2="16.4364">
	<stop  offset="0" style="stop-color:#7656F0"/>
	<stop  offset="1" style="stop-color:#0088FF"/>
</linearGradient>
<path class="st3" d="M165,4.4l14.7,18.4V4.4h3v24h-2.1l-14.8-18.3v18.3h-3v-24H165z"/>
<linearGradient id="SVGID_5_" gradientUnits="userSpaceOnUse" x1="96.3519" y1="16.4196" x2="260.1447" y2="16.4196">
	<stop  offset="0" style="stop-color:#7656F0"/>
	<stop  offset="1" style="stop-color:#0088FF"/>
</linearGradient>
<path class="st4" d="M189.1,4.4h8.8c8.2,0,12.1,5.8,12.1,11.8c0,6.1-3.7,12.3-12.1,12.3h-8.8V4.4L189.1,4.4z M207,16.1
	c0-4.5-3-8.9-9.1-8.9h-5.8v18.2h5.8C204.3,25.5,207,20.7,207,16.1z"/>
<linearGradient id="SVGID_6_" gradientUnits="userSpaceOnUse" x1="96.3519" y1="16.4364" x2="260.1447" y2="16.4364">
	<stop  offset="0" style="stop-color:#7656F0"/>
	<stop  offset="1" style="stop-color:#0088FF"/>
</linearGradient>
<path class="st5" d="M223.8,19.8H218v8.6h-3v-24h10.9c5.4,0,8.1,3.8,8.1,7.7c0,3.6-2,7-6.9,7.4l7.9,8.9h-3.8L223.8,19.8z
	 M231.1,12.2c0-2.4-1.7-5.1-5.1-5.1H218v10h7.8C229.4,17.1,231.1,14.9,231.1,12.2z"/>
<linearGradient id="SVGID_7_" gradientUnits="userSpaceOnUse" x1="96.3519" y1="16.4364" x2="260.1447" y2="16.4364">
	<stop  offset="0" style="stop-color:#7656F0"/>
	<stop  offset="1" style="stop-color:#0088FF"/>
</linearGradient>
<path class="st6" d="M251.9,4.4l10.8,24h-3.2l-2.4-5.3h-13.7l-2.3,5.3h-3.3l10.8-24H251.9z M250.3,7.4l-5.7,13h11.4L250.3,7.4z"/>
<linearGradient id="SVGID_8_" gradientUnits="userSpaceOnUse" x1="96.3519" y1="57.6202" x2="397.5107" y2="57.6202">
	<stop  offset="0" style="stop-color:#0088FF"/>
	<stop  offset="1" style="stop-color:#00F0B4"/>
</linearGradient>
<path class="st7" d="M97.2,45.6h8.8c8.2,0,12.1,5.8,12.1,11.8c0,6.1-3.7,12.3-12.1,12.3h-8.8V45.6L97.2,45.6z M115,57.3
	c0-4.5-3-8.9-9.1-8.9h-5.8v18.2h5.8C112.3,66.7,115,61.9,115,57.3z"/>
<linearGradient id="SVGID_9_" gradientUnits="userSpaceOnUse" x1="96.3519" y1="57.6719" x2="397.5107" y2="57.6719">
	<stop  offset="0" style="stop-color:#0088FF"/>
	<stop  offset="1" style="stop-color:#00F0B4"/>
</linearGradient>
<path class="st8" d="M146,57.7c0,6.3-3.9,12.4-12.2,12.4s-12.2-6.1-12.2-12.4c0-7,4.7-12.5,12.2-12.5C142,45.2,146.1,51.4,146,57.7z
	 M133.9,48c-6.1,0-9.3,4.5-9.3,9.7c0,4.9,3,9.6,9.3,9.6c6.3,0,9.2-4.9,9.2-9.6C143.1,52.8,140.2,48,133.9,48z"/>
<linearGradient id="SVGID_10_" gradientUnits="userSpaceOnUse" x1="96.3519" y1="57.637" x2="397.5107" y2="57.637">
	<stop  offset="0" style="stop-color:#0088FF"/>
	<stop  offset="1" style="stop-color:#00F0B4"/>
</linearGradient>
<path class="st9" d="M162.1,70c-8.5,0-12.5-5.9-12.5-12.3c-0.1-6.3,4.1-12.5,12.5-12.5c3.2,0,6.3,1.2,8.8,3.6l-2.1,1.9
	c-1.9-1.8-4.3-2.7-6.7-2.7c-6.4,0-9.6,4.7-9.5,9.6c0.1,4.9,3.1,9.4,9.5,9.4c2.4,0,5-1,6.8-2.8l2.1,2.1C168.6,68.9,165.4,70,162.1,70
	z"/>
<linearGradient id="SVGID_11_" gradientUnits="userSpaceOnUse" x1="96.3519" y1="57.8598" x2="397.5107" y2="57.8598">
	<stop  offset="0" style="stop-color:#0088FF"/>
	<stop  offset="1" style="stop-color:#00F0B4"/>
</linearGradient>
<path class="st10" d="M194.5,45.7v14.4c0,6.7-4.5,10-9.7,10c-5.1,0-9.8-3.3-9.8-10V45.7h3v14.4c0,4.8,3.2,7.3,6.9,7.3
	c3.7,0,6.8-2.6,6.8-7.3V45.6L194.5,45.7L194.5,45.7z"/>
<linearGradient id="SVGID_12_" gradientUnits="userSpaceOnUse" x1="96.3519" y1="57.637" x2="397.5107" y2="57.637">
	<stop  offset="0" style="stop-color:#0088FF"/>
	<stop  offset="1" style="stop-color:#00F0B4"/>
</linearGradient>
<path class="st11" d="M213,62.1h-0.6l-8.7-12.2v19.8h-3v-24h3.6l8.4,12.4l8.4-12.4h3.6v24h-3V50L213,62.1z"/>
<linearGradient id="SVGID_13_" gradientUnits="userSpaceOnUse" x1="96.3519" y1="57.637" x2="397.5107" y2="57.637">
	<stop  offset="0" style="stop-color:#0088FF"/>
	<stop  offset="1" style="stop-color:#00F0B4"/>
</linearGradient>
<path class="st12" d="M231.2,45.6h16.9v2.7h-13.9v7.5h13.3v2.8h-13.3v8.1h14.5v2.8h-17.4V45.6z"/>
<linearGradient id="SVGID_14_" gradientUnits="userSpaceOnUse" x1="96.3519" y1="57.637" x2="397.5107" y2="57.637">
	<stop  offset="0" style="stop-color:#0088FF"/>
	<stop  offset="1" style="stop-color:#00F0B4"/>
</linearGradient>
<path class="st13" d="M255.4,45.6L270.2,64V45.6h3v24h-2.1l-14.8-18.3v18.3h-3v-24H255.4z"/>
<linearGradient id="SVGID_15_" gradientUnits="userSpaceOnUse" x1="96.3519" y1="57.637" x2="397.5107" y2="57.637">
	<stop  offset="0" style="stop-color:#0088FF"/>
	<stop  offset="1" style="stop-color:#00F0B4"/>
</linearGradient>
<path class="st14" d="M276.8,48.3v-2.7h19.4v2.7H288v21.3h-3V48.3H276.8z"/>
<linearGradient id="SVGID_16_" gradientUnits="userSpaceOnUse" x1="96.3519" y1="57.637" x2="397.5107" y2="57.637">
	<stop  offset="0" style="stop-color:#0088FF"/>
	<stop  offset="1" style="stop-color:#00F0B4"/>
</linearGradient>
<path class="st15" d="M308.6,45.6l10.8,24h-3.2l-2.4-5.3h-13.7l-2.3,5.3h-3.3l10.8-24H308.6z M306.9,48.6l-5.7,13h11.4L306.9,48.6z"
	/>
<linearGradient id="SVGID_17_" gradientUnits="userSpaceOnUse" x1="96.3519" y1="57.637" x2="397.5107" y2="57.637">
	<stop  offset="0" style="stop-color:#0088FF"/>
	<stop  offset="1" style="stop-color:#00F0B4"/>
</linearGradient>
<path class="st16" d="M317.7,48.3v-2.7h19.4v2.7h-8.2v21.3h-3V48.3H317.7z"/>
<linearGradient id="SVGID_18_" gradientUnits="userSpaceOnUse" x1="96.3519" y1="57.637" x2="397.5107" y2="57.637">
	<stop  offset="0" style="stop-color:#0088FF"/>
	<stop  offset="1" style="stop-color:#00F0B4"/>
</linearGradient>
<path class="st17" d="M340.8,45.6h3v24h-3V45.6z"/>
<linearGradient id="SVGID_19_" gradientUnits="userSpaceOnUse" x1="96.3519" y1="57.6719" x2="397.5107" y2="57.6719">
	<stop  offset="0" style="stop-color:#0088FF"/>
	<stop  offset="1" style="stop-color:#00F0B4"/>
</linearGradient>
<path class="st18" d="M373.2,57.7c0,6.3-3.9,12.4-12.2,12.4c-8.2,0-12.2-6.1-12.2-12.4c0-7,4.7-12.5,12.2-12.5
	C369.2,45.2,373.2,51.4,373.2,57.7z M361,48c-6.1,0-9.3,4.5-9.3,9.7c0,4.9,3,9.6,9.3,9.6s9.2-4.9,9.2-9.6
	C370.2,52.8,367.3,48,361,48z"/>
<linearGradient id="SVGID_20_" gradientUnits="userSpaceOnUse" x1="96.3519" y1="57.637" x2="397.5107" y2="57.637">
	<stop  offset="0" style="stop-color:#0088FF"/>
	<stop  offset="1" style="stop-color:#00F0B4"/>
</linearGradient>
<path class="st19" d="M380.3,45.6L395.1,64V45.6h3v24h-2.1l-14.8-18.3v18.3h-3v-24H380.3z"/>
<linearGradient id="SVGID_21_" gradientUnits="userSpaceOnUse" x1="3574.5132" y1="401.8818" x2="3626.428" y2="349.967" gradientTransform="matrix(0 1 -1 0 410.2137 -3562.0991)">
	<stop  offset="0" style="stop-color:#0088FF"/>
	<stop  offset="1" style="stop-color:#00F0B4"/>
</linearGradient>
<path class="st20" d="M56.8,9v57c0,3.9-3.1,7-7,7H17c-3.9,0-7-3.1-7-7V9c0-3.9,3.1-7,7-7h32.8C53.6,2,56.8,5.1,56.8,9z"/>
<linearGradient id="SVGID_22_" gradientUnits="userSpaceOnUse" x1="3572.2681" y1="399.4279" x2="3624.1829" y2="347.513" gradientTransform="matrix(0 1 -1 0 410.2137 -3562.0991)">
	<stop  offset="0" style="stop-color:#7656F0"/>
	<stop  offset="1" style="stop-color:#0088FF"/>
</linearGradient>
<path class="st21" d="M59.2,6.7v57c0,3.9-3.1,7-7,7H19.5c-3.9,0-7-3.1-7-7v-57c0-3.9,3.1-7,7-7h32.8C56.1-0.3,59.2,2.9,59.2,6.7z"/>
<linearGradient id="SVGID_23_" gradientUnits="userSpaceOnUse" x1="-2.5317" y1="30.9909" x2="24.6773" y2="8.4732">
	<stop  offset="0" style="stop-color:#0088FF"/>
	<stop  offset="1" style="stop-color:#00F0B4"/>
</linearGradient>
<path class="st22" d="M26.9,26L5.3,38.5c-2.2,1.3-4.9-0.3-4.9-2.9v-25c0-2.5,2.7-4.1,4.9-2.9l21.6,12.5C29.1,21.6,29.1,24.8,26.9,26
	z"/>
<linearGradient id="SVGID_24_" gradientUnits="userSpaceOnUse" x1="18.8791" y1="23.1731" x2="8.1293" y2="23.1731">
	<stop  offset="5.339492e-03" style="stop-color:#78FF80"/>
	<stop  offset="1" style="stop-color:#F0E566"/>
</linearGradient>
<path class="st23" d="M13.3,17.4c-3.2,0-5.7,2.6-5.7,5.8c0,3.2,2.6,5.8,5.8,5.8c3.2,0,5.7-2.6,5.7-5.8c0-3.2-2.6-5.7-5.7-5.8H13.3z"
	/>
<linearGradient id="SVGID_25_" gradientUnits="userSpaceOnUse" x1="-1068.7349" y1="209.0047" x2="-1036.6639" y2="209.0047" gradientTransform="matrix(0.3888 -0.9213 0.9213 0.3888 275.6968 -1027.9618)">
	<stop  offset="0" style="stop-color:#F0567E"/>
	<stop  offset="1" style="stop-color:#9C56AA"/>
</linearGradient>
<path class="st24" d="M42.5,25.5c0,0.3,0.2,0.5,0.5,0.5l4,0.5c0.3,1,0.7,1.9,1.2,2.8l-2.4,3.2c-0.2,0.2-0.2,0.5,0,0.7
	c0.9,1.2,2,2.3,3.2,3.2c0.2,0.2,0.5,0.2,0.7,0l3.2-2.4c0.9,0.5,1.8,0.9,2.8,1.2l0.5,3.9c0,0.3,0.2,0.5,0.5,0.5c1.6,0.2,3,0.2,4.6,0
	c0.3,0,0.5-0.2,0.5-0.5l0.5-3.9c1-0.3,1.9-0.7,2.8-1.2l3.2,2.4c0.2,0.2,0.5,0.2,0.7,0c1.2-0.9,2.3-2,3.2-3.2c0.2-0.2,0.2-0.5,0-0.7
	l-2.4-3.1c0.5-0.9,0.9-1.8,1.2-2.8l4-0.5c0.3,0,0.5-0.2,0.5-0.5c0.2-1.5,0.2-3,0-4.6c0-0.3-0.2-0.5-0.5-0.5l-4-0.5
	c-0.3-1-0.7-1.9-1.2-2.8l2.4-3.2c0.2-0.2,0.2-0.5,0-0.7c-0.9-1.2-2-2.3-3.2-3.2c-0.2-0.2-0.5-0.2-0.7,0l-3.2,2.4
	c-0.9-0.5-1.9-0.9-2.8-1.2l-0.5-3.9c0-0.3-0.2-0.5-0.5-0.5c-0.8-0.1-1.5-0.2-2.3-0.2c-0.8,0-1.5,0.1-2.3,0.2c-0.3,0-0.5,0.2-0.5,0.5
	l-0.5,3.9c-1,0.3-1.9,0.7-2.8,1.2L49.6,10c-0.2-0.2-0.5-0.2-0.7,0c-1.2,0.9-2.3,2-3.2,3.2c-0.2,0.2-0.2,0.5,0,0.7l2.4,3.1
	c-0.5,0.9-0.9,1.8-1.2,2.8l-4,0.5c-0.3,0-0.5,0.2-0.5,0.5C42.3,22.5,42.3,23.9,42.5,25.5z M58.9,17.8c3,0,5.4,2.4,5.4,5.3
	c0,2.9-2.4,5.3-5.3,5.3c-3,0-5.4-2.4-5.4-5.3C53.6,20.2,56,17.8,58.9,17.8z"/>
<linearGradient id="SVGID_26_" gradientUnits="userSpaceOnUse" x1="20.5082" y1="45.1541" x2="52.7621" y2="45.1541">
	<stop  offset="5.339492e-03" style="stop-color:#78FF80"/>
	<stop  offset="1" style="stop-color:#F0E566"/>
</linearGradient>
<path class="st25" d="M51.5,46.4H21.8c-0.7,0-1.3-0.6-1.3-1.3v0c0-0.7,0.6-1.3,1.3-1.3h29.7c0.7,0,1.3,0.6,1.3,1.3v0
	C52.8,45.9,52.2,46.4,51.5,46.4z"/>
<linearGradient id="SVGID_27_" gradientUnits="userSpaceOnUse" x1="20.5082" y1="49.2067" x2="52.7621" y2="49.2067">
	<stop  offset="5.339492e-03" style="stop-color:#78FF80"/>
	<stop  offset="1" style="stop-color:#F0E566"/>
</linearGradient>
<path class="st26" d="M51.5,50.5H21.8c-0.7,0-1.3-0.6-1.3-1.3l0,0c0-0.7,0.6-1.3,1.3-1.3h29.7c0.7,0,1.3,0.6,1.3,1.3l0,0
	C52.8,49.9,52.2,50.5,51.5,50.5z"/>
<linearGradient id="SVGID_28_" gradientUnits="userSpaceOnUse" x1="20.5082" y1="53.2593" x2="52.7621" y2="53.2593">
	<stop  offset="5.339492e-03" style="stop-color:#78FF80"/>
	<stop  offset="1" style="stop-color:#F0E566"/>
</linearGradient>
<path class="st27" d="M51.5,54.5H21.8c-0.7,0-1.3-0.6-1.3-1.3l0,0c0-0.7,0.6-1.3,1.3-1.3h29.7c0.7,0,1.3,0.6,1.3,1.3l0,0
	C52.8,54,52.2,54.5,51.5,54.5z"/>
<linearGradient id="SVGID_29_" gradientUnits="userSpaceOnUse" x1="20.5082" y1="57.3119" x2="52.7621" y2="57.3119">
	<stop  offset="5.339492e-03" style="stop-color:#78FF80"/>
	<stop  offset="1" style="stop-color:#F0E566"/>
</linearGradient>
<path class="st28" d="M51.5,58.6H21.8c-0.7,0-1.3-0.6-1.3-1.3v0c0-0.7,0.6-1.3,1.3-1.3h29.7c0.7,0,1.3,0.6,1.3,1.3v0
	C52.8,58,52.2,58.6,51.5,58.6z"/>
<linearGradient id="SVGID_30_" gradientUnits="userSpaceOnUse" x1="20.5082" y1="61.3645" x2="36.7381" y2="61.3645">
	<stop  offset="5.339492e-03" style="stop-color:#78FF80"/>
	<stop  offset="1" style="stop-color:#F0E566"/>
</linearGradient>
<path class="st29" d="M35.5,62.6H21.8c-0.7,0-1.3-0.6-1.3-1.3v0c0-0.7,0.6-1.3,1.3-1.3h13.7c0.7,0,1.3,0.6,1.3,1.3v0
	C36.7,62.1,36.2,62.6,35.5,62.6z"/>
<linearGradient id="Fill-5_1_" gradientUnits="userSpaceOnUse" x1="35.6057" y1="15.8971" x2="35.6057" y2="31.6736">
	<stop  offset="0" style="stop-color:#F0AA3D"/>
	<stop  offset="1" style="stop-color:#F0567E"/>
</linearGradient>
<path id="Fill-5_9_" class="st30" d="M35.6,15.4c1.9,0,3.3,1.4,3.3,3.3v9.9c0,1.9-1.4,3.3-3.3,3.3c-1.9,0-3.3-1.4-3.3-3.3v-9.9
	C32.3,16.8,33.7,15.4,35.6,15.4"/>
</svg>
