<?xml version="1.0" encoding="UTF-8"?>
<svg width="374px" height="73px" viewBox="0 0 374 73" version="1.1" xmlns="http://www.w3.org/2000/svg" xmlns:xlink="http://www.w3.org/1999/xlink">
    <!-- Generator: Sketch 48.2 (47327) - http://www.bohemiancoding.com/sketch -->
    <title>Group 2</title>
    <desc>Created with Sketch.</desc>
    <defs></defs>
    <g id="fix-engine" stroke="none" stroke-width="1" fill="none" fill-rule="evenodd" transform="translate(-223.000000, -85.000000)">
        <g id="Group-7" transform="translate(222.949219, 85.280456)">
            <g id="Group-2">
                <path d="M99.90625,2.75976562 L99.90625,31 L96.7333984,31 L96.7333984,2.75976562 L99.90625,2.75976562 Z M131.226562,9.53222656 C132.698575,9.53222656 133.870601,9.80435926 134.742676,10.3486328 C135.61475,10.8929064 136.251788,11.7742452 136.653809,12.9926758 C137.055829,14.2111064 137.256836,15.8655494 137.256836,17.9560547 L137.256836,31 L134.176758,31 L134.176758,18.1044922 C134.176758,16.6572193 134.071616,15.5099326 133.861328,14.6625977 C133.651041,13.8152627 133.236657,13.17204 132.618164,12.7329102 C131.999671,12.2937804 131.090501,12.0927733 129.890625,12.1298828 C128.962886,12.1422527 127.95785,12.3710915 126.875488,12.8164062 C125.793126,13.261721 124.81283,13.7874319 123.93457,14.3935547 C124.083009,15.3707731 124.157227,16.5273371 124.157227,17.8632812 L124.157227,31 L121.058594,31 L121.058594,18.0673828 C121.058594,16.5706305 120.950359,15.3955121 120.733887,14.5419922 C120.517414,13.6884723 120.109215,13.0638041 119.509277,12.6679688 C118.909339,12.2721334 118.04037,12.0989581 116.902344,12.1484375 C115.962235,12.1855471 114.901536,12.4484025 113.720215,12.9370117 C112.538894,13.4256209 111.527673,14.0162726 110.686523,14.7089844 L110.686523,31 L107.587891,31 L107.587891,9.86621094 L110.352539,9.86621094 L110.371094,12.5751953 C110.940107,12.1175107 111.654455,11.659833 112.51416,11.2021484 C113.373865,10.7444639 114.298498,10.3548193 115.288086,10.0332031 C116.277674,9.71158693 117.230139,9.54459642 118.145508,9.53222656 C119.518562,9.50748686 120.625647,9.71158638 121.466797,10.1445312 C122.307947,10.5774761 122.944985,11.3134714 123.37793,12.3525391 C124.355148,11.6103479 125.558098,10.9547554 126.986816,10.3857422 C128.415534,9.81672893 129.828769,9.53222656 131.226562,9.53222656 Z M151.432617,9.53222656 C152.991219,9.53222656 154.293126,9.71467917 155.338379,10.0795898 C156.383632,10.4445005 157.196937,11.1000929 157.77832,12.0463867 C158.359703,12.9926805 158.650391,14.3193274 158.650391,16.0263672 L158.650391,31.296875 L157.388672,31.296875 C156.980467,31.296875 156.66504,31.2659508 156.442383,31.2041016 C156.219725,31.1422523 156.049643,31.0061859 155.932129,30.7958984 C155.814615,30.5856109 155.755859,30.2578147 155.755859,29.8125 L155.755859,29.0332031 C155.087887,29.6393259 154.172532,30.1681293 153.009766,30.6196289 C151.846999,31.0711286 150.572924,31.296875 149.1875,31.296875 C147.938145,31.296875 146.824875,31.0618513 145.847656,30.5917969 C144.870438,30.1217424 144.109703,29.4414107 143.56543,28.5507812 C143.021156,27.6601518 142.749023,26.6149149 142.749023,25.4150391 C142.749023,24.0419853 143.135576,22.8668669 143.908691,21.8896484 C144.681807,20.91243 145.816724,20.1455106 147.313477,19.5888672 C148.451503,19.1682922 149.787427,18.8559581 151.321289,18.6518555 C152.855151,18.4477529 154.271478,18.3457031 155.570312,18.3457031 L155.570312,15.8964844 C155.570312,14.7955674 155.384767,13.95443 155.013672,13.3730469 C154.642576,12.7916638 154.107588,12.3989268 153.408691,12.1948242 C152.709795,11.9907216 151.785162,11.8886719 150.634766,11.8886719 C149.954424,11.8886719 149.202966,11.9814444 148.380371,12.1669922 C147.557776,12.35254 146.787764,12.5844713 146.070312,12.862793 C145.352861,13.1411147 144.802411,13.4163398 144.418945,13.6884766 L143.658203,11.6474609 C143.967449,11.4371734 144.536454,11.1650407 145.365234,10.8310547 C146.194015,10.4970686 147.152664,10.1971042 148.241211,9.93115234 C149.329758,9.66520049 150.393549,9.53222656 151.432617,9.53222656 Z M150.09668,28.9775391 C150.91309,28.9775391 151.704749,28.8693045 152.47168,28.652832 C153.238611,28.4363596 153.900388,28.1827814 154.457031,27.8920898 C155.013675,27.6013983 155.384765,27.3509125 155.570312,27.140625 L155.570312,20.3310547 C154.593094,20.3310547 153.458177,20.4114575 152.165527,20.5722656 C150.872878,20.7330737 149.824548,20.9804671 149.020508,21.3144531 C147.944331,21.7226583 147.140302,22.2390919 146.608398,22.8637695 C146.076495,23.4884471 145.810547,24.258459 145.810547,25.1738281 C145.810547,26.3489642 146.15999,27.2766893 146.858887,27.9570312 C147.557783,28.6373732 148.637037,28.9775391 150.09668,28.9775391 Z M168.298828,9.86621094 L168.317383,12.5751953 C169.331711,11.8206342 170.565585,11.1248404 172.019043,10.487793 C173.472501,9.85074551 174.90429,9.53222656 176.314453,9.53222656 C177.811205,9.53222656 179.001786,9.80745167 179.88623,10.3579102 C180.770675,10.9083686 181.413898,11.7897075 181.815918,13.0019531 C182.217938,14.2141988 182.418945,15.8531798 182.418945,17.9189453 L182.418945,31 L179.320312,31 L179.320312,17.9003906 C179.320312,16.4407479 179.193523,15.2903688 178.939941,14.4492188 C178.686359,13.6080687 178.234867,12.9957701 177.585449,12.6123047 C176.936032,12.2288392 176.011399,12.0618487 174.811523,12.1113281 C173.859045,12.123698 172.807623,12.3865534 171.657227,12.8999023 C170.50683,13.4132513 169.498702,14.0162726 168.632812,14.7089844 L168.632812,31 L165.53418,31 L165.53418,9.86621094 L168.298828,9.86621094 Z M205.500977,0.125 L205.500977,31.2226562 L204.165039,31.2226562 C203.620766,31.2226562 203.221844,31.1422534 202.968262,30.9814453 C202.71468,30.8206372 202.587891,30.4742865 202.587891,29.9423828 L202.587891,28.6621094 C201.83333,29.3919307 200.942713,30.0135065 199.916016,30.5268555 C198.889318,31.0402044 197.615242,31.296875 196.09375,31.296875 C194.584628,31.296875 193.199225,30.9319698 191.9375,30.2021484 C190.675775,29.4723271 189.661462,28.3435949 188.894531,26.815918 C188.1276,25.2882411 187.744141,23.3864046 187.744141,21.1103516 C187.744141,18.8714081 188.186356,16.8767991 189.070801,15.1264648 C189.955245,13.3761306 191.201489,12.0092823 192.80957,11.0258789 C194.417651,10.0424756 196.266917,9.55078125 198.357422,9.55078125 C199.866544,9.55078125 201.233392,9.78580494 202.458008,10.2558594 L202.402344,8.99414062 L202.402344,0.125 L205.500977,0.125 Z M190.916992,20.6835938 C190.879883,23.3802218 191.390131,25.4181246 192.447754,26.7973633 C193.505376,28.1766019 194.999014,28.8662109 196.928711,28.8662109 C198.029628,28.8662109 199.050126,28.6528342 199.990234,28.2260742 C200.930343,27.7993143 201.734372,27.30762 202.402344,26.7509766 L202.402344,12.8349609 C202.031248,12.5257146 201.48389,12.2783212 200.760254,12.0927734 C200.036617,11.9072256 199.136724,11.8144531 198.060547,11.8144531 C196.699863,11.8144531 195.484543,12.1638962 194.414551,12.862793 C193.344558,13.5616897 192.497236,14.5821873 191.872559,15.9243164 C191.247881,17.2664455 190.929362,18.8528554 190.916992,20.6835938 Z M221.532227,9.55078125 C222.484705,9.55078125 223.152667,9.63118409 223.536133,9.79199219 L223.536133,12.7050781 C222.991859,12.4205715 222.138352,12.2783203 220.975586,12.2783203 C219.862299,12.2783203 218.810877,12.5257137 217.821289,13.0205078 C216.831701,13.515302 216.015303,14.0843067 215.37207,14.7275391 L215.37207,31 L212.273438,31 L212.273438,9.86621094 L214.908203,9.86621094 L215.09375,12.6865234 C215.415366,12.2659484 215.91943,11.8113631 216.605957,11.3227539 C217.292484,10.8341447 218.071773,10.4166684 218.943848,10.0703125 C219.815922,9.7239566 220.678707,9.55078125 221.532227,9.55078125 Z M234.891602,9.53222656 C236.450203,9.53222656 237.752111,9.71467917 238.797363,10.0795898 C239.842616,10.4445005 240.655922,11.1000929 241.237305,12.0463867 C241.818688,12.9926805 242.109375,14.3193274 242.109375,16.0263672 L242.109375,31.296875 L240.847656,31.296875 C240.439451,31.296875 240.124025,31.2659508 239.901367,31.2041016 C239.67871,31.1422523 239.508627,31.0061859 239.391113,30.7958984 C239.2736,30.5856109 239.214844,30.2578147 239.214844,29.8125 L239.214844,29.0332031 C238.546872,29.6393259 237.631516,30.1681293 236.46875,30.6196289 C235.305984,31.0711286 234.031908,31.296875 232.646484,31.296875 C231.397129,31.296875 230.283859,31.0618513 229.306641,30.5917969 C228.329422,30.1217424 227.568688,29.4414107 227.024414,28.5507812 C226.480141,27.6601518 226.208008,26.6149149 226.208008,25.4150391 C226.208008,24.0419853 226.59456,22.8668669 227.367676,21.8896484 C228.140792,20.91243 229.275709,20.1455106 230.772461,19.5888672 C231.910487,19.1682922 233.246412,18.8559581 234.780273,18.6518555 C236.314135,18.4477529 237.730462,18.3457031 239.029297,18.3457031 L239.029297,15.8964844 C239.029297,14.7955674 238.843752,13.95443 238.472656,13.3730469 C238.101561,12.7916638 237.566573,12.3989268 236.867676,12.1948242 C236.168779,11.9907216 235.244146,11.8886719 234.09375,11.8886719 C233.413408,11.8886719 232.661951,11.9814444 231.839355,12.1669922 C231.01676,12.35254 230.246748,12.5844713 229.529297,12.862793 C228.811845,13.1411147 228.261395,13.4163398 227.87793,13.6884766 L227.117188,11.6474609 C227.426434,11.4371734 227.995439,11.1650407 228.824219,10.8310547 C229.652999,10.4970686 230.611648,10.1971042 231.700195,9.93115234 C232.788742,9.66520049 233.852534,9.53222656 234.891602,9.53222656 Z M233.555664,28.9775391 C234.372074,28.9775391 235.163733,28.8693045 235.930664,28.652832 C236.697595,28.4363596 237.359372,28.1827814 237.916016,27.8920898 C238.472659,27.6013983 238.843749,27.3509125 239.029297,27.140625 L239.029297,20.3310547 C238.052078,20.3310547 236.917161,20.4114575 235.624512,20.5722656 C234.331862,20.7330737 233.283533,20.9804671 232.479492,21.3144531 C231.403315,21.7226583 230.599287,22.2390919 230.067383,22.8637695 C229.535479,23.4884471 229.269531,24.258459 229.269531,25.1738281 C229.269531,26.3489642 229.618974,27.2766893 230.317871,27.9570312 C231.016768,28.6373732 232.096021,28.9775391 233.555664,28.9775391 Z M96.4550781,43.7597656 C97.7786525,43.7597656 98.5208325,43.7535808 98.6816406,43.7412109 C99.2011745,43.7412109 100.1289,43.7041019 101.464844,43.6298828 C103.196623,43.5432938 104.359372,43.5 104.953125,43.5 C107.90952,43.5 110.383454,44.0318957 112.375,45.0957031 C114.366546,46.1595105 115.857091,47.7026266 116.84668,49.7250977 C117.836268,51.7475687 118.32487,54.1936705 118.3125,57.0634766 C118.3125,60.1312002 117.783697,62.8092333 116.726074,65.0976562 C115.668452,67.3860792 114.122243,69.1580341 112.087402,70.4135742 C110.052561,71.6691144 107.618829,72.296875 104.786133,72.296875 C104.316078,72.296875 103.338875,72.259766 101.854492,72.1855469 C100.617507,72.0989579 99.5042367,72.0494792 98.5146484,72.0371094 C98.0198543,72.0123697 97.3333377,72 96.4550781,72 L96.4550781,43.7597656 Z M104.97168,69.9589844 C107.012706,69.9342447 108.787753,69.4672897 110.296875,68.5581055 C111.805997,67.6489212 112.974931,66.260426 113.803711,64.3925781 C114.632491,62.5247302 115.046875,60.1930478 115.046875,57.3974609 C115.046875,53.3648887 114.153166,50.4209077 112.365723,48.5654297 C110.578279,46.7099517 107.860044,45.7822266 104.210938,45.7822266 C102.837884,45.7822266 101.29786,45.8688142 99.5908203,46.0419922 L99.5908203,69.625 C100.308272,69.7239588 101.183426,69.8074541 102.216309,69.8754883 C103.249191,69.9435225 104.167639,69.9713542 104.97168,69.9589844 Z M122.023438,61.2753906 C122.023438,59.0364471 122.437821,57.1098714 123.266602,55.4956055 C124.095382,53.8813396 125.236484,52.65365 126.689941,51.8125 C128.143399,50.97135 129.791657,50.5507812 131.634766,50.5507812 C133.712901,50.5507812 135.43847,51.0362907 136.811523,52.0073242 C138.184577,52.9783577 139.195798,54.2864501 139.845215,55.9316406 C140.494632,57.5768311 140.819336,59.4260965 140.819336,61.4794922 C140.819336,63.7184357 140.411137,65.6542887 139.594727,67.2871094 C138.778316,68.91993 137.646492,70.1630817 136.199219,71.0166016 C134.751946,71.8701215 133.100595,72.296875 131.245117,72.296875 C129.129872,72.296875 127.382657,71.8020883 126.003418,70.8125 C124.624179,69.8229117 123.616051,68.5024497 122.979004,66.8510742 C122.341956,65.1996988 122.023438,63.3411562 122.023438,61.2753906 Z M137.683594,61.5166016 C137.683594,59.8466713 137.457847,58.3561263 137.006348,57.0449219 C136.554848,55.7337174 135.862147,54.6977577 134.928223,53.9370117 C133.994299,53.1762657 132.840827,52.7958984 131.467773,52.7958984 C130.156569,52.7958984 129.030929,53.1267871 128.09082,53.7885742 C127.150711,54.4503614 126.430178,55.4059182 125.929199,56.6552734 C125.42822,57.9046286 125.177734,59.4013585 125.177734,61.1455078 C125.177734,62.815438 125.403481,64.3245375 125.85498,65.6728516 C126.30648,67.0211656 126.999182,68.0942343 127.933105,68.8920898 C128.867029,69.6899454 130.026686,70.0888672 131.412109,70.0888672 C132.735684,70.0888672 133.867508,69.7425165 134.807617,69.0498047 C135.747726,68.3570929 136.462074,67.3675195 136.950684,66.0810547 C137.439293,64.7945899 137.683594,63.2731208 137.683594,61.5166016 Z M154.716797,50.5507812 C155.867193,50.5507812 156.906245,50.6621083 157.833984,50.8847656 C158.761723,51.107423 159.43587,51.3610012 159.856445,51.6455078 L159.318359,54.0947266 C158.811195,53.723631 158.143233,53.4391286 157.314453,53.2412109 C156.485673,53.0432933 155.564133,52.9443359 154.549805,52.9443359 C153.325189,52.9443359 152.196457,53.2659473 151.163574,53.9091797 C150.130691,54.5524121 149.301924,55.5172462 148.677246,56.8037109 C148.052568,58.0901757 147.740234,59.6611235 147.740234,61.5166016 C147.740234,63.33497 148.037106,64.8780861 148.630859,66.1459961 C149.224612,67.4139061 150.022456,68.3663705 151.024414,69.003418 C152.026372,69.6404654 153.133457,69.9589844 154.345703,69.9589844 C155.44662,69.9589844 156.47021,69.8074559 157.416504,69.5043945 C158.362798,69.2013331 159.12044,68.8642597 159.689453,68.4931641 L160.338867,70.2744141 C159.670895,70.8929067 158.758632,71.384601 157.602051,71.7495117 C156.445469,72.1144224 155.20541,72.296875 153.881836,72.296875 C151.989248,72.296875 150.35336,71.8422897 148.974121,70.9331055 C147.594882,70.0239212 146.543461,68.7714924 145.819824,67.1757812 C145.096188,65.5800701 144.734375,63.7679138 144.734375,61.7392578 C144.722005,59.5869033 145.105465,57.6634199 145.884766,55.96875 C146.664066,54.2740801 147.805168,52.9474332 149.308105,51.9887695 C150.811043,51.0301059 152.613922,50.5507812 154.716797,50.5507812 Z M181.287109,50.8476562 L181.287109,72.2226562 L180.099609,72.2226562 C179.542966,72.2226562 179.144044,72.1422534 178.902832,71.9814453 C178.66162,71.8206372 178.541016,71.4804713 178.541016,70.9609375 L178.541016,69.8105469 C177.526688,70.5279984 176.3392,71.1217424 174.978516,71.5917969 C173.617832,72.0618513 172.337571,72.296875 171.137695,72.296875 C169.393546,72.296875 168.073084,71.9319698 167.17627,71.2021484 C166.279455,70.4723271 165.682619,69.470384 165.385742,68.1962891 C165.088866,66.9221942 164.94043,65.2770283 164.94043,63.2607422 L164.94043,50.8476562 L168.020508,50.8476562 L168.020508,63.390625 C168.020508,65.1595141 168.153482,66.4923458 168.419434,67.3891602 C168.685385,68.2859745 169.121416,68.9013655 169.727539,69.2353516 C170.333662,69.5693376 171.211908,69.7363281 172.362305,69.7363281 C173.364263,69.7363281 174.418777,69.5322286 175.525879,69.1240234 C176.632981,68.7158183 177.520504,68.2581406 178.188477,67.7509766 L178.188477,50.8476562 L181.287109,50.8476562 Z M211.939453,50.5322266 C213.411466,50.5322266 214.583492,50.8043593 215.455566,51.3486328 C216.327641,51.8929064 216.964679,52.7742452 217.366699,53.9926758 C217.768719,55.2111064 217.969727,56.8655494 217.969727,58.9560547 L217.969727,72 L214.889648,72 L214.889648,59.1044922 C214.889648,57.6572193 214.784506,56.5099326 214.574219,55.6625977 C214.363931,54.8152627 213.949547,54.17204 213.331055,53.7329102 C212.712562,53.2937804 211.803391,53.0927733 210.603516,53.1298828 C209.675777,53.1422527 208.670741,53.3710915 207.588379,53.8164062 C206.506017,54.261721 205.525721,54.7874319 204.647461,55.3935547 C204.795899,56.3707731 204.870117,57.5273371 204.870117,58.8632812 L204.870117,72 L201.771484,72 L201.771484,59.0673828 C201.771484,57.5706305 201.66325,56.3955121 201.446777,55.5419922 C201.230305,54.6884723 200.822106,54.0638041 200.222168,53.6679688 C199.62223,53.2721334 198.753261,53.0989581 197.615234,53.1484375 C196.675126,53.1855471 195.614426,53.4484025 194.433105,53.9370117 C193.251784,54.4256209 192.240564,55.0162726 191.399414,55.7089844 L191.399414,72 L188.300781,72 L188.300781,50.8662109 L191.06543,50.8662109 L191.083984,53.5751953 C191.652998,53.1175107 192.367346,52.659833 193.227051,52.2021484 C194.086756,51.7444639 195.011388,51.3548193 196.000977,51.0332031 C196.990565,50.7115869 197.943029,50.5445964 198.858398,50.5322266 C200.231452,50.5074869 201.338537,50.7115864 202.179688,51.1445312 C203.020838,51.5774761 203.657875,52.3134714 204.09082,53.3525391 C205.068039,52.6103479 206.270989,51.9547554 207.699707,51.3857422 C209.128425,50.8167289 210.54166,50.5322266 211.939453,50.5322266 Z M226.393555,61.7392578 L226.393555,62.4814453 C226.480144,65.0667447 227.141921,66.9593039 228.378906,68.1591797 C229.615892,69.3590555 231.279612,69.9589844 233.370117,69.9589844 C234.322596,69.9589844 235.380203,69.8167332 236.542969,69.5322266 C237.705735,69.2477199 238.565427,68.9199237 239.12207,68.5488281 L239.71582,70.3486328 C239.035478,70.9176461 238.008796,71.384601 236.635742,71.7495117 C235.262688,72.1144224 233.90821,72.296875 232.572266,72.296875 C230.605459,72.296875 228.932461,71.8701215 227.553223,71.0166016 C226.173984,70.1630817 225.128747,68.9292073 224.41748,67.3149414 C223.706214,65.7006755 223.350586,63.7679149 223.350586,61.5166016 C223.350586,59.3642471 223.727861,57.4624106 224.482422,55.8110352 C225.236983,54.1596597 226.334791,52.8701218 227.775879,51.9423828 C229.216967,51.0146438 230.939443,50.5507812 232.943359,50.5507812 C234.403002,50.5507812 235.689448,50.8785775 236.802734,51.5341797 C237.916021,52.1897819 238.788083,53.117507 239.418945,54.3173828 C240.049808,55.5172586 240.383789,56.9088462 240.420898,58.4921875 C240.420898,59.3333375 240.411621,59.9858375 240.393066,60.449707 C240.374512,60.9135765 240.328125,61.3434225 240.253906,61.7392578 L226.393555,61.7392578 Z M232.646484,52.7587891 C230.988924,52.7587891 229.618983,53.3247014 228.536621,54.456543 C227.454259,55.5883846 226.77702,57.3232305 226.504883,59.6611328 L237.507812,59.6611328 C237.520182,59.475585 237.526367,59.1910826 237.526367,58.8076172 C237.526367,56.9521392 237.136723,55.4801487 236.357422,54.3916016 C235.578121,53.3030545 234.341154,52.7587891 232.646484,52.7587891 Z M248.696289,50.8662109 L248.714844,53.5751953 C249.729172,52.8206342 250.963046,52.1248404 252.416504,51.487793 C253.869962,50.8507455 255.301751,50.5322266 256.711914,50.5322266 C258.208666,50.5322266 259.399247,50.8074517 260.283691,51.3579102 C261.168136,51.9083686 261.811359,52.7897075 262.213379,54.0019531 C262.615399,55.2141988 262.816406,56.8531798 262.816406,58.9189453 L262.816406,72 L259.717773,72 L259.717773,58.9003906 C259.717773,57.4407479 259.590984,56.2903688 259.337402,55.4492188 C259.08382,54.6080687 258.632327,53.9957701 257.98291,53.6123047 C257.333493,53.2288392 256.40886,53.0618487 255.208984,53.1113281 C254.256506,53.123698 253.205084,53.3865534 252.054688,53.8999023 C250.904291,54.4132513 249.896163,55.0162726 249.030273,55.7089844 L249.030273,72 L245.931641,72 L245.931641,50.8662109 L248.696289,50.8662109 Z M270.702148,53.1855469 L267.751953,53.1855469 L267.751953,51.4970703 C267.962241,51.435221 268.320961,51.3486334 268.828125,51.2373047 C269.496097,51.0764966 269.997069,50.9249682 270.331055,50.7827148 C270.665041,50.6404615 270.887695,50.4270848 270.999023,50.1425781 C271.073243,49.9446605 271.203124,49.3818406 271.388672,48.4541016 C271.58659,47.3531846 271.76595,46.5429713 271.926758,46.0234375 L273.782227,46.0234375 L273.782227,50.8476562 L280.350586,50.8476562 L280.350586,53.1855469 L273.782227,53.1855469 L273.782227,65.2460938 C273.782227,66.6315173 273.868814,67.6427377 274.041992,68.2797852 C274.21517,68.9168326 274.490395,69.3312165 274.867676,69.5229492 C275.244956,69.7146819 275.823238,69.8105469 276.602539,69.8105469 C277.221032,69.8105469 277.94775,69.6961274 278.782715,69.4672852 C279.61768,69.2384429 280.214516,69.0003268 280.573242,68.7529297 L281.111328,70.5527344 C280.554685,70.9980491 279.719732,71.4000633 278.606445,71.7587891 C277.493158,72.1175148 276.466476,72.296875 275.526367,72.296875 C274.549149,72.296875 273.711104,72.1577162 273.012207,71.8793945 C272.31331,71.6010728 271.753583,71.0753619 271.333008,70.3022461 C270.912433,69.5291302 270.702148,68.4251374 270.702148,66.9902344 L270.702148,53.1855469 Z M292.726562,50.5322266 C294.285164,50.5322266 295.587072,50.7146792 296.632324,51.0795898 C297.677577,51.4445005 298.490883,52.1000929 299.072266,53.0463867 C299.653649,53.9926805 299.944336,55.3193274 299.944336,57.0263672 L299.944336,72.296875 L298.682617,72.296875 C298.274412,72.296875 297.958985,72.2659508 297.736328,72.2041016 C297.513671,72.1422523 297.343588,72.0061859 297.226074,71.7958984 C297.108561,71.5856109 297.049805,71.2578147 297.049805,70.8125 L297.049805,70.0332031 C296.381833,70.6393259 295.466477,71.1681293 294.303711,71.6196289 C293.140945,72.0711286 291.866869,72.296875 290.481445,72.296875 C289.23209,72.296875 288.11882,72.0618513 287.141602,71.5917969 C286.164383,71.1217424 285.403649,70.4414107 284.859375,69.5507812 C284.315101,68.6601518 284.042969,67.6149149 284.042969,66.4150391 C284.042969,65.0419853 284.429521,63.8668669 285.202637,62.8896484 C285.975753,61.91243 287.11067,61.1455106 288.607422,60.5888672 C289.745448,60.1682922 291.081373,59.8559581 292.615234,59.6518555 C294.149096,59.4477529 295.565423,59.3457031 296.864258,59.3457031 L296.864258,56.8964844 C296.864258,55.7955674 296.678713,54.95443 296.307617,54.3730469 C295.936522,53.7916638 295.401533,53.3989268 294.702637,53.1948242 C294.00374,52.9907216 293.079107,52.8886719 291.928711,52.8886719 C291.248369,52.8886719 290.496912,52.9814444 289.674316,53.1669922 C288.851721,53.35254 288.081709,53.5844713 287.364258,53.862793 C286.646806,54.1411147 286.096356,54.4163398 285.712891,54.6884766 L284.952148,52.6474609 C285.261395,52.4371734 285.8304,52.1650407 286.65918,51.8310547 C287.48796,51.4970686 288.446609,51.1971042 289.535156,50.9311523 C290.623703,50.6652005 291.687495,50.5322266 292.726562,50.5322266 Z M291.390625,69.9775391 C292.207035,69.9775391 292.998694,69.8693045 293.765625,69.652832 C294.532556,69.4363596 295.194333,69.1827814 295.750977,68.8920898 C296.30762,68.6013983 296.67871,68.3509125 296.864258,68.140625 L296.864258,61.3310547 C295.887039,61.3310547 294.752122,61.4114575 293.459473,61.5722656 C292.166823,61.7330737 291.118494,61.9804671 290.314453,62.3144531 C289.238276,62.7226583 288.434247,63.2390919 287.902344,63.8637695 C287.37044,64.4884471 287.104492,65.258459 287.104492,66.1738281 C287.104492,67.3489642 287.453935,68.2766893 288.152832,68.9570312 C288.851729,69.6373732 289.930982,69.9775391 291.390625,69.9775391 Z M307.700195,53.1855469 L304.75,53.1855469 L304.75,51.4970703 C304.960288,51.435221 305.319008,51.3486334 305.826172,51.2373047 C306.494144,51.0764966 306.995116,50.9249682 307.329102,50.7827148 C307.663088,50.6404615 307.885742,50.4270848 307.99707,50.1425781 C308.071289,49.9446605 308.201171,49.3818406 308.386719,48.4541016 C308.584636,47.3531846 308.763997,46.5429713 308.924805,46.0234375 L310.780273,46.0234375 L310.780273,50.8476562 L317.348633,50.8476562 L317.348633,53.1855469 L310.780273,53.1855469 L310.780273,65.2460938 C310.780273,66.6315173 310.866861,67.6427377 311.040039,68.2797852 C311.213217,68.9168326 311.488442,69.3312165 311.865723,69.5229492 C312.243003,69.7146819 312.821285,69.8105469 313.600586,69.8105469 C314.219079,69.8105469 314.945797,69.6961274 315.780762,69.4672852 C316.615727,69.2384429 317.212563,69.0003268 317.571289,68.7529297 L318.109375,70.5527344 C317.552732,70.9980491 316.717779,71.4000633 315.604492,71.7587891 C314.491205,72.1175148 313.464523,72.296875 312.524414,72.296875 C311.547196,72.296875 310.709151,72.1577162 310.010254,71.8793945 C309.311357,71.6010728 308.75163,71.0753619 308.331055,70.3022461 C307.91048,69.5291302 307.700195,68.4251374 307.700195,66.9902344 L307.700195,53.1855469 Z M325.995117,50.8662109 L325.995117,72 L322.915039,72 L322.915039,50.8662109 L325.995117,50.8662109 Z M322.302734,44.1308594 C322.302734,43.6855446 322.410969,43.2835304 322.627441,42.9248047 C322.843914,42.5660789 323.128416,42.2815766 323.480957,42.0712891 C323.833498,41.8610016 324.201495,41.7558594 324.584961,41.7558594 C325.228193,41.7558594 325.719888,41.9475892 326.060059,42.3310547 C326.40023,42.7145201 326.570312,43.2216765 326.570312,43.8525391 C326.570312,44.3225935 326.46517,44.7400698 326.254883,45.1049805 C326.044595,45.4698911 325.763185,45.7513011 325.410645,45.9492188 C325.058104,46.1471364 324.683921,46.2460938 324.288086,46.2460938 C323.731443,46.2460938 323.261395,46.0543639 322.87793,45.6708984 C322.494464,45.287433 322.302734,44.7740918 322.302734,44.1308594 Z M331.858398,61.2753906 C331.858398,59.0364471 332.272782,57.1098714 333.101562,55.4956055 C333.930343,53.8813396 335.071445,52.65365 336.524902,51.8125 C337.97836,50.97135 339.626618,50.5507812 341.469727,50.5507812 C343.547862,50.5507812 345.273431,51.0362907 346.646484,52.0073242 C348.019538,52.9783577 349.030758,54.2864501 349.680176,55.9316406 C350.329593,57.5768311 350.654297,59.4260965 350.654297,61.4794922 C350.654297,63.7184357 350.246098,65.6542887 349.429688,67.2871094 C348.613277,68.91993 347.481453,70.1630817 346.03418,71.0166016 C344.586907,71.8701215 342.935556,72.296875 341.080078,72.296875 C338.964833,72.296875 337.217618,71.8020883 335.838379,70.8125 C334.45914,69.8229117 333.451012,68.5024497 332.813965,66.8510742 C332.176917,65.1996988 331.858398,63.3411562 331.858398,61.2753906 Z M347.518555,61.5166016 C347.518555,59.8466713 347.292808,58.3561263 346.841309,57.0449219 C346.389809,55.7337174 345.697108,54.6977577 344.763184,53.9370117 C343.82926,53.1762657 342.675788,52.7958984 341.302734,52.7958984 C339.99153,52.7958984 338.86589,53.1267871 337.925781,53.7885742 C336.985672,54.4503614 336.265139,55.4059182 335.76416,56.6552734 C335.263181,57.9046286 335.012695,59.4013585 335.012695,61.1455078 C335.012695,62.815438 335.238442,64.3245375 335.689941,65.6728516 C336.141441,67.0211656 336.834142,68.0942343 337.768066,68.8920898 C338.70199,69.6899454 339.861647,70.0888672 341.24707,70.0888672 C342.570645,70.0888672 343.702469,69.7425165 344.642578,69.0498047 C345.582687,68.3570929 346.297035,67.3675195 346.785645,66.0810547 C347.274254,64.7945899 347.518555,63.2731208 347.518555,61.5166016 Z M358.948242,50.8662109 L358.966797,53.5751953 C359.981125,52.8206342 361.214999,52.1248404 362.668457,51.487793 C364.121915,50.8507455 365.553704,50.5322266 366.963867,50.5322266 C368.460619,50.5322266 369.6512,50.8074517 370.535645,51.3579102 C371.420089,51.9083686 372.063312,52.7897075 372.465332,54.0019531 C372.867352,55.2141988 373.068359,56.8531798 373.068359,58.9189453 L373.068359,72 L369.969727,72 L369.969727,58.9003906 C369.969727,57.4407479 369.842937,56.2903688 369.589355,55.4492188 C369.335773,54.6080687 368.884281,53.9957701 368.234863,53.6123047 C367.585446,53.2288392 366.660813,53.0618487 365.460938,53.1113281 C364.508459,53.123698 363.457037,53.3865534 362.306641,53.8999023 C361.156244,54.4132513 360.148116,55.0162726 359.282227,55.7089844 L359.282227,72 L356.183594,72 L356.183594,50.8662109 L358.948242,50.8662109 Z" id="Imandra-Documentatio" fill="#405267"></path>
                <g id="Group-5-Copy" transform="translate(0.581237, 6.000000)" fill="#21D8AF">
                    <path d="M18.5262931,37.0242536 C20.864941,37.0242536 22.7611071,35.1361963 22.7611071,32.8065787 C22.7611071,30.4778825 20.864941,28.5896409 18.5262931,28.5896409 C16.1876452,28.5896409 14.2916634,30.4778825 14.2916634,32.8065787 C14.2916634,35.1361963 16.1876452,37.0242536 18.5262931,37.0242536" id="Fill-1"></path>
                    <path d="M45.6153915,37.0242536 C47.9540394,37.0242536 49.8500212,35.1361963 49.8500212,32.8065787 C49.8500212,30.4778825 47.9540394,28.5896409 45.6153915,28.5896409 C43.2767436,28.5896409 41.3805775,30.4778825 41.3805775,32.8065787 C41.3805775,35.1361963 43.2767436,37.0242536 45.6153915,37.0242536" id="Fill-3"></path>
                    <path d="M31.9964257,27.865692 C33.0877947,27.865692 33.972574,28.7504713 33.972574,29.8418403 L33.972574,35.7721279 C33.972574,36.8634969 33.0877947,37.7480919 31.9964257,37.7480919 C30.905241,37.7480919 30.0204618,36.8634969 30.0204618,35.7721279 L30.0204618,29.8418403 C30.0204618,28.7504713 30.905241,27.865692 31.9964257,27.865692" id="Fill-5"></path>
                    <path d="M33.0330604,5.91502969 L33.0221873,5.91502969 L32.8434254,5.9146611 C31.3167619,5.9146611 30.0790662,4.67696534 30.0790662,3.1503019 C30.0790662,1.62363846 31.3167619,0.385942701 32.8434254,0.385942701 L33.0430121,0.386311283 C34.5696756,0.392208582 35.8027641,1.63451161 35.7968668,3.16135934 C35.7911537,4.68433697 34.5549323,5.91502969 33.0330604,5.91502969 M13.5988781,12.8847164 C12.8064284,12.8847164 12.0200604,12.5459902 11.4732701,11.8895471 C10.4961613,10.716353 10.6552041,8.97333241 11.8282139,7.99622358 C14.7584346,5.55621586 18.0699527,3.65820683 21.6709912,2.35545649 C23.1066151,1.83612554 24.6913301,2.57881671 25.2110296,4.01444059 C25.7303606,5.45006447 24.9876694,7.03496374 23.5520455,7.55447898 C20.556033,8.63829208 17.8019941,10.2163726 15.3665936,12.2446751 C14.8498428,12.6749937 14.2225175,12.8847164 13.5988781,12.8847164 M52.2396439,12.9809161 C51.6125029,12.9809161 50.982229,12.7686133 50.4641881,12.3342403 C49.2441842,11.310506 47.9202405,10.3842614 46.5293992,9.58130715 C45.1756004,8.79936208 43.7517711,8.13094002 42.2979024,7.59428575 C40.8657801,7.06555598 40.1332249,5.47586515 40.6619547,4.0437428 C41.1905001,2.61143615 42.7796381,1.87924954 44.2124976,2.40761073 C45.9597569,3.05262788 47.6694209,3.8552135 49.2939427,4.79325272 C50.9626942,5.75690834 52.5520165,6.8689179 54.017864,8.09887345 C55.1875565,9.08022097 55.3399649,10.8237945 54.3588016,11.9933027 C53.8120114,12.6451386 53.0284077,12.9809161 52.2396439,12.9809161 M6.7897085,20.9728628 C6.3223475,20.9728628 5.84890491,20.8541797 5.41563768,20.6040973 C4.09335253,19.8411342 3.63557465,18.1578237 4.39853779,16.8353543 L4.5022934,16.6571453 C5.27299675,15.3392831 6.96644319,14.8955113 8.28393679,15.6663989 C9.60179897,16.4372865 10.0455708,18.1303644 9.27468313,19.4482266 L9.19543816,19.5844174 C8.6823731,20.4734353 7.74857256,20.9728628 6.7897085,20.9728628 M59.0143511,21.1059207 C58.0514327,21.1059207 57.1157892,20.6017015 56.6069628,19.704022 L56.5231106,19.5575109 C55.7599632,18.2352258 56.2133181,16.544728 57.5357875,15.7815805 C58.8575198,15.0186174 60.5483862,15.471788 61.3117179,16.7942575 L61.4169478,16.9778109 C62.169775,18.3059934 61.7031512,19.9931739 60.3749687,20.7460011 C59.9444658,20.9900019 59.4761834,21.1059207 59.0143511,21.1059207 M3.20304458,41.1287272 C1.88297091,41.1287272 0.714937006,40.1801834 0.482362252,38.8350463 C0.162433747,36.9847685 7.37162453e-05,35.0963426 7.37162453e-05,33.2222913 C7.37162453e-05,31.3041946 0.170173952,29.3757776 0.505398578,27.490669 C0.772988549,25.9875947 2.2071381,24.9857909 3.71150238,25.2535652 C5.21457662,25.5209709 6.21619611,26.9562262 5.94879043,28.4593004 C5.66995873,30.0254021 5.52879212,31.6278089 5.52879212,33.2222913 C5.52879212,34.7813899 5.66369285,36.352836 5.93017707,37.8927683 C6.19039542,39.3971326 5.18177289,40.8275964 3.67740862,41.0878147 C3.51818153,41.115274 3.35932302,41.1287272 3.20304458,41.1287272 M62.5073954,41.2741325 C62.3468783,41.2741325 62.1847025,41.2601264 62.021421,41.2311928 C60.5181625,40.9647086 59.5156216,39.5298219 59.7821058,38.0265633 C60.0590946,36.465069 60.199524,34.8674536 60.199524,33.2781314 C60.199524,31.7138727 60.0637019,30.137635 59.7957433,28.5929111 C59.5347878,27.0887311 60.5424889,25.6577145 62.0470374,25.396759 C63.5499274,25.1365407 64.9820498,26.1436889 65.2430053,27.6480531 C65.564961,29.5036753 65.7282424,31.3979985 65.7282424,33.2781314 C65.7282424,35.1903308 65.559248,37.1126662 65.2260505,38.9918776 C64.9883156,40.3320389 63.8223089,41.2741325 62.5073954,41.2741325 M6.80555749,51.0752602 C5.85001066,51.0752602 4.92063309,50.5789656 4.40867377,49.6919749 L4.30547103,49.5115544 C3.55061667,48.1844777 4.01484473,46.4969285 5.34210573,45.7422584 C6.66899814,44.9875884 8.35691587,45.4516321 9.11140164,46.7788931 L9.19728107,46.9287214 C9.9604285,48.2511909 9.50707359,49.9415044 8.18460415,50.7046518 C7.74949401,50.9556556 7.27439281,51.0752602 6.80555749,51.0752602 M58.829139,51.2263785 C58.3553279,51.2263785 57.8756194,51.1047467 57.437192,50.8485828 C56.1191456,50.0786166 55.6744523,48.3855387 56.4446028,47.067308 L56.548727,46.8878089 C57.3115058,45.5653395 59.0023722,45.1118003 60.3246574,45.8747634 C61.6471268,46.6379108 62.100666,48.3284086 61.3377029,49.6506938 L61.2184668,49.8561778 C60.7044803,50.7357969 59.7793414,51.2263785 58.829139,51.2263785 M22.457175,64.2588578 C22.1387208,64.2588578 21.8151065,64.2033863 21.4988638,64.0865461 C19.7576861,63.4426347 18.0539194,62.6420763 16.4343735,61.7069857 C14.7599089,60.7400129 13.1657951,59.6241332 11.6968147,58.3895704 C10.5278593,57.40767 10.3763724,55.6639122 11.3584571,54.4949568 C12.3401732,53.3260015 14.0841153,53.1745146 15.2528863,54.1567836 C16.4756546,55.1838351 17.8032841,56.1132127 19.1991012,56.9191156 C20.5486614,57.6984806 21.9675148,58.365244 23.4162233,58.9009768 C24.8483457,59.430628 25.5799794,61.0206875 25.0505125,62.4524412 C24.6377015,63.5683209 23.5811634,64.2588578 22.457175,64.2588578 M43.1017781,64.3159879 C41.9698651,64.3159879 40.9081669,63.6156836 40.5014375,62.4898522 C39.983028,61.0538598 40.7266407,59.4695134 42.1624488,58.9507353 C45.1590142,57.8685808 47.9137903,56.2921589 50.3504808,54.2651464 C51.5238591,53.2889591 53.267064,53.4489233 54.2434357,54.6224859 C55.2199917,55.7962329 55.0598431,57.5390692 53.8860962,58.5154409 C50.9547697,60.9539743 47.6421459,62.8499561 44.0405545,64.1508635 C43.7305777,64.2627279 43.4134135,64.3159879 43.1017781,64.3159879 M32.8686732,66.1142957 L32.6700079,66.1139271 C31.1433445,66.108767 29.9097031,64.8668326 29.9150475,63.3401691 C29.9202077,61.8166386 31.1566134,60.5852087 32.6788539,60.5852087 L32.6886213,60.5852087 L32.8686732,60.5855773 C34.3955209,60.5855773 35.6330324,61.8232731 35.6330324,63.3499365 C35.6330324,64.8766 34.3955209,66.1142957 32.8686732,66.1142957" id="Fill-7"></path>
                </g>
            </g>
        </g>
    </g>
</svg>