<?xml version="1.0" encoding="UTF-8"?>
<svg width="763px" height="329px" viewBox="0 0 763 329" version="1.1" xmlns="http://www.w3.org/2000/svg" xmlns:xlink="http://www.w3.org/1999/xlink">
    <!-- Generator: Sketch 47.1 (45422) - http://www.bohemiancoding.com/sketch -->
    <title>imandra_documentation</title>
    <desc>Created with Sketch.</desc>
    <defs></defs>
    <g id="Page-1" stroke="none" stroke-width="1" fill="none" fill-rule="evenodd">
        <g id="https://aestheticintegration.github.io/fix-engine-copy-4" transform="translate(-110.000000, -570.000000)">
            <g id="imandra_documentation" transform="translate(110.000000, 570.000000)">
                <g id="Group-73" transform="translate(14.186625, 18.000000)" stroke="#808FA3">
                    <path d="M246.2689,156.3385 C254.2539,156.3385 260.7279,149.8645 260.7279,141.8795 C260.7279,133.8945 254.2539,127.4215 246.2689,127.4215 C238.2839,127.4215 231.8109,133.8945 231.8109,141.8795 C231.8109,149.8645 238.2839,156.3385 246.2689,156.3385 Z" id="Stroke-1"></path>
                    <path d="M246.2689,156.3385 C254.2539,156.3385 260.7279,149.8645 260.7279,141.8795 C260.7279,133.8945 254.2539,127.4215 246.2689,127.4215 C238.2839,127.4215 231.8109,133.8945 231.8109,141.8795 C231.8109,149.8645 238.2839,156.3385 246.2689,156.3385 Z" id="Stroke-3"></path>
                    <path d="M0.9944,141.361 C0.9944,183.894 64.2724,218.375 142.3314,218.375 C220.3894,218.375 283.6674,183.894 283.6674,141.361 C283.6674,98.827 220.3894,64.346 142.3314,64.346 C64.2724,64.346 0.9944,98.827 0.9944,141.361 Z" id="Stroke-5" stroke-dasharray="2.535,1.267"></path>
                    <path d="M142.3314,0.0241 C99.7974,0.0241 65.3164,63.3021 65.3164,141.3611 C65.3164,219.4191 99.7974,282.6971 142.3314,282.6971 C184.8644,282.6971 219.3454,219.4191 219.3454,141.3611 C219.3454,63.3021 184.8644,0.0241 142.3314,0.0241 Z" id="Stroke-7" stroke-dasharray="2.535,1.267"></path>
                    <path d="M120.4847,85.1706 L86.0547,119.6006 C73.9897,131.6656 73.9897,151.2286 86.0547,163.2936 L120.4847,197.7226 C132.5497,209.7876 152.1117,209.7876 164.1777,197.7226 L198.6067,163.2936 C210.6727,151.2286 210.6727,131.6656 198.6067,119.6006 L164.1777,85.1706 C152.1117,73.1056 132.5497,73.1056 120.4847,85.1706 Z" id="Stroke-9" stroke-dasharray="2.535,1.267"></path>
                    <polygon id="Stroke-23" points="54.4612 150.4538 39.9012 158.8598 25.3422 150.4538 25.3422 133.6418 39.9012 125.2358 54.4612 133.6418"></polygon>
                    <polyline id="Stroke-25" points="128.4778 46.403 127.2108 46.415 127.8508 45.32"></polyline>
                    <path d="M128.47,44.2614 L141.16,22.5534" id="Stroke-27" stroke-dasharray="2.453,1.227"></path>
                    <polyline id="Stroke-29" points="141.47 22.0241 142.11 20.9291 142.769 22.0121"></polyline>
                    <path d="M143.4056,23.0602 L156.4736,44.5432" id="Stroke-31" stroke-dasharray="2.453,1.227"></path>
                    <polyline id="Stroke-33" points="156.7923 45.068 157.4513 46.151 156.1843 46.162"></polyline>
                    <path d="M154.9241,46.1725 L129.1081,46.3985" id="Stroke-35" stroke-dasharray="2.519,1.259"></path>
                    <polyline id="Stroke-37" points="159.2796 236.1325 160.3066 236.8735 159.9196 238.0805"></polyline>
                    <path d="M159.5433,239.2516 L154.0863,256.2356" id="Stroke-39" stroke-dasharray="2.461,1.23"></path>
                    <polyline id="Stroke-41" points="153.8978 256.8219 153.5098 258.0289 152.2438 258.0329"></polyline>
                    <path d="M151.013,258.0368 L133.173,258.0958" id="Stroke-43" stroke-dasharray="2.461,1.23"></path>
                    <polyline id="Stroke-45" points="132.5579 258.0973 131.2899 258.1023 130.8949 256.8983"></polyline>
                    <path d="M130.511,255.7292 L124.943,238.7812" id="Stroke-47" stroke-dasharray="2.461,1.23"></path>
                    <polyline id="Stroke-49" points="124.7503 238.196 124.3543 236.992 125.3773 236.244"></polyline>
                    <path d="M126.3704,235.5172 L140.7684,224.9842" id="Stroke-51" stroke-dasharray="2.461,1.23"></path>
                    <polyline id="Stroke-53" points="141.265 224.6208 142.287 223.8728 143.316 224.6138"></polyline>
                    <path d="M144.3138,225.3336 L158.7808,235.7716" id="Stroke-55" stroke-dasharray="2.461,1.23"></path>
                    <path d="M246.2161,175.8883 C265.5611,175.7973 281.1681,160.0413 281.0771,140.6983 C280.9871,121.3533 265.2311,105.7453 245.8871,105.8363 C226.5421,105.9273 210.9351,121.6833 211.0261,141.0273 C211.1161,160.3713 226.8721,175.9793 246.2161,175.8883 Z" id="Stroke-57"></path>
                    <path d="M39.4759,176.4723 C58.8199,176.3813 74.4279,160.6263 74.3359,141.2823 C74.2459,121.9383 58.4909,106.3293 39.1459,106.4213 C19.8019,106.5123 4.1949,122.2673 4.2859,141.6123 C4.3759,160.9553 20.1309,176.5633 39.4759,176.4723 Z" id="Stroke-59"></path>
                    <path d="M46.598,93.7311 C60.341,107.3451 82.518,107.2411 96.132,93.4991 C109.746,79.7551 109.642,57.5791 95.899,43.9641 C82.157,30.3501 59.979,30.4551 46.366,44.1981 C32.751,57.9401 32.856,80.1181 46.598,93.7311 Z" id="Stroke-61" stroke-dasharray="2.535,1.267"></path>
                    <path d="M193.056,239.8571 C206.799,253.4701 228.976,253.3671 242.59,239.6241 C256.203,225.8801 256.1,203.7041 242.357,190.0891 C228.615,176.4761 206.437,176.5801 192.823,190.3231 C179.209,204.0661 179.314,226.2431 193.056,239.8571 Z" id="Stroke-63" stroke-dasharray="2.535,1.267"></path>
                    <path d="M107.305,37.9811 C107.396,57.3261 123.152,72.9331 142.495,72.8421 C161.84,72.7521 177.448,56.9961 177.357,37.6521 C177.266,18.3071 161.515,3.6881 142.171,3.7791 C122.826,3.8701 107.214,18.6371 107.305,37.9811 Z" id="Stroke-65" stroke-dasharray="2.535,1.267"></path>
                    <path d="M107.305,244.0963 C107.396,263.4403 123.157,280.0363 142.5,279.9463 C161.845,279.8543 177.448,263.1113 177.357,243.7673 C177.266,224.4223 161.51,208.8153 142.166,208.9063 C122.822,208.9963 107.214,224.7523 107.305,244.0963 Z" id="Stroke-67" stroke-dasharray="2.535,1.267"></path>
                    <path d="M192.8226,44.1979 C179.2096,57.9399 179.3136,80.1179 193.0556,93.7309 C206.7996,107.3449 228.9756,107.2409 242.5906,93.4989 C256.2046,79.7559 256.0996,57.5789 242.3566,43.9649 C228.6146,30.3499 206.4366,30.4549 192.8226,44.1979 Z" id="Stroke-69" stroke-dasharray="2.535,1.267"></path>
                    <path d="M46.3655,190.3229 C32.7515,204.0659 32.8555,226.2429 46.5975,239.8569 C60.3415,253.4699 82.5175,253.3669 96.1325,239.6239 C109.7465,225.8809 109.6415,203.7039 95.8985,190.0899 C82.1565,176.4759 59.9785,176.5799 46.3655,190.3229 Z" id="Stroke-71" stroke-dasharray="2.535,1.267"></path>
                </g>
                <polygon id="Fill-76" fill="#21D8AF" points="108.206825 191.8607 109.190825 191.8607 109.190825 183.9447 108.206825 183.9447"></polygon>
                <polygon id="Fill-78" fill="#21D8AF" points="123.040025 189.3733 122.836025 189.3733 119.964025 185.3473 119.964025 191.8603 118.991025 191.8603 118.991025 183.9443 120.167025 183.9443 122.949025 188.0163 125.709025 183.9443 126.885025 183.9443 126.885025 191.8603 125.912025 191.8603 125.912025 185.3703"></polygon>
                <path d="M139.907225,184.9407 L138.030225,189.2147 L141.785225,189.2147 L139.907225,184.9407 Z M140.462225,183.9447 L144.012225,191.8607 L142.950225,191.8607 L142.169225,190.1197 L137.645225,190.1197 L136.877225,191.8607 L135.803225,191.8607 L139.353225,183.9447 L140.462225,183.9447 Z" id="Fill-79" fill="#21D8AF"></path>
                <polygon id="Fill-80" fill="#21D8AF" points="153.620125 183.9446 158.472125 190.0066 158.472125 183.9446 159.443125 183.9446 159.443125 191.8606 158.766125 191.8606 153.903125 185.8226 153.903125 191.8606 152.930125 191.8606 152.930125 183.9446"></polygon>
                <path d="M175.142525,187.8011 C175.142525,186.3311 174.169525,184.8841 172.145525,184.8841 L170.246525,184.8841 L170.246525,190.8771 L172.145525,190.8771 C174.248525,190.8771 175.142525,189.3171 175.142525,187.8011 L175.142525,187.8011 Z M169.261525,183.9341 L172.145525,183.9341 C174.836525,183.9341 176.125525,185.8571 176.125525,187.8131 C176.125525,189.8371 174.915525,191.8611 172.145525,191.8611 L169.261525,191.8611 L169.261525,183.9451 L169.261525,183.9341 Z" id="Fill-81" fill="#21D8AF"></path>
                <path d="M190.767525,186.5013 C190.778525,185.7093 190.212525,184.8273 189.071525,184.8273 L186.458525,184.8273 L186.458525,188.1293 L189.026525,188.1293 C190.212525,188.1293 190.767525,187.3943 190.767525,186.5013 L190.767525,186.5013 Z M188.380525,189.0113 L186.458525,189.0113 L186.458525,191.8603 L185.474525,191.8603 L185.474525,183.9443 L189.071525,183.9443 C190.857525,183.9443 191.750525,185.1893 191.750525,186.4783 C191.762525,187.6773 191.106525,188.7963 189.478525,188.9323 L192.090525,191.8603 L190.846525,191.8603 L188.380525,189.0113 Z" id="Fill-82" fill="#21D8AF"></path>
                <path d="M204.781225,184.9407 L202.904225,189.2147 L206.659225,189.2147 L204.781225,184.9407 Z M205.336225,183.9447 L208.886225,191.8607 L207.823225,191.8607 L207.043225,190.1197 L202.519225,190.1197 L201.751225,191.8607 L200.677225,191.8607 L204.227225,183.9447 L205.336225,183.9447 Z" id="Fill-83" fill="#21D8AF"></path>
                <path d="M118.678725,147.264 C111.921725,147.264 106.443725,152.743 106.443725,159.499 C106.443725,166.257 111.921725,171.736 118.678725,171.736 C125.436725,171.736 130.914725,166.257 130.914725,159.499 C130.914725,152.743 125.436725,147.264 118.678725,147.264" id="Fill-84" fill="#21D8AF"></path>
                <path d="M197.346625,171.7356 C204.104625,171.7356 209.581625,166.2566 209.581625,159.4996 C209.581625,152.7426 204.104625,147.2636 197.346625,147.2636 C190.588625,147.2636 185.110625,152.7426 185.110625,159.4996 C185.110625,166.2566 190.588625,171.7356 197.346625,171.7356" id="Fill-85" fill="#21D8AF"></path>
                <path d="M152.330025,166.0335 L152.279025,153.0105 C152.268025,149.8545 154.816025,147.2885 157.972025,147.2795 C161.121025,147.2705 163.684025,149.8155 163.695025,152.9665 L163.746025,165.9895 C163.759025,169.1445 161.209025,171.7115 158.054025,171.7205 C154.904025,171.7285 152.342025,169.1835 152.330025,166.0335" id="Fill-86" fill="#21D8AF"></path>
                <path d="M221.498716,85.5 L610.805664,85.5" id="Line-Copy-2" stroke="#979797" stroke-linecap="square" stroke-dasharray="3,4"></path>
                <path d="M19,85.5 L89.5638009,85.5" id="Line-Copy-4" stroke="#979797" stroke-linecap="square" stroke-dasharray="3,4"></path>
                <path d="M19,232.5 L89.5638009,232.5" id="Line-Copy-6" stroke="#979797" stroke-linecap="square" stroke-dasharray="3,4"></path>
                <path d="M233.553711,232.5 L304.117512,232.5" id="Line-Copy-8" stroke="#979797" stroke-linecap="square" stroke-dasharray="3,4"></path>
                <path d="M192.5,266.285156 L763,266.285156" id="Line-Copy-3" stroke="#979797" stroke-linecap="square" stroke-dasharray="3,4"></path>
                <path d="M231.859375,24.5 L231.859375,329.5" id="Line-Copy-7" stroke="#979797" stroke-linecap="square" stroke-dasharray="3,4"></path>
                <path d="M82.4726563,35.5 L82.4726563,297.002083" id="Line-Copy-5" stroke="#979797" stroke-linecap="square" stroke-dasharray="3,4"></path>
                <path d="M156.5,30.5 L156.5,0" id="Line-Copy-9" stroke="#979797" stroke-linecap="square" stroke-dasharray="3,4"></path>
                <path d="M282.058594,158.472656 L312.558594,158.472656" id="Line-Copy-11" stroke="#979797" stroke-linecap="square" stroke-dasharray="3,4"></path>
                <path d="M0.115234375,158.472656 L30.6152344,158.472656" id="Line-Copy-12" stroke="#979797" stroke-linecap="square" stroke-dasharray="3,4"></path>
                <path d="M156,290.789062 L156,315.789062" id="Line-Copy-10" stroke="#979797" stroke-linecap="square" stroke-dasharray="3,4"></path>
                <path d="M329.090332,156.379395 L331.974609,155.912109 L331.974609,134.578125 L329.154785,134.304199 L329.154785,132.725098 L337.904297,132.725098 L337.904297,134.304199 L335.116699,134.594238 L335.116699,155.895996 L338.049316,156.379395 L338.049316,157.749023 L329.090332,157.749023 L329.090332,156.379395 Z M340.916504,156.379395 L343.10791,156.024902 L343.10791,142.924805 L340.819824,141.667969 L340.819824,140.668945 L345.105957,139.395996 L345.831055,139.718262 L345.831055,142.022461 C346.185549,141.710936 346.615232,141.402101 347.120117,141.095947 C347.625003,140.789793 348.164792,140.513185 348.739502,140.266113 C349.314212,140.019042 349.902341,139.817628 350.503906,139.661865 C351.105472,139.506103 351.680173,139.417481 352.228027,139.395996 C353.388189,139.353027 354.325436,139.506102 355.039795,139.855225 C355.754154,140.204347 356.310057,140.81396 356.70752,141.684082 C357.09424,141.394042 357.550779,141.114747 358.077148,140.846191 C358.603518,140.577635 359.156735,140.338624 359.736816,140.12915 C360.316897,139.919677 360.902341,139.750489 361.493164,139.621582 C362.083987,139.492675 362.637204,139.417481 363.152832,139.395996 C364.15186,139.363769 364.995114,139.487303 365.682617,139.766602 C366.370121,140.0459 366.923338,140.497067 367.342285,141.120117 C367.761233,141.743167 368.062011,142.548823 368.244629,143.537109 C368.427247,144.525396 368.518555,145.712395 368.518555,147.098145 L368.518555,156.041016 L371.241699,156.379395 L371.241699,157.749023 L363.233398,157.749023 L363.233398,156.379395 L365.424805,156.041016 L365.424805,147.662109 C365.424805,146.630854 365.376465,145.736576 365.279785,144.979248 C365.183105,144.22192 364.992433,143.598879 364.707764,143.110107 C364.423094,142.621335 364.028323,142.264161 363.523438,142.038574 C363.018552,141.812987 362.357914,141.716308 361.541504,141.748535 C360.811032,141.780762 360.085941,141.917723 359.366211,142.159424 C358.646481,142.401124 357.937503,142.720701 357.239258,143.118164 C357.357422,143.633792 357.44873,144.221921 357.513184,144.882568 C357.577637,145.543216 357.609863,146.228024 357.609863,146.937012 L357.609863,156.057129 L360.075195,156.379395 L360.075195,157.749023 L352.099121,157.749023 L352.099121,156.379395 L354.516113,156.024902 L354.516113,147.404297 C354.516113,146.383784 354.465088,145.508304 354.363037,144.777832 C354.260986,144.04736 354.064943,143.451174 353.774902,142.989258 C353.484862,142.527341 353.084719,142.197022 352.574463,141.998291 C352.064206,141.79956 351.400883,141.716308 350.584473,141.748535 C350.004392,141.780762 349.341068,141.928465 348.594482,142.19165 C347.847897,142.454835 347.06641,142.86572 346.25,143.424316 L346.25,146.373047 C346.25,147.995125 346.244629,149.606437 346.233887,151.207031 C346.223144,152.807625 346.223144,154.418937 346.233887,156.041016 L348.634766,156.379395 L348.634766,157.749023 L340.916504,157.749023 L340.916504,156.379395 Z M372.94873,152.560547 C373.023926,151.80859 373.265623,151.150638 373.673828,150.58667 C374.082033,150.022702 374.586911,149.536623 375.188477,149.128418 C375.790042,148.720213 376.458737,148.381837 377.19458,148.113281 C377.930424,147.844725 378.668942,147.629884 379.410156,147.46875 C380.151371,147.307616 380.865719,147.194825 381.553223,147.130371 C382.240726,147.065918 382.836912,147.033691 383.341797,147.033691 L383.341797,145.631836 C383.341797,144.783199 383.229005,144.09302 383.003418,143.561279 C382.777831,143.029538 382.466311,142.613283 382.068848,142.3125 C381.671385,142.011717 381.204104,141.807618 380.666992,141.700195 C380.12988,141.592773 379.549808,141.539062 378.926758,141.539062 C378.615233,141.539062 378.266115,141.568603 377.879395,141.627686 C377.492674,141.686768 377.092531,141.770019 376.678955,141.877441 C376.265379,141.984864 375.849123,142.113769 375.430176,142.26416 C375.011228,142.414552 374.613771,142.581054 374.237793,142.763672 L373.641602,141.313477 C374.039064,140.991209 374.525144,140.70923 375.099854,140.467529 C375.674563,140.225829 376.265378,140.024415 376.872314,139.863281 C377.479251,139.702148 378.070065,139.583985 378.644775,139.508789 C379.219485,139.433593 379.710935,139.395996 380.119141,139.395996 C380.967778,139.395996 381.776119,139.484618 382.544189,139.661865 C383.31226,139.839112 383.986325,140.150633 384.566406,140.596436 C385.146487,141.042239 385.605711,141.643795 385.944092,142.401123 C386.282472,143.158451 386.45166,144.122553 386.45166,145.293457 L386.419434,156.379395 L388.481934,156.379395 L388.481934,157.442871 C388.105955,157.646974 387.64136,157.813476 387.088135,157.942383 C386.534909,158.07129 385.979007,158.135742 385.42041,158.135742 C385.22705,158.135742 385.017579,158.122315 384.791992,158.095459 C384.566405,158.068603 384.35962,158.001465 384.171631,157.894043 C383.983642,157.786621 383.827881,157.620118 383.704346,157.394531 C383.58081,157.168944 383.519043,156.857424 383.519043,156.459961 L383.519043,156.008789 C383.271971,156.309572 382.97925,156.588866 382.640869,156.84668 C382.302489,157.104493 381.915774,157.330077 381.480713,157.523438 C381.045652,157.716798 380.551516,157.867187 379.998291,157.974609 C379.445066,158.082032 378.830082,158.135742 378.15332,158.135742 C377.315425,158.135742 376.555423,157.985353 375.873291,157.68457 C375.191159,157.383788 374.621828,156.978274 374.165283,156.468018 C373.708738,155.957761 373.370362,155.366947 373.150146,154.695557 C372.929931,154.024167 372.862793,153.312504 372.94873,152.560547 Z M376.074707,152.625 C376.074707,153.258792 376.160644,153.795896 376.33252,154.236328 C376.504395,154.67676 376.754149,155.033934 377.081787,155.307861 C377.409425,155.581788 377.809568,155.780517 378.282227,155.904053 C378.754885,156.027589 379.286618,156.089355 379.877441,156.089355 C380.199709,156.089355 380.527342,156.046387 380.860352,155.960449 C381.193361,155.874511 381.512938,155.76709 381.819092,155.638184 C382.125246,155.509277 382.409911,155.361573 382.673096,155.195068 C382.936281,155.028564 383.148437,154.864747 383.30957,154.703613 C383.30957,153.693843 383.312256,152.692144 383.317627,151.698486 C383.322998,150.704829 383.331055,149.70313 383.341797,148.693359 C382.890623,148.693359 382.396487,148.717529 381.859375,148.765869 C381.322263,148.814209 380.785159,148.89746 380.248047,149.015625 C379.710935,149.13379 379.189944,149.28955 378.685059,149.48291 C378.180173,149.67627 377.734377,149.920653 377.347656,150.216064 C376.960936,150.511476 376.652101,150.857908 376.421143,151.255371 C376.190184,151.652834 376.074707,152.109372 376.074707,152.625 Z M390.720703,156.379395 L392.912109,156.057129 L392.912109,142.924805 L390.624023,141.667969 L390.624023,140.668945 L394.910156,139.395996 L395.635254,139.718262 L395.635254,142.022461 C396.00049,141.710936 396.440915,141.402101 396.956543,141.095947 C397.472171,140.789793 398.020017,140.513185 398.600098,140.266113 C399.180179,140.019042 399.776364,139.817628 400.388672,139.661865 C401.00098,139.506103 401.581052,139.417481 402.128906,139.395996 C403.127935,139.363769 403.965817,139.484618 404.642578,139.758545 C405.319339,140.032472 405.867185,140.478268 406.286133,141.095947 C406.70508,141.713626 407.005858,142.505855 407.188477,143.472656 C407.371095,144.439458 407.462402,145.599603 407.462402,146.953125 L407.462402,156.057129 L410.056641,156.379395 L410.056641,157.749023 L401.935547,157.749023 L401.935547,156.379395 L404.368652,156.041016 L404.368652,147.51709 C404.368652,146.539546 404.320313,145.680179 404.223633,144.938965 C404.126953,144.19775 403.936281,143.585452 403.651611,143.102051 C403.366942,142.61865 402.97217,142.264161 402.467285,142.038574 C401.9624,141.812987 401.301762,141.716308 400.485352,141.748535 C399.819333,141.780762 399.115726,141.928465 398.374512,142.19165 C397.633297,142.454835 396.854496,142.86572 396.038086,143.424316 L396.038086,156.041016 L398.438965,156.379395 L398.438965,157.749023 L390.720703,157.749023 L390.720703,156.379395 Z M418.644043,158.135742 C417.741695,158.135742 416.866215,157.955812 416.017578,157.595947 C415.168941,157.236082 414.419681,156.682865 413.769775,155.936279 C413.11987,155.189694 412.596193,154.24439 412.19873,153.100342 C411.801268,151.956293 411.602539,150.600105 411.602539,149.031738 C411.602539,147.592278 411.844236,146.268317 412.327637,145.059814 C412.811038,143.851312 413.471675,142.812016 414.30957,141.941895 C415.147465,141.071773 416.133051,140.392336 417.266357,139.903564 C418.399664,139.414792 419.616204,139.17041 420.916016,139.17041 C421.485354,139.17041 422.038572,139.208007 422.575684,139.283203 C423.112796,139.358399 423.574705,139.460449 423.961426,139.589355 L423.961426,134.223633 L420.529297,133.643555 L420.529297,132.241699 L426.330078,131.564941 L427.055176,131.935547 L427.055176,156.379395 L429.230469,156.379395 L429.230469,157.587891 C429.047851,157.684571 428.819581,157.775878 428.545654,157.861816 C428.271727,157.947754 427.981691,158.022949 427.675537,158.087402 C427.369383,158.151856 427.057863,158.200195 426.740967,158.232422 C426.424071,158.264649 426.125978,158.280762 425.84668,158.280762 C425.653319,158.280762 425.451905,158.267334 425.242432,158.240479 C425.032958,158.213623 424.842286,158.146485 424.67041,158.039062 C424.498534,157.93164 424.356202,157.765138 424.243408,157.539551 C424.130615,157.313964 424.074219,157.002443 424.074219,156.60498 L424.074219,156.202148 C423.913085,156.384767 423.676759,156.588866 423.365234,156.814453 C423.053709,157.04004 422.666994,157.249511 422.205078,157.442871 C421.743162,157.636231 421.214114,157.800048 420.61792,157.934326 C420.021726,158.068604 419.363773,158.135742 418.644043,158.135742 Z M419.884766,155.928223 C420.228517,155.928223 420.548094,155.909424 420.843506,155.871826 C421.138917,155.834228 421.415526,155.783203 421.67334,155.71875 C422.19971,155.589843 422.650877,155.41797 423.026855,155.203125 C423.402834,154.98828 423.714354,154.757325 423.961426,154.510254 L423.961426,142.183594 C423.843261,142.043945 423.698243,141.898927 423.526367,141.748535 C423.354491,141.598144 423.131593,141.458497 422.857666,141.32959 C422.583739,141.200683 422.256105,141.095948 421.874756,141.015381 C421.493406,140.934814 421.044924,140.894531 420.529297,140.894531 C420.121092,140.894531 419.69678,140.945556 419.256348,141.047607 C418.815916,141.149659 418.380862,141.318846 417.951172,141.555176 C417.521482,141.791505 417.113283,142.097654 416.726562,142.473633 C416.339842,142.849611 415.996095,143.308835 415.695312,143.851318 C415.39453,144.393802 415.152833,145.027584 414.970215,145.752686 C414.787597,146.477787 414.690918,147.307613 414.680176,148.242188 C414.658691,149.563483 414.792967,150.707515 415.083008,151.674316 C415.373048,152.641118 415.762449,153.438718 416.251221,154.067139 C416.739993,154.69556 417.301266,155.16284 417.935059,155.468994 C418.568851,155.775148 419.218747,155.928223 419.884766,155.928223 Z M431.243652,156.379395 L433.854004,156.041016 L433.854004,142.924805 L431.565918,141.667969 L431.565918,140.668945 L435.819824,139.395996 L436.577148,139.718262 L436.577148,142.199707 C436.781251,141.898924 437.090086,141.582033 437.503662,141.249023 C437.917238,140.916014 438.381833,140.61255 438.897461,140.338623 C439.413089,140.064696 439.950193,139.839112 440.508789,139.661865 C441.067386,139.484618 441.593748,139.395996 442.087891,139.395996 C442.442385,139.395996 442.761961,139.404053 443.046631,139.420166 C443.3313,139.436279 443.532714,139.46582 443.650879,139.508789 L443.650879,142.812012 C443.479003,142.747558 443.301759,142.68042 443.119141,142.610596 C442.936523,142.540771 442.735109,142.48169 442.514893,142.43335 C442.294677,142.38501 442.044923,142.344727 441.765625,142.3125 C441.486327,142.280273 441.164064,142.26416 440.798828,142.26416 C439.928707,142.26416 439.198245,142.374266 438.607422,142.594482 C438.016599,142.814698 437.474124,143.080565 436.97998,143.39209 L436.97998,155.992676 L441.572266,156.379395 L441.572266,157.749023 L431.243652,157.749023 L431.243652,156.379395 Z M445.212891,152.560547 C445.288086,151.80859 445.529783,151.150638 445.937988,150.58667 C446.346193,150.022702 446.851071,149.536623 447.452637,149.128418 C448.054202,148.720213 448.722897,148.381837 449.45874,148.113281 C450.194584,147.844725 450.933102,147.629884 451.674316,147.46875 C452.415531,147.307616 453.129879,147.194825 453.817383,147.130371 C454.504886,147.065918 455.101072,147.033691 455.605957,147.033691 L455.605957,145.631836 C455.605957,144.783199 455.493165,144.09302 455.267578,143.561279 C455.041991,143.029538 454.730471,142.613283 454.333008,142.3125 C453.935545,142.011717 453.468264,141.807618 452.931152,141.700195 C452.39404,141.592773 451.813968,141.539062 451.190918,141.539062 C450.879393,141.539062 450.530275,141.568603 450.143555,141.627686 C449.756834,141.686768 449.356692,141.770019 448.943115,141.877441 C448.529539,141.984864 448.113283,142.113769 447.694336,142.26416 C447.275389,142.414552 446.877932,142.581054 446.501953,142.763672 L445.905762,141.313477 C446.303225,140.991209 446.789304,140.70923 447.364014,140.467529 C447.938724,140.225829 448.529538,140.024415 449.136475,139.863281 C449.743411,139.702148 450.334226,139.583985 450.908936,139.508789 C451.483645,139.433593 451.975096,139.395996 452.383301,139.395996 C453.231938,139.395996 454.040279,139.484618 454.80835,139.661865 C455.57642,139.839112 456.250485,140.150633 456.830566,140.596436 C457.410647,141.042239 457.869871,141.643795 458.208252,142.401123 C458.546633,143.158451 458.71582,144.122553 458.71582,145.293457 L458.683594,156.379395 L460.746094,156.379395 L460.746094,157.442871 C460.370115,157.646974 459.90552,157.813476 459.352295,157.942383 C458.799069,158.07129 458.243167,158.135742 457.68457,158.135742 C457.49121,158.135742 457.281739,158.122315 457.056152,158.095459 C456.830565,158.068603 456.62378,158.001465 456.435791,157.894043 C456.247802,157.786621 456.092042,157.620118 455.968506,157.394531 C455.84497,157.168944 455.783203,156.857424 455.783203,156.459961 L455.783203,156.008789 C455.536132,156.309572 455.24341,156.588866 454.905029,156.84668 C454.566649,157.104493 454.179934,157.330077 453.744873,157.523438 C453.309812,157.716798 452.815677,157.867187 452.262451,157.974609 C451.709226,158.082032 451.094242,158.135742 450.41748,158.135742 C449.579586,158.135742 448.819583,157.985353 448.137451,157.68457 C447.455319,157.383788 446.885989,156.978274 446.429443,156.468018 C445.972898,155.957761 445.634523,155.366947 445.414307,154.695557 C445.194091,154.024167 445.126953,153.312504 445.212891,152.560547 Z M448.338867,152.625 C448.338867,153.258792 448.424804,153.795896 448.59668,154.236328 C448.768556,154.67676 449.018309,155.033934 449.345947,155.307861 C449.673586,155.581788 450.073728,155.780517 450.546387,155.904053 C451.019045,156.027589 451.550778,156.089355 452.141602,156.089355 C452.463869,156.089355 452.791502,156.046387 453.124512,155.960449 C453.457521,155.874511 453.777098,155.76709 454.083252,155.638184 C454.389406,155.509277 454.674071,155.361573 454.937256,155.195068 C455.200441,155.028564 455.412597,154.864747 455.57373,154.703613 C455.57373,153.693843 455.576416,152.692144 455.581787,151.698486 C455.587158,150.704829 455.595215,149.70313 455.605957,148.693359 C455.154783,148.693359 454.660647,148.717529 454.123535,148.765869 C453.586423,148.814209 453.049319,148.89746 452.512207,149.015625 C451.975095,149.13379 451.454104,149.28955 450.949219,149.48291 C450.444333,149.67627 449.998537,149.920653 449.611816,150.216064 C449.225096,150.511476 448.916261,150.857908 448.685303,151.255371 C448.454345,151.652834 448.338867,152.109372 448.338867,152.625 Z M329.106445,189.379395 L331.82959,188.895996 L331.82959,167.594238 L329.170898,167.304199 L329.170898,165.725098 L333.408691,165.725098 C334.128422,165.725098 334.751462,165.714356 335.277832,165.692871 C335.804202,165.671387 336.292966,165.644531 336.744141,165.612305 C337.195315,165.580078 337.63574,165.553223 338.06543,165.531738 C338.495119,165.510254 338.9624,165.499512 339.467285,165.499512 C341.55128,165.488769 343.355949,165.760007 344.881348,166.313232 C346.406746,166.866458 347.66894,167.666743 348.667969,168.714111 C349.666997,169.76148 350.408201,171.031731 350.891602,172.524902 C351.375002,174.018074 351.616699,175.70458 351.616699,177.584473 C351.616699,179.700694 351.289066,181.5913 350.633789,183.256348 C349.978512,184.921395 349.078863,186.328608 347.934814,187.478027 C346.790766,188.627447 345.442635,189.497556 343.890381,190.088379 C342.338127,190.679202 340.670419,190.953125 338.887207,190.910156 C338.092281,190.888672 337.257084,190.85376 336.381592,190.80542 C335.506099,190.75708 334.531255,190.73291 333.457031,190.73291 C332.726559,190.73291 332.001468,190.735596 331.281738,190.740967 C330.562008,190.746338 329.836918,190.749023 329.106445,190.749023 L329.106445,189.379395 Z M334.97168,188.62207 C335.659183,188.815431 336.36816,188.952392 337.098633,189.032959 C337.829105,189.113526 338.613277,189.143067 339.451172,189.121582 C340.632818,189.089355 341.758051,188.85303 342.826904,188.412598 C343.895757,187.972166 344.838375,187.314213 345.654785,186.438721 C346.471195,185.563228 347.118406,184.456794 347.596436,183.119385 C348.074465,181.781976 348.313477,180.200204 348.313477,178.374023 C348.313477,176.472647 348.085207,174.821052 347.628662,173.419189 C347.172117,172.017327 346.519535,170.857182 345.670898,169.938721 C344.822261,169.020259 343.791022,168.340823 342.577148,167.900391 C341.363275,167.459959 340.004402,167.26123 338.500488,167.304199 C338.060056,167.314941 337.673342,167.331055 337.340332,167.352539 C337.007323,167.374024 336.706544,167.395508 336.437988,167.416992 C336.169432,167.438477 335.919679,167.468017 335.688721,167.505615 C335.457763,167.543213 335.218751,167.583496 334.97168,167.626465 L334.97168,188.62207 Z M353.726562,181.371094 C353.748047,179.931633 353.9978,178.645269 354.47583,177.511963 C354.95386,176.378656 355.584957,175.419926 356.369141,174.635742 C357.153324,173.851559 358.058344,173.250002 359.084229,172.831055 C360.110113,172.412107 361.181635,172.197266 362.298828,172.186523 C363.663093,172.175781 364.850093,172.412107 365.859863,172.895508 C366.869634,173.378909 367.704831,174.042232 368.365479,174.885498 C369.026126,175.728764 369.517577,176.719721 369.839844,177.858398 C370.162111,178.997076 370.317871,180.216302 370.307129,181.516113 C370.296387,182.944831 370.068117,184.249994 369.622314,185.431641 C369.176511,186.613287 368.574955,187.625728 367.817627,188.468994 C367.060299,189.31226 366.174077,189.967527 365.158936,190.434814 C364.143794,190.902102 363.056158,191.135742 361.895996,191.135742 C360.413567,191.135742 359.151372,190.86719 358.109375,190.330078 C357.067378,189.792966 356.218753,189.073247 355.563477,188.170898 C354.9082,187.26855 354.432863,186.229254 354.137451,185.052979 C353.84204,183.876703 353.705078,182.64942 353.726562,181.371094 Z M362.041016,189.331055 C362.954106,189.352539 363.72485,189.196779 364.353271,188.86377 C364.981693,188.53076 365.491941,188.03931 365.884033,187.389404 C366.276125,186.739499 366.56079,185.933843 366.738037,184.972412 C366.915284,184.010982 367.003906,182.907233 367.003906,181.661133 C367.003906,180.576166 366.909913,179.563725 366.721924,178.623779 C366.533935,177.683833 366.238527,176.86475 365.835693,176.166504 C365.432859,175.468258 364.922611,174.917727 364.304932,174.514893 C363.687253,174.112059 362.954106,173.899902 362.105469,173.878418 C361.192378,173.867676 360.416263,174.026121 359.7771,174.35376 C359.137936,174.681398 358.61426,175.162106 358.206055,175.795898 C357.79785,176.429691 357.499757,177.20312 357.311768,178.116211 C357.123778,179.029301 357.029785,180.065912 357.029785,181.226074 C357.029785,182.268072 357.131835,183.272456 357.335938,184.239258 C357.54004,185.20606 357.846189,186.06274 358.254395,186.809326 C358.6626,187.555912 359.180905,188.157468 359.809326,188.614014 C360.437747,189.070559 361.181636,189.30957 362.041016,189.331055 Z M372.594238,182.080078 C372.583496,180.597649 372.803709,179.26026 373.254883,178.067871 C373.706057,176.875482 374.326412,175.854985 375.115967,175.006348 C375.905522,174.157711 376.834711,173.497073 377.903564,173.024414 C378.972417,172.551755 380.124506,172.288574 381.359863,172.234863 C381.811037,172.224121 382.270261,172.232178 382.737549,172.259033 C383.204836,172.285889 383.645262,172.334228 384.058838,172.404053 C384.472414,172.473877 384.851072,172.562499 385.194824,172.669922 C385.538576,172.777344 385.81787,172.900878 386.032715,173.040527 L386.032715,176.907715 L384.501953,176.907715 L383.680176,174.877441 C383.5083,174.737792 383.309571,174.619629 383.083984,174.522949 C382.858397,174.426269 382.627443,174.345703 382.391113,174.28125 C382.154784,174.216797 381.918458,174.171143 381.682129,174.144287 C381.4458,174.117432 381.230958,174.104004 381.037598,174.104004 C380.317867,174.104004 379.630374,174.23828 378.975098,174.506836 C378.319821,174.775392 377.739749,175.180905 377.234863,175.723389 C376.729978,176.265872 376.32715,176.947994 376.026367,177.769775 C375.725584,178.591557 375.569824,179.555659 375.559082,180.662109 C375.54834,182.123054 375.720213,183.374507 376.074707,184.416504 C376.429201,185.458501 376.89111,186.309811 377.460449,186.970459 C378.029788,187.631107 378.663571,188.1145 379.361816,188.420654 C380.060062,188.726808 380.747555,188.879883 381.424316,188.879883 C381.843264,188.879883 382.278318,188.853028 382.729492,188.799316 C383.180666,188.745605 383.615721,188.675782 384.034668,188.589844 C384.453615,188.503906 384.84033,188.399171 385.194824,188.275635 C385.549318,188.152099 385.839354,188.02588 386.064941,187.896973 L386.612793,189.331055 C386.301268,189.610353 385.914553,189.857421 385.452637,190.072266 C384.99072,190.28711 384.483157,190.469726 383.929932,190.620117 C383.376706,190.770509 382.796634,190.885986 382.189697,190.966553 C381.582761,191.04712 380.973148,191.087402 380.36084,191.087402 C379.11474,191.087402 378.013677,190.861819 377.057617,190.410645 C376.101558,189.95947 375.293216,189.331059 374.632568,188.525391 C373.971921,187.719723 373.469728,186.766363 373.125977,185.665283 C372.782225,184.564203 372.604981,183.369147 372.594238,182.080078 Z M390.188965,175.006348 L388.529297,174.522949 L388.529297,173.282227 L392.67041,172.395996 L393.234375,172.686035 L393.234375,183.788086 C393.234375,184.679692 393.282714,185.445065 393.379395,186.084229 C393.476075,186.723392 393.653319,187.249754 393.911133,187.66333 C394.168947,188.076906 394.523435,188.383056 394.974609,188.581787 C395.425784,188.780519 396.005856,188.879883 396.714844,188.879883 C397.198245,188.879883 397.673582,188.812745 398.140869,188.678467 C398.608157,188.544189 399.043211,188.383058 399.446045,188.195068 C399.848879,188.007079 400.200682,187.808351 400.501465,187.598877 C400.802248,187.389403 401.02246,187.209473 401.162109,187.059082 L401.162109,175.151367 L399.147949,174.635742 L399.147949,173.314453 L403.756348,172.395996 L404.20752,172.669922 L404.20752,189.379395 L406.141113,189.379395 L406.141113,190.604004 C405.97998,190.689942 405.781251,190.773193 405.544922,190.85376 C405.308593,190.934327 405.053468,191.006836 404.779541,191.071289 C404.505614,191.135743 404.22632,191.189453 403.94165,191.232422 C403.656981,191.275391 403.385743,191.296875 403.12793,191.296875 C402.612302,191.296875 402.206789,191.186769 401.911377,190.966553 C401.615965,190.746337 401.468262,190.394534 401.468262,189.911133 L401.468262,188.589844 C400.533687,189.406254 399.553472,190.026609 398.527588,190.450928 C397.501704,190.875246 396.500005,191.087402 395.522461,191.087402 C394.254876,191.087402 393.266605,190.891359 392.557617,190.499268 C391.848629,190.107176 391.319582,189.564701 390.970459,188.871826 C390.621336,188.178952 390.406495,187.359868 390.325928,186.414551 C390.245361,185.469234 390.199707,184.437994 390.188965,183.320801 L390.188965,175.006348 Z M408.782715,189.379395 L410.974121,189.024902 L410.974121,175.924805 L408.686035,174.667969 L408.686035,173.668945 L412.972168,172.395996 L413.697266,172.718262 L413.697266,175.022461 C414.05176,174.710936 414.481443,174.402101 414.986328,174.095947 C415.491213,173.789793 416.031003,173.513185 416.605713,173.266113 C417.180423,173.019042 417.768552,172.817628 418.370117,172.661865 C418.971683,172.506103 419.546384,172.417481 420.094238,172.395996 C421.2544,172.353027 422.191647,172.506102 422.906006,172.855225 C423.620365,173.204347 424.176268,173.81396 424.57373,174.684082 C424.960451,174.394042 425.41699,174.114747 425.943359,173.846191 C426.469729,173.577635 427.022946,173.338624 427.603027,173.12915 C428.183108,172.919677 428.768552,172.750489 429.359375,172.621582 C429.950198,172.492675 430.503415,172.417481 431.019043,172.395996 C432.018071,172.363769 432.861325,172.487303 433.548828,172.766602 C434.236332,173.0459 434.789549,173.497067 435.208496,174.120117 C435.627444,174.743167 435.928222,175.548823 436.11084,176.537109 C436.293458,177.525396 436.384766,178.712395 436.384766,180.098145 L436.384766,189.041016 L439.10791,189.379395 L439.10791,190.749023 L431.099609,190.749023 L431.099609,189.379395 L433.291016,189.041016 L433.291016,180.662109 C433.291016,179.630854 433.242676,178.736576 433.145996,177.979248 C433.049316,177.22192 432.858644,176.598879 432.573975,176.110107 C432.289305,175.621335 431.894534,175.264161 431.389648,175.038574 C430.884763,174.812987 430.224125,174.716308 429.407715,174.748535 C428.677242,174.780762 427.952152,174.917723 427.232422,175.159424 C426.512692,175.401124 425.803714,175.720701 425.105469,176.118164 C425.223633,176.633792 425.314941,177.221921 425.379395,177.882568 C425.443848,178.543216 425.476074,179.228024 425.476074,179.937012 L425.476074,189.057129 L427.941406,189.379395 L427.941406,190.749023 L419.965332,190.749023 L419.965332,189.379395 L422.382324,189.024902 L422.382324,180.404297 C422.382324,179.383784 422.331299,178.508304 422.229248,177.777832 C422.127197,177.04736 421.931154,176.451174 421.641113,175.989258 C421.351073,175.527341 420.95093,175.197022 420.440674,174.998291 C419.930417,174.79956 419.267094,174.716308 418.450684,174.748535 C417.870603,174.780762 417.207279,174.928465 416.460693,175.19165 C415.714108,175.454835 414.932621,175.86572 414.116211,176.424316 L414.116211,179.373047 C414.116211,180.995125 414.11084,182.606437 414.100098,184.207031 C414.089355,185.807625 414.089355,187.418937 414.100098,189.041016 L416.500977,189.379395 L416.500977,190.749023 L408.782715,190.749023 L408.782715,189.379395 Z M440.524902,181.790039 C440.524902,180.415032 440.742429,179.147467 441.17749,177.987305 C441.612551,176.827143 442.219479,175.822758 442.998291,174.974121 C443.777104,174.125484 444.71435,173.45679 445.810059,172.968018 C446.905767,172.479246 448.114251,172.21875 449.435547,172.186523 C450.380864,172.165039 451.234859,172.302 451.997559,172.597412 C452.760258,172.892824 453.410154,173.330564 453.947266,173.910645 C454.484378,174.490726 454.906004,175.199703 455.212158,176.037598 C455.518312,176.875492 455.692871,177.826167 455.73584,178.889648 C455.757324,179.56641 455.743897,180.151853 455.695557,180.645996 C455.647217,181.140139 455.596192,181.580564 455.54248,181.967285 L443.602539,181.967285 L443.602539,182.152588 C443.602539,182.21167 443.60791,182.273437 443.618652,182.337891 C443.661621,183.637702 443.881834,184.71191 444.279297,185.560547 C444.67676,186.409184 445.173581,187.083249 445.769775,187.582764 C446.36597,188.082278 447.023922,188.431395 447.743652,188.630127 C448.463383,188.828858 449.166989,188.928223 449.854492,188.928223 C450.27344,188.928223 450.713865,188.904053 451.175781,188.855713 C451.637698,188.807373 452.086179,188.737549 452.52124,188.64624 C452.956301,188.554931 453.359129,188.450196 453.729736,188.332031 C454.100344,188.213867 454.398436,188.090333 454.624023,187.961426 L455.220215,189.331055 C454.90869,189.610353 454.503176,189.862792 454.003662,190.088379 C453.504148,190.313966 452.958987,190.504638 452.368164,190.6604 C451.777341,190.816163 451.159671,190.934326 450.515137,191.014893 C449.870602,191.095459 449.242191,191.135742 448.629883,191.135742 C447.330072,191.135742 446.177984,190.912844 445.173584,190.467041 C444.169184,190.021238 443.323246,189.392826 442.635742,188.581787 C441.948239,187.770748 441.424562,186.790533 441.064697,185.641113 C440.704832,184.491693 440.524902,183.208015 440.524902,181.790039 Z M452.44873,180.065918 C452.480957,179.518064 452.489014,178.967532 452.4729,178.414307 C452.456787,177.861081 452.389649,177.334719 452.271484,176.835205 C452.15332,176.335691 451.97339,175.879152 451.731689,175.465576 C451.489989,175.052 451.165041,174.71631 450.756836,174.458496 C450.477538,174.275878 450.160646,174.138916 449.806152,174.047607 C449.451658,173.956298 449.04883,173.910645 448.597656,173.910645 C447.996091,173.910645 447.413333,174.023436 446.849365,174.249023 C446.285398,174.474611 445.78052,174.83447 445.334717,175.328613 C444.888914,175.822756 444.515627,176.459225 444.214844,177.238037 C443.914061,178.01685 443.720704,178.959467 443.634766,180.065918 L452.44873,180.065918 Z M458.586914,189.379395 L460.77832,189.057129 L460.77832,175.924805 L458.490234,174.667969 L458.490234,173.668945 L462.776367,172.395996 L463.501465,172.718262 L463.501465,175.022461 C463.866701,174.710936 464.307126,174.402101 464.822754,174.095947 C465.338381,173.789793 465.886228,173.513185 466.466309,173.266113 C467.04639,173.019042 467.642575,172.817628 468.254883,172.661865 C468.867191,172.506103 469.447263,172.417481 469.995117,172.395996 C470.994146,172.363769 471.832028,172.484618 472.508789,172.758545 C473.18555,173.032472 473.733396,173.478268 474.152344,174.095947 C474.571291,174.713626 474.872069,175.505855 475.054688,176.472656 C475.237306,177.439458 475.328613,178.599603 475.328613,179.953125 L475.328613,189.057129 L477.922852,189.379395 L477.922852,190.749023 L469.801758,190.749023 L469.801758,189.379395 L472.234863,189.041016 L472.234863,180.51709 C472.234863,179.539546 472.186524,178.680179 472.089844,177.938965 C471.993164,177.19775 471.802492,176.585452 471.517822,176.102051 C471.233153,175.61865 470.838381,175.264161 470.333496,175.038574 C469.828611,174.812987 469.167973,174.716308 468.351562,174.748535 C467.685544,174.780762 466.981937,174.928465 466.240723,175.19165 C465.499508,175.454835 464.720707,175.86572 463.904297,176.424316 L463.904297,189.041016 L466.305176,189.379395 L466.305176,190.749023 L458.586914,190.749023 L458.586914,189.379395 Z M482.111328,186.527344 C482.111328,184.550771 482.114014,182.587656 482.119385,180.637939 C482.124756,178.688223 482.127441,176.725108 482.127441,174.748535 L479.662109,174.748535 L479.662109,173.540039 C480.134768,173.421874 480.529539,173.327881 480.846436,173.258057 C481.163332,173.188232 481.426513,173.107666 481.635986,173.016357 C481.84546,172.925048 482.020019,172.809571 482.159668,172.669922 C482.299317,172.530273 482.428222,172.326173 482.546387,172.057617 C482.621582,171.874999 482.715576,171.606447 482.828369,171.251953 C482.941163,170.897459 483.048583,170.534914 483.150635,170.164307 C483.252686,169.793699 483.341308,169.444582 483.416504,169.116943 C483.4917,168.789305 483.540039,168.555665 483.561523,168.416016 L485.156738,168.416016 L485.156738,172.718262 L490.570801,172.718262 L490.570801,174.748535 L485.156738,174.748535 L485.156738,182.869629 C485.156738,184.115729 485.172851,185.12817 485.205078,185.906982 C485.237305,186.685795 485.31787,187.295408 485.446777,187.73584 C485.575684,188.176272 485.763671,188.474364 486.010742,188.630127 C486.257814,188.785889 486.60156,188.86377 487.041992,188.86377 C487.310548,188.86377 487.608641,188.836914 487.936279,188.783203 C488.263918,188.729492 488.580809,188.665039 488.886963,188.589844 C489.193117,188.514648 489.475096,188.431397 489.73291,188.340088 C489.990724,188.248779 490.184081,188.160157 490.312988,188.074219 L490.8125,189.492188 C490.565428,189.760744 490.237795,189.997069 489.82959,190.201172 C489.421385,190.405274 488.978274,190.577148 488.500244,190.716797 C488.022214,190.856446 487.544192,190.961181 487.066162,191.031006 C486.588132,191.10083 486.166506,191.135742 485.80127,191.135742 C484.630365,191.135742 483.722659,190.775883 483.078125,190.056152 C482.433591,189.336422 482.111328,188.160164 482.111328,186.527344 Z M492.648438,185.560547 C492.723633,184.80859 492.96533,184.150638 493.373535,183.58667 C493.78174,183.022702 494.286618,182.536623 494.888184,182.128418 C495.489749,181.720213 496.158444,181.381837 496.894287,181.113281 C497.630131,180.844725 498.368649,180.629884 499.109863,180.46875 C499.851078,180.307616 500.565426,180.194825 501.25293,180.130371 C501.940433,180.065918 502.536619,180.033691 503.041504,180.033691 L503.041504,178.631836 C503.041504,177.783199 502.928712,177.09302 502.703125,176.561279 C502.477538,176.029538 502.166018,175.613283 501.768555,175.3125 C501.371092,175.011717 500.903811,174.807618 500.366699,174.700195 C499.829587,174.592773 499.249515,174.539062 498.626465,174.539062 C498.31494,174.539062 497.965822,174.568603 497.579102,174.627686 C497.192381,174.686768 496.792238,174.770019 496.378662,174.877441 C495.965086,174.984864 495.54883,175.113769 495.129883,175.26416 C494.710935,175.414552 494.313478,175.581054 493.9375,175.763672 L493.341309,174.313477 C493.738772,173.991209 494.224851,173.70923 494.799561,173.467529 C495.37427,173.225829 495.965085,173.024415 496.572021,172.863281 C497.178958,172.702148 497.769773,172.583985 498.344482,172.508789 C498.919192,172.433593 499.410642,172.395996 499.818848,172.395996 C500.667485,172.395996 501.475826,172.484618 502.243896,172.661865 C503.011967,172.839112 503.686032,173.150633 504.266113,173.596436 C504.846194,174.042239 505.305418,174.643795 505.643799,175.401123 C505.982179,176.158451 506.151367,177.122553 506.151367,178.293457 L506.119141,189.379395 L508.181641,189.379395 L508.181641,190.442871 C507.805662,190.646974 507.341067,190.813476 506.787842,190.942383 C506.234616,191.07129 505.678714,191.135742 505.120117,191.135742 C504.926757,191.135742 504.717286,191.122315 504.491699,191.095459 C504.266112,191.068603 504.059327,191.001465 503.871338,190.894043 C503.683349,190.786621 503.527589,190.620118 503.404053,190.394531 C503.280517,190.168944 503.21875,189.857424 503.21875,189.459961 L503.21875,189.008789 C502.971678,189.309572 502.678957,189.588866 502.340576,189.84668 C502.002196,190.104493 501.615481,190.330077 501.18042,190.523438 C500.745359,190.716798 500.251223,190.867187 499.697998,190.974609 C499.144773,191.082032 498.529789,191.135742 497.853027,191.135742 C497.015133,191.135742 496.25513,190.985353 495.572998,190.68457 C494.890866,190.383788 494.321535,189.978274 493.86499,189.468018 C493.408445,188.957761 493.070069,188.366947 492.849854,187.695557 C492.629638,187.024167 492.5625,186.312504 492.648438,185.560547 Z M495.774414,185.625 C495.774414,186.258792 495.860351,186.795896 496.032227,187.236328 C496.204102,187.67676 496.453856,188.033934 496.781494,188.307861 C497.109132,188.581788 497.509275,188.780517 497.981934,188.904053 C498.454592,189.027589 498.986325,189.089355 499.577148,189.089355 C499.899416,189.089355 500.227049,189.046387 500.560059,188.960449 C500.893068,188.874511 501.212645,188.76709 501.518799,188.638184 C501.824953,188.509277 502.109618,188.361573 502.372803,188.195068 C502.635988,188.028564 502.848144,187.864747 503.009277,187.703613 C503.009277,186.693843 503.011963,185.692144 503.017334,184.698486 C503.022705,183.704829 503.030762,182.70313 503.041504,181.693359 C502.59033,181.693359 502.096194,181.717529 501.559082,181.765869 C501.02197,181.814209 500.484866,181.89746 499.947754,182.015625 C499.410642,182.13379 498.889651,182.28955 498.384766,182.48291 C497.87988,182.67627 497.434084,182.920653 497.047363,183.216064 C496.660643,183.511476 496.351808,183.857908 496.12085,184.255371 C495.889891,184.652834 495.774414,185.109372 495.774414,185.625 Z M512.450684,186.527344 C512.450684,184.550771 512.453369,182.587656 512.45874,180.637939 C512.464111,178.688223 512.466797,176.725108 512.466797,174.748535 L510.001465,174.748535 L510.001465,173.540039 C510.474123,173.421874 510.868895,173.327881 511.185791,173.258057 C511.502687,173.188232 511.765868,173.107666 511.975342,173.016357 C512.184816,172.925048 512.359374,172.809571 512.499023,172.669922 C512.638673,172.530273 512.767578,172.326173 512.885742,172.057617 C512.960938,171.874999 513.054931,171.606447 513.167725,171.251953 C513.280518,170.897459 513.387939,170.534914 513.48999,170.164307 C513.592042,169.793699 513.680664,169.444582 513.755859,169.116943 C513.831055,168.789305 513.879394,168.555665 513.900879,168.416016 L515.496094,168.416016 L515.496094,172.718262 L520.910156,172.718262 L520.910156,174.748535 L515.496094,174.748535 L515.496094,182.869629 C515.496094,184.115729 515.512207,185.12817 515.544434,185.906982 C515.57666,186.685795 515.657226,187.295408 515.786133,187.73584 C515.91504,188.176272 516.103026,188.474364 516.350098,188.630127 C516.597169,188.785889 516.940916,188.86377 517.381348,188.86377 C517.649904,188.86377 517.947996,188.836914 518.275635,188.783203 C518.603273,188.729492 518.920164,188.665039 519.226318,188.589844 C519.532472,188.514648 519.814452,188.431397 520.072266,188.340088 C520.330079,188.248779 520.523437,188.160157 520.652344,188.074219 L521.151855,189.492188 C520.904784,189.760744 520.57715,189.997069 520.168945,190.201172 C519.76074,190.405274 519.317629,190.577148 518.8396,190.716797 C518.36157,190.856446 517.883547,190.961181 517.405518,191.031006 C516.927488,191.10083 516.505861,191.135742 516.140625,191.135742 C514.969721,191.135742 514.062015,190.775883 513.41748,190.056152 C512.772946,189.336422 512.450684,188.160164 512.450684,186.527344 Z M526.452148,168.593262 C526.194335,168.593262 525.941896,168.547608 525.694824,168.456299 C525.447753,168.36499 525.230226,168.236085 525.042236,168.06958 C524.854247,167.903075 524.703858,167.69629 524.591064,167.449219 C524.478271,167.202147 524.421875,166.922853 524.421875,166.611328 C524.421875,166.278319 524.494384,165.966798 524.639404,165.676758 C524.784425,165.386717 524.969725,165.136964 525.195312,164.92749 C525.4209,164.718017 525.676024,164.5542 525.960693,164.436035 C526.245363,164.317871 526.532713,164.258789 526.822754,164.258789 C527.531742,164.258789 528.050047,164.454832 528.377686,164.846924 C528.705324,165.239016 528.869141,165.708982 528.869141,166.256836 C528.869141,166.61133 528.799317,166.933592 528.659668,167.223633 C528.520019,167.513673 528.337403,167.758056 528.111816,167.956787 C527.886229,168.155519 527.628419,168.311279 527.338379,168.424072 C527.048338,168.536866 526.752931,168.593262 526.452148,168.593262 Z M522.891113,189.379395 L525.630371,189.041016 L525.630371,175.844238 L523.406738,174.667969 L523.406738,173.668945 L527.870117,172.395996 L528.595215,172.718262 L528.595215,189.041016 L531.205566,189.379395 L531.205566,190.749023 L522.891113,190.749023 L522.891113,189.379395 Z M532.751465,181.371094 C532.772949,179.931633 533.022703,178.645269 533.500732,177.511963 C533.978762,176.378656 534.609859,175.419926 535.394043,174.635742 C536.178227,173.851559 537.083247,173.250002 538.109131,172.831055 C539.135015,172.412107 540.206537,172.197266 541.32373,172.186523 C542.687995,172.175781 543.874995,172.412107 544.884766,172.895508 C545.894536,173.378909 546.729733,174.042232 547.390381,174.885498 C548.051029,175.728764 548.542479,176.719721 548.864746,177.858398 C549.187013,178.997076 549.342773,180.216302 549.332031,181.516113 C549.321289,182.944831 549.09302,184.249994 548.647217,185.431641 C548.201414,186.613287 547.599857,187.625728 546.842529,188.468994 C546.085201,189.31226 545.19898,189.967527 544.183838,190.434814 C543.168696,190.902102 542.08106,191.135742 540.920898,191.135742 C539.438469,191.135742 538.176275,190.86719 537.134277,190.330078 C536.09228,189.792966 535.243656,189.073247 534.588379,188.170898 C533.933102,187.26855 533.457765,186.229254 533.162354,185.052979 C532.866942,183.876703 532.72998,182.64942 532.751465,181.371094 Z M541.065918,189.331055 C541.979008,189.352539 542.749753,189.196779 543.378174,188.86377 C544.006595,188.53076 544.516844,188.03931 544.908936,187.389404 C545.301027,186.739499 545.585692,185.933843 545.762939,184.972412 C545.940186,184.010982 546.028809,182.907233 546.028809,181.661133 C546.028809,180.576166 545.934815,179.563725 545.746826,178.623779 C545.558837,177.683833 545.26343,176.86475 544.860596,176.166504 C544.457762,175.468258 543.947513,174.917727 543.329834,174.514893 C542.712155,174.112059 541.979008,173.899902 541.130371,173.878418 C540.217281,173.867676 539.441165,174.026121 538.802002,174.35376 C538.162839,174.681398 537.639162,175.162106 537.230957,175.795898 C536.822752,176.429691 536.524659,177.20312 536.33667,178.116211 C536.148681,179.029301 536.054688,180.065912 536.054688,181.226074 C536.054688,182.268072 536.156737,183.272456 536.36084,184.239258 C536.564942,185.20606 536.871092,186.06274 537.279297,186.809326 C537.687502,187.555912 538.205807,188.157468 538.834229,188.614014 C539.46265,189.070559 540.206539,189.30957 541.065918,189.331055 Z M552.150879,189.379395 L554.342285,189.057129 L554.342285,175.924805 L552.054199,174.667969 L552.054199,173.668945 L556.340332,172.395996 L557.06543,172.718262 L557.06543,175.022461 C557.430666,174.710936 557.871091,174.402101 558.386719,174.095947 C558.902346,173.789793 559.450192,173.513185 560.030273,173.266113 C560.610354,173.019042 561.20654,172.817628 561.818848,172.661865 C562.431155,172.506103 563.011228,172.417481 563.559082,172.395996 C564.55811,172.363769 565.395993,172.484618 566.072754,172.758545 C566.749515,173.032472 567.297361,173.478268 567.716309,174.095947 C568.135256,174.713626 568.436034,175.505855 568.618652,176.472656 C568.80127,177.439458 568.892578,178.599603 568.892578,179.953125 L568.892578,189.057129 L571.486816,189.379395 L571.486816,190.749023 L563.365723,190.749023 L563.365723,189.379395 L565.798828,189.041016 L565.798828,180.51709 C565.798828,179.539546 565.750489,178.680179 565.653809,177.938965 C565.557128,177.19775 565.366457,176.585452 565.081787,176.102051 C564.797118,175.61865 564.402346,175.264161 563.897461,175.038574 C563.392576,174.812987 562.731938,174.716308 561.915527,174.748535 C561.249508,174.780762 560.545902,174.928465 559.804688,175.19165 C559.063473,175.454835 558.284672,175.86572 557.468262,176.424316 L557.468262,189.041016 L559.869141,189.379395 L559.869141,190.749023 L552.150879,190.749023 L552.150879,189.379395 Z" id="Imandra-Documentatio" fill="#0C3A50"></path>
            </g>
        </g>
    </g>
</svg>